<ttFont>
    <TTGlyph name="A" xMin="35" yMin="0" xMax="652" yMax="727">
      <contour>
        <pt x="390" y="727" on="1"/>
        <pt x="652" y="0" on="1"/>
        <pt x="550" y="0" on="1"/>
        <pt x="347" y="586" on="1"/>
        <pt x="340" y="615" on="1"/>
        <pt x="333" y="586" on="1"/>
        <pt x="221" y="265" on="1"/>
        <pt x="210" y="244" on="1"/>
        <pt x="222" y="246" on="1"/>
        <pt x="357" y="246" on="1"/>
        <pt x="393" y="246" on="0"/>
        <pt x="431" y="203" on="0"/>
        <pt x="442" y="174" on="1"/>
        <pt x="190" y="174" on="1"/>
        <pt x="130" y="0" on="1"/>
        <pt x="35" y="0" on="1"/>
        <pt x="297" y="727" on="1"/>
      </contour>
    </TTGlyph>
    <TTGlyph name="AE" xMin="21" yMin="0" xMax="914" yMax="727">
      <contour>
        <pt x="438" y="605" on="1"/>
        <pt x="436" y="645" on="1"/>
        <pt x="421" y="605" on="1"/>
        <pt x="251" y="265" on="1"/>
        <pt x="237" y="244" on="1"/>
        <pt x="255" y="246" on="1"/>
        <pt x="383" y="246" on="1"/>
        <pt x="419" y="246" on="0"/>
        <pt x="457" y="203" on="0"/>
        <pt x="468" y="174" on="1"/>
        <pt x="207" y="174" on="1"/>
        <pt x="120" y="0" on="1"/>
        <pt x="21" y="0" on="1"/>
        <pt x="390" y="727" on="1"/>
        <pt x="844" y="727" on="1"/>
        <pt x="844" y="655" on="1"/>
        <pt x="520" y="655" on="1"/>
        <pt x="610" y="72" on="1"/>
        <pt x="914" y="72" on="1"/>
        <pt x="914" y="0" on="1"/>
        <pt x="533" y="0" on="1"/>
      </contour>
      <contour>
        <pt x="854" y="416" on="1"/>
        <pt x="854" y="346" on="1"/>
        <pt x="602" y="346" on="1"/>
        <pt x="611" y="375" on="0"/>
        <pt x="648" y="416" on="0"/>
        <pt x="684" y="416" on="1"/>
      </contour>
    </TTGlyph>
    <TTGlyph name="Aacute" xMin="35" yMin="0" xMax="652" yMax="890">
      <contour>
        <pt x="390" y="727" on="1"/>
        <pt x="652" y="0" on="1"/>
        <pt x="550" y="0" on="1"/>
        <pt x="340" y="605" on="1"/>
        <pt x="221" y="265" on="1"/>
        <pt x="210" y="244" on="1"/>
        <pt x="222" y="246" on="1"/>
        <pt x="357" y="246" on="1"/>
        <pt x="393" y="246" on="0"/>
        <pt x="431" y="203" on="0"/>
        <pt x="442" y="174" on="1"/>
        <pt x="190" y="174" on="1"/>
        <pt x="130" y="0" on="1"/>
        <pt x="35" y="0" on="1"/>
        <pt x="297" y="727" on="1"/>
      </contour>
      <contour>
        <pt x="392" y="792" on="1"/>
        <pt x="372" y="770" on="0"/>
        <pt x="320" y="760" on="0"/>
        <pt x="294" y="766" on="1"/>
        <pt x="383" y="890" on="1"/>
        <pt x="480" y="890" on="1"/>
      </contour>
    </TTGlyph>
    <TTGlyph name="Acircumflex" xMin="35" yMin="0" xMax="652" yMax="890">
      <contour>
        <pt x="390" y="727" on="1"/>
        <pt x="652" y="0" on="1"/>
        <pt x="550" y="0" on="1"/>
        <pt x="340" y="605" on="1"/>
        <pt x="221" y="265" on="1"/>
        <pt x="210" y="244" on="1"/>
        <pt x="222" y="246" on="1"/>
        <pt x="357" y="246" on="1"/>
        <pt x="393" y="246" on="0"/>
        <pt x="431" y="203" on="0"/>
        <pt x="442" y="174" on="1"/>
        <pt x="190" y="174" on="1"/>
        <pt x="130" y="0" on="1"/>
        <pt x="35" y="0" on="1"/>
        <pt x="297" y="727" on="1"/>
      </contour>
      <contour>
        <pt x="369" y="890" on="1"/>
        <pt x="480" y="770" on="1"/>
        <pt x="428" y="762" on="1"/>
        <pt x="340" y="821" on="1"/>
        <pt x="252" y="761" on="1"/>
        <pt x="203" y="770" on="1"/>
        <pt x="312" y="890" on="1"/>
      </contour>
    </TTGlyph>
    <TTGlyph name="Adieresis" xMin="35" yMin="0" xMax="652" yMax="892">
      <contour>
        <pt x="390" y="727" on="1"/>
        <pt x="652" y="0" on="1"/>
        <pt x="550" y="0" on="1"/>
        <pt x="340" y="605" on="1"/>
        <pt x="221" y="265" on="1"/>
        <pt x="210" y="244" on="1"/>
        <pt x="222" y="246" on="1"/>
        <pt x="357" y="246" on="1"/>
        <pt x="393" y="246" on="0"/>
        <pt x="431" y="203" on="0"/>
        <pt x="442" y="174" on="1"/>
        <pt x="190" y="174" on="1"/>
        <pt x="130" y="0" on="1"/>
        <pt x="35" y="0" on="1"/>
        <pt x="297" y="727" on="1"/>
      </contour>
      <contour>
        <pt x="194" y="840" on="1"/>
        <pt x="194" y="862" on="0"/>
        <pt x="225" y="892" on="0"/>
        <pt x="246" y="892" on="1"/>
        <pt x="268" y="892" on="0"/>
        <pt x="299" y="862" on="0"/>
        <pt x="299" y="840" on="1"/>
        <pt x="299" y="818" on="0"/>
        <pt x="268" y="788" on="0"/>
        <pt x="246" y="788" on="1"/>
        <pt x="225" y="788" on="0"/>
        <pt x="194" y="818" on="0"/>
      </contour>
      <contour>
        <pt x="388" y="840" on="1"/>
        <pt x="388" y="862" on="0"/>
        <pt x="419" y="892" on="0"/>
        <pt x="441" y="892" on="1"/>
        <pt x="462" y="892" on="0"/>
        <pt x="493" y="862" on="0"/>
        <pt x="493" y="840" on="1"/>
        <pt x="493" y="818" on="0"/>
        <pt x="462" y="788" on="0"/>
        <pt x="441" y="788" on="1"/>
        <pt x="419" y="788" on="0"/>
        <pt x="388" y="818" on="0"/>
      </contour>
    </TTGlyph>
    <TTGlyph name="Agrave" xMin="35" yMin="0" xMax="652" yMax="890">
      <contour>
        <pt x="390" y="727" on="1"/>
        <pt x="652" y="0" on="1"/>
        <pt x="550" y="0" on="1"/>
        <pt x="340" y="605" on="1"/>
        <pt x="221" y="265" on="1"/>
        <pt x="210" y="244" on="1"/>
        <pt x="222" y="246" on="1"/>
        <pt x="357" y="246" on="1"/>
        <pt x="393" y="246" on="0"/>
        <pt x="431" y="203" on="0"/>
        <pt x="442" y="174" on="1"/>
        <pt x="190" y="174" on="1"/>
        <pt x="130" y="0" on="1"/>
        <pt x="35" y="0" on="1"/>
        <pt x="297" y="727" on="1"/>
      </contour>
      <contour>
        <pt x="229" y="890" on="1"/>
        <pt x="323" y="890" on="1"/>
        <pt x="397" y="766" on="1"/>
        <pt x="371" y="760" on="0"/>
        <pt x="319" y="770" on="0"/>
        <pt x="302" y="792" on="1"/>
      </contour>
    </TTGlyph>
    <TTGlyph name="Aring" xMin="35" yMin="0" xMax="652" yMax="891">
      <contour>
        <pt x="35" y="0" on="1"/>
        <pt x="295" y="723" on="1"/>
        <pt x="270" y="734" on="0"/>
        <pt x="242" y="775" on="0"/>
        <pt x="242" y="801" on="1"/>
        <pt x="242" y="840" on="0"/>
        <pt x="297" y="891" on="0"/>
        <pt x="341" y="891" on="1"/>
        <pt x="386" y="891" on="0"/>
        <pt x="438" y="841" on="0"/>
        <pt x="438" y="802" on="1"/>
        <pt x="438" y="776" on="0"/>
        <pt x="412" y="737" on="0"/>
        <pt x="390" y="726" on="1"/>
        <pt x="652" y="0" on="1"/>
        <pt x="550" y="0" on="1"/>
        <pt x="340" y="605" on="1"/>
        <pt x="221" y="265" on="1"/>
        <pt x="210" y="244" on="1"/>
        <pt x="222" y="246" on="1"/>
        <pt x="357" y="246" on="1"/>
        <pt x="393" y="246" on="0"/>
        <pt x="431" y="203" on="0"/>
        <pt x="442" y="174" on="1"/>
        <pt x="190" y="174" on="1"/>
        <pt x="130" y="0" on="1"/>
      </contour>
      <contour>
        <pt x="340" y="752" on="1"/>
        <pt x="363" y="752" on="0"/>
        <pt x="390" y="781" on="0"/>
        <pt x="390" y="803" on="1"/>
        <pt x="390" y="825" on="0"/>
        <pt x="363" y="854" on="0"/>
        <pt x="340" y="854" on="1"/>
        <pt x="319" y="854" on="0"/>
        <pt x="292" y="824" on="0"/>
        <pt x="292" y="801" on="1"/>
        <pt x="292" y="782" on="0"/>
        <pt x="318" y="752" on="0"/>
      </contour>
    </TTGlyph>
    <TTGlyph name="Atilde" xMin="35" yMin="0" xMax="652" yMax="893">
      <contour>
        <pt x="390" y="727" on="1"/>
        <pt x="652" y="0" on="1"/>
        <pt x="550" y="0" on="1"/>
        <pt x="340" y="605" on="1"/>
        <pt x="221" y="265" on="1"/>
        <pt x="210" y="244" on="1"/>
        <pt x="222" y="246" on="1"/>
        <pt x="357" y="246" on="1"/>
        <pt x="393" y="246" on="0"/>
        <pt x="431" y="203" on="0"/>
        <pt x="442" y="174" on="1"/>
        <pt x="190" y="174" on="1"/>
        <pt x="130" y="0" on="1"/>
        <pt x="35" y="0" on="1"/>
        <pt x="297" y="727" on="1"/>
      </contour>
      <contour>
        <pt x="202" y="783" on="1"/>
        <pt x="204" y="840" on="0"/>
        <pt x="255" y="890" on="0"/>
        <pt x="291" y="891" on="1"/>
        <pt x="328" y="891" on="0"/>
        <pt x="355" y="867" on="1"/>
        <pt x="369" y="855" on="0"/>
        <pt x="389" y="835" on="0"/>
        <pt x="409" y="835" on="1"/>
        <pt x="435" y="835" on="0"/>
        <pt x="440" y="893" on="1"/>
        <pt x="493" y="887" on="1"/>
        <pt x="491" y="855" on="0"/>
        <pt x="476" y="814" on="0"/>
        <pt x="452" y="789" on="0"/>
        <pt x="423" y="779" on="0"/>
        <pt x="409" y="779" on="1"/>
        <pt x="368" y="779" on="0"/>
        <pt x="344" y="802" on="1"/>
        <pt x="330" y="814" on="0"/>
        <pt x="309" y="835" on="0"/>
        <pt x="292" y="835" on="1"/>
        <pt x="279" y="835" on="0"/>
        <pt x="259" y="809" on="0"/>
        <pt x="257" y="777" on="1"/>
      </contour>
    </TTGlyph>
    <TTGlyph name="B" xMin="87" yMin="-12" xMax="593" yMax="740">
      <contour>
        <pt x="297" y="415" on="1"/>
        <pt x="334" y="415" on="0"/>
        <pt x="392" y="435" on="0"/>
        <pt x="431" y="471" on="0"/>
        <pt x="451" y="519" on="0"/>
        <pt x="451" y="547" on="1"/>
        <pt x="451" y="598" on="0"/>
        <pt x="373" y="666" on="0"/>
        <pt x="297" y="666" on="1"/>
        <pt x="270" y="666" on="0"/>
        <pt x="209" y="663" on="0"/>
        <pt x="182" y="660" on="1"/>
        <pt x="182" y="415" on="1"/>
      </contour>
      <contour>
        <pt x="317" y="64" on="1"/>
        <pt x="329" y="62" on="0"/>
        <pt x="348" y="61" on="0"/>
        <pt x="362" y="61" on="1"/>
        <pt x="388" y="61" on="0"/>
        <pt x="435" y="83" on="0"/>
        <pt x="471" y="121" on="0"/>
        <pt x="492" y="172" on="0"/>
        <pt x="492" y="201" on="1"/>
        <pt x="492" y="238" on="0"/>
        <pt x="461" y="293" on="0"/>
        <pt x="409" y="329" on="0"/>
        <pt x="337" y="346" on="0"/>
        <pt x="297" y="346" on="1"/>
        <pt x="182" y="346" on="1"/>
        <pt x="182" y="0" on="1"/>
        <pt x="87" y="0" on="1"/>
        <pt x="87" y="718" on="1"/>
        <pt x="144" y="729" on="0"/>
        <pt x="243" y="740" on="0"/>
        <pt x="297" y="740" on="1"/>
        <pt x="361" y="740" on="0"/>
        <pt x="456" y="710" on="0"/>
        <pt x="519" y="658" on="0"/>
        <pt x="550" y="587" on="0"/>
        <pt x="550" y="547" on="1"/>
        <pt x="550" y="529" on="0"/>
        <pt x="540" y="488" on="0"/>
        <pt x="521" y="448" on="0"/>
        <pt x="493" y="414" on="0"/>
        <pt x="475" y="402" on="1"/>
        <pt x="446" y="388" on="1"/>
        <pt x="474" y="381" on="1"/>
        <pt x="531" y="354" on="0"/>
        <pt x="593" y="265" on="0"/>
        <pt x="593" y="205" on="1"/>
        <pt x="593" y="166" on="0"/>
        <pt x="562" y="89" on="0"/>
        <pt x="502" y="27" on="0"/>
        <pt x="416" y="-12" on="0"/>
        <pt x="362" y="-12" on="1"/>
        <pt x="333" y="-12" on="0"/>
        <pt x="267" y="-5" on="0"/>
        <pt x="222" y="6" on="1"/>
        <pt x="237" y="32" on="0"/>
        <pt x="283" y="70" on="0"/>
      </contour>
    </TTGlyph>
    <TTGlyph name="C" xMin="72" yMin="-12" xMax="611" yMax="740">
      <contour>
        <pt x="434" y="-12" on="1"/>
        <pt x="357" y="-12" on="0"/>
        <pt x="225" y="40" on="0"/>
        <pt x="127" y="137" on="0"/>
        <pt x="72" y="275" on="0"/>
        <pt x="72" y="362" on="1"/>
        <pt x="72" y="446" on="0"/>
        <pt x="127" y="585" on="0"/>
        <pt x="225" y="685" on="0"/>
        <pt x="357" y="740" on="0"/>
        <pt x="434" y="740" on="1"/>
        <pt x="476" y="740" on="0"/>
        <pt x="565" y="723" on="0"/>
        <pt x="611" y="706" on="1"/>
        <pt x="585" y="641" on="1"/>
        <pt x="541" y="655" on="0"/>
        <pt x="469" y="667" on="0"/>
        <pt x="434" y="667" on="1"/>
        <pt x="382" y="667" on="0"/>
        <pt x="288" y="629" on="0"/>
        <pt x="216" y="553" on="0"/>
        <pt x="174" y="438" on="0"/>
        <pt x="174" y="362" on="1"/>
        <pt x="174" y="294" on="0"/>
        <pt x="216" y="183" on="0"/>
        <pt x="288" y="103" on="0"/>
        <pt x="382" y="60" on="0"/>
        <pt x="434" y="60" on="1"/>
        <pt x="469" y="60" on="0"/>
        <pt x="543" y="78" on="0"/>
        <pt x="585" y="99" on="1"/>
        <pt x="611" y="34" on="1"/>
        <pt x="564" y="9" on="0"/>
        <pt x="476" y="-12" on="0"/>
      </contour>
    </TTGlyph>
    <TTGlyph name="Ccedilla" xMin="72" yMin="-206" xMax="611" yMax="740">
      <contour>
        <pt x="434" y="-12" on="1"/>
        <pt x="424" y="-12" on="0"/>
        <pt x="405" y="-11" on="0"/>
        <pt x="396" y="-10" on="1"/>
        <pt x="386" y="-50" on="1"/>
        <pt x="400" y="-52" on="0"/>
        <pt x="429" y="-63" on="0"/>
        <pt x="452" y="-82" on="0"/>
        <pt x="466" y="-108" on="0"/>
        <pt x="466" y="-123" on="1"/>
        <pt x="466" y="-146" on="0"/>
        <pt x="446" y="-177" on="0"/>
        <pt x="413" y="-197" on="0"/>
        <pt x="372" y="-206" on="0"/>
        <pt x="352" y="-206" on="1"/>
        <pt x="335" y="-206" on="0"/>
        <pt x="297" y="-198" on="0"/>
        <pt x="273" y="-187" on="1"/>
        <pt x="287" y="-144" on="1"/>
        <pt x="306" y="-152" on="0"/>
        <pt x="337" y="-157" on="0"/>
        <pt x="352" y="-157" on="1"/>
        <pt x="369" y="-157" on="0"/>
        <pt x="405" y="-144" on="0"/>
        <pt x="405" y="-126" on="1"/>
        <pt x="405" y="-107" on="0"/>
        <pt x="365" y="-88" on="0"/>
        <pt x="330" y="-84" on="1"/>
        <pt x="351" y="-4" on="1"/>
        <pt x="290" y="8" on="0"/>
        <pt x="187" y="70" on="0"/>
        <pt x="113" y="165" on="0"/>
        <pt x="72" y="288" on="0"/>
        <pt x="72" y="362" on="1"/>
        <pt x="72" y="446" on="0"/>
        <pt x="127" y="585" on="0"/>
        <pt x="225" y="685" on="0"/>
        <pt x="357" y="740" on="0"/>
        <pt x="434" y="740" on="1"/>
        <pt x="476" y="740" on="0"/>
        <pt x="565" y="723" on="0"/>
        <pt x="611" y="706" on="1"/>
        <pt x="585" y="641" on="1"/>
        <pt x="541" y="655" on="0"/>
        <pt x="469" y="667" on="0"/>
        <pt x="434" y="667" on="1"/>
        <pt x="382" y="667" on="0"/>
        <pt x="288" y="629" on="0"/>
        <pt x="216" y="553" on="0"/>
        <pt x="174" y="438" on="0"/>
        <pt x="174" y="362" on="1"/>
        <pt x="174" y="288" on="0"/>
        <pt x="216" y="176" on="0"/>
        <pt x="288" y="99" on="0"/>
        <pt x="382" y="60" on="0"/>
        <pt x="434" y="60" on="1"/>
        <pt x="469" y="60" on="0"/>
        <pt x="543" y="78" on="0"/>
        <pt x="585" y="99" on="1"/>
        <pt x="611" y="34" on="1"/>
        <pt x="564" y="9" on="0"/>
        <pt x="476" y="-12" on="0"/>
      </contour>
    </TTGlyph>
    <TTGlyph name="D" xMin="89" yMin="-12" xMax="693" yMax="740">
      <contour>
        <pt x="364" y="-12" on="1"/>
        <pt x="330" y="-12" on="0"/>
        <pt x="268" y="-6" on="0"/>
        <pt x="224" y="5" on="1"/>
        <pt x="238" y="31" on="0"/>
        <pt x="284" y="65" on="0"/>
        <pt x="318" y="62" on="1"/>
        <pt x="334" y="60" on="0"/>
        <pt x="351" y="60" on="0"/>
        <pt x="363" y="60" on="1"/>
        <pt x="411" y="60" on="0"/>
        <pt x="494" y="108" on="0"/>
        <pt x="556" y="191" on="0"/>
        <pt x="591" y="302" on="0"/>
        <pt x="591" y="365" on="1"/>
        <pt x="591" y="510" on="0"/>
        <pt x="444" y="667" on="0"/>
        <pt x="296" y="667" on="1"/>
        <pt x="266" y="667" on="0"/>
        <pt x="208" y="663" on="0"/>
        <pt x="184" y="660" on="1"/>
        <pt x="184" y="0" on="1"/>
        <pt x="89" y="0" on="1"/>
        <pt x="89" y="716" on="1"/>
        <pt x="137" y="727" on="0"/>
        <pt x="252" y="740" on="0"/>
        <pt x="296" y="740" on="1"/>
        <pt x="391" y="740" on="0"/>
        <pt x="539" y="689" on="0"/>
        <pt x="640" y="592" on="0"/>
        <pt x="693" y="453" on="0"/>
        <pt x="693" y="365" on="1"/>
        <pt x="693" y="283" on="0"/>
        <pt x="640" y="145" on="0"/>
        <pt x="550" y="44" on="0"/>
        <pt x="431" y="-12" on="0"/>
      </contour>
    </TTGlyph>
    <TTGlyph name="E" xMin="89" yMin="0" xMax="518" yMax="727">
      <contour>
        <pt x="89" y="727" on="1"/>
        <pt x="503" y="727" on="1"/>
        <pt x="503" y="655" on="1"/>
        <pt x="184" y="655" on="1"/>
        <pt x="184" y="72" on="1"/>
        <pt x="518" y="72" on="1"/>
        <pt x="518" y="0" on="1"/>
        <pt x="89" y="0" on="1"/>
      </contour>
      <contour>
        <pt x="469" y="416" on="1"/>
        <pt x="469" y="346" on="1"/>
        <pt x="222" y="346" on="1"/>
        <pt x="233" y="375" on="0"/>
        <pt x="272" y="416" on="0"/>
        <pt x="308" y="416" on="1"/>
      </contour>
    </TTGlyph>
    <TTGlyph name="Eacute" xMin="89" yMin="0" xMax="518" yMax="890">
      <contour>
        <pt x="89" y="727" on="1"/>
        <pt x="503" y="727" on="1"/>
        <pt x="503" y="655" on="1"/>
        <pt x="184" y="655" on="1"/>
        <pt x="184" y="72" on="1"/>
        <pt x="518" y="72" on="1"/>
        <pt x="518" y="0" on="1"/>
        <pt x="89" y="0" on="1"/>
      </contour>
      <contour>
        <pt x="469" y="416" on="1"/>
        <pt x="469" y="346" on="1"/>
        <pt x="222" y="346" on="1"/>
        <pt x="233" y="375" on="0"/>
        <pt x="272" y="416" on="0"/>
        <pt x="308" y="416" on="1"/>
      </contour>
      <contour>
        <pt x="347" y="792" on="1"/>
        <pt x="327" y="770" on="0"/>
        <pt x="275" y="760" on="0"/>
        <pt x="249" y="766" on="1"/>
        <pt x="338" y="890" on="1"/>
        <pt x="435" y="890" on="1"/>
      </contour>
    </TTGlyph>
    <TTGlyph name="Ecircumflex" xMin="89" yMin="0" xMax="518" yMax="890">
      <contour>
        <pt x="89" y="727" on="1"/>
        <pt x="503" y="727" on="1"/>
        <pt x="503" y="655" on="1"/>
        <pt x="184" y="655" on="1"/>
        <pt x="184" y="72" on="1"/>
        <pt x="518" y="72" on="1"/>
        <pt x="518" y="0" on="1"/>
        <pt x="89" y="0" on="1"/>
      </contour>
      <contour>
        <pt x="469" y="416" on="1"/>
        <pt x="469" y="346" on="1"/>
        <pt x="222" y="346" on="1"/>
        <pt x="233" y="375" on="0"/>
        <pt x="272" y="416" on="0"/>
        <pt x="308" y="416" on="1"/>
      </contour>
      <contour>
        <pt x="331" y="890" on="1"/>
        <pt x="442" y="770" on="1"/>
        <pt x="390" y="762" on="1"/>
        <pt x="302" y="821" on="1"/>
        <pt x="214" y="761" on="1"/>
        <pt x="165" y="770" on="1"/>
        <pt x="274" y="890" on="1"/>
      </contour>
    </TTGlyph>
    <TTGlyph name="Edieresis" xMin="89" yMin="0" xMax="518" yMax="892">
      <contour>
        <pt x="89" y="727" on="1"/>
        <pt x="503" y="727" on="1"/>
        <pt x="503" y="655" on="1"/>
        <pt x="184" y="655" on="1"/>
        <pt x="184" y="72" on="1"/>
        <pt x="518" y="72" on="1"/>
        <pt x="518" y="0" on="1"/>
        <pt x="89" y="0" on="1"/>
      </contour>
      <contour>
        <pt x="469" y="416" on="1"/>
        <pt x="469" y="346" on="1"/>
        <pt x="222" y="346" on="1"/>
        <pt x="233" y="375" on="0"/>
        <pt x="272" y="416" on="0"/>
        <pt x="308" y="416" on="1"/>
      </contour>
      <contour>
        <pt x="151" y="840" on="1"/>
        <pt x="151" y="862" on="0"/>
        <pt x="182" y="892" on="0"/>
        <pt x="203" y="892" on="1"/>
        <pt x="225" y="892" on="0"/>
        <pt x="256" y="862" on="0"/>
        <pt x="256" y="840" on="1"/>
        <pt x="256" y="818" on="0"/>
        <pt x="225" y="788" on="0"/>
        <pt x="203" y="788" on="1"/>
        <pt x="182" y="788" on="0"/>
        <pt x="151" y="818" on="0"/>
      </contour>
      <contour>
        <pt x="345" y="840" on="1"/>
        <pt x="345" y="862" on="0"/>
        <pt x="376" y="892" on="0"/>
        <pt x="398" y="892" on="1"/>
        <pt x="419" y="892" on="0"/>
        <pt x="450" y="862" on="0"/>
        <pt x="450" y="840" on="1"/>
        <pt x="450" y="818" on="0"/>
        <pt x="419" y="788" on="0"/>
        <pt x="398" y="788" on="1"/>
        <pt x="376" y="788" on="0"/>
        <pt x="345" y="818" on="0"/>
      </contour>
    </TTGlyph>
    <TTGlyph name="Egrave" xMin="89" yMin="0" xMax="518" yMax="890">
      <contour>
        <pt x="89" y="727" on="1"/>
        <pt x="503" y="727" on="1"/>
        <pt x="503" y="655" on="1"/>
        <pt x="184" y="655" on="1"/>
        <pt x="184" y="72" on="1"/>
        <pt x="518" y="72" on="1"/>
        <pt x="518" y="0" on="1"/>
        <pt x="89" y="0" on="1"/>
      </contour>
      <contour>
        <pt x="469" y="416" on="1"/>
        <pt x="469" y="346" on="1"/>
        <pt x="222" y="346" on="1"/>
        <pt x="233" y="375" on="0"/>
        <pt x="272" y="416" on="0"/>
        <pt x="308" y="416" on="1"/>
      </contour>
      <contour>
        <pt x="188" y="890" on="1"/>
        <pt x="282" y="890" on="1"/>
        <pt x="356" y="766" on="1"/>
        <pt x="330" y="760" on="0"/>
        <pt x="278" y="770" on="0"/>
        <pt x="261" y="792" on="1"/>
      </contour>
    </TTGlyph>
    <TTGlyph name="Eth" xMin="7" yMin="-12" xMax="693" yMax="740">
      <contour>
        <pt x="7" y="388" on="1"/>
        <pt x="89" y="388" on="1"/>
        <pt x="89" y="716" on="1"/>
        <pt x="137" y="727" on="0"/>
        <pt x="252" y="740" on="0"/>
        <pt x="296" y="740" on="1"/>
        <pt x="391" y="740" on="0"/>
        <pt x="539" y="686" on="0"/>
        <pt x="640" y="587" on="0"/>
        <pt x="693" y="449" on="0"/>
        <pt x="693" y="365" on="1"/>
        <pt x="693" y="283" on="0"/>
        <pt x="640" y="145" on="0"/>
        <pt x="550" y="44" on="0"/>
        <pt x="431" y="-12" on="0"/>
        <pt x="364" y="-12" on="1"/>
        <pt x="330" y="-12" on="0"/>
        <pt x="268" y="-6" on="0"/>
        <pt x="224" y="5" on="1"/>
        <pt x="238" y="31" on="0"/>
        <pt x="284" y="65" on="0"/>
        <pt x="318" y="62" on="1"/>
        <pt x="334" y="60" on="0"/>
        <pt x="351" y="60" on="0"/>
        <pt x="363" y="60" on="1"/>
        <pt x="411" y="60" on="0"/>
        <pt x="494" y="108" on="0"/>
        <pt x="556" y="191" on="0"/>
        <pt x="591" y="302" on="0"/>
        <pt x="591" y="365" on="1"/>
        <pt x="591" y="510" on="0"/>
        <pt x="444" y="667" on="0"/>
        <pt x="296" y="667" on="1"/>
        <pt x="266" y="667" on="0"/>
        <pt x="208" y="663" on="0"/>
        <pt x="184" y="660" on="1"/>
        <pt x="184" y="388" on="1"/>
        <pt x="411" y="388" on="1"/>
        <pt x="411" y="323" on="1"/>
        <pt x="184" y="323" on="1"/>
        <pt x="184" y="0" on="1"/>
        <pt x="89" y="0" on="1"/>
        <pt x="89" y="323" on="1"/>
        <pt x="7" y="323" on="1"/>
      </contour>
    </TTGlyph>
    <TTGlyph name="Euro" xMin="-8" yMin="-10" xMax="515" yMax="714">
      <contour>
        <pt x="-8" y="314" on="1"/>
        <pt x="63" y="314" on="1"/>
        <pt x="62" y="322" on="0"/>
        <pt x="62" y="341" on="0"/>
        <pt x="62" y="350" on="1"/>
        <pt x="62" y="364" on="0"/>
        <pt x="62" y="388" on="0"/>
        <pt x="64" y="401" on="1"/>
        <pt x="-8" y="401" on="1"/>
        <pt x="-8" y="466" on="1"/>
        <pt x="74" y="466" on="1"/>
        <pt x="87" y="523" on="0"/>
        <pt x="139" y="615" on="0"/>
        <pt x="211" y="679" on="0"/>
        <pt x="301" y="714" on="0"/>
        <pt x="354" y="714" on="1"/>
        <pt x="396" y="714" on="0"/>
        <pt x="467" y="701" on="0"/>
        <pt x="515" y="683" on="1"/>
        <pt x="489" y="617" on="1"/>
        <pt x="447" y="633" on="0"/>
        <pt x="384" y="642" on="0"/>
        <pt x="354" y="642" on="1"/>
        <pt x="312" y="642" on="0"/>
        <pt x="238" y="601" on="0"/>
        <pt x="184" y="525" on="0"/>
        <pt x="152" y="417" on="0"/>
        <pt x="152" y="350" on="1"/>
        <pt x="152" y="341" on="0"/>
        <pt x="152" y="322" on="0"/>
        <pt x="153" y="314" on="1"/>
        <pt x="432" y="314" on="1"/>
        <pt x="432" y="249" on="1"/>
        <pt x="163" y="249" on="1"/>
        <pt x="183" y="160" on="0"/>
        <pt x="287" y="62" on="0"/>
        <pt x="354" y="62" on="1"/>
        <pt x="372" y="62" on="0"/>
        <pt x="403" y="64" on="0"/>
        <pt x="435" y="70" on="0"/>
        <pt x="469" y="80" on="0"/>
        <pt x="489" y="88" on="1"/>
        <pt x="515" y="21" on="1"/>
        <pt x="471" y="4" on="0"/>
        <pt x="396" y="-10" on="0"/>
        <pt x="354" y="-10" on="1"/>
        <pt x="300" y="-10" on="0"/>
        <pt x="207" y="26" on="0"/>
        <pt x="135" y="94" on="0"/>
        <pt x="84" y="189" on="0"/>
        <pt x="72" y="249" on="1"/>
        <pt x="-8" y="249" on="1"/>
      </contour>
      <contour>
        <pt x="432" y="466" on="1"/>
        <pt x="432" y="401" on="1"/>
        <pt x="192" y="401" on="1"/>
        <pt x="202" y="430" on="0"/>
        <pt x="241" y="466" on="0"/>
        <pt x="276" y="466" on="1"/>
      </contour>
    </TTGlyph>
    <TTGlyph name="F" xMin="89" yMin="0" xMax="503" yMax="727">
      <contour>
        <pt x="89" y="727" on="1"/>
        <pt x="503" y="727" on="1"/>
        <pt x="503" y="655" on="1"/>
        <pt x="184" y="655" on="1"/>
        <pt x="184" y="0" on="1"/>
        <pt x="89" y="0" on="1"/>
      </contour>
      <contour>
        <pt x="469" y="416" on="1"/>
        <pt x="469" y="346" on="1"/>
        <pt x="222" y="346" on="1"/>
        <pt x="233" y="375" on="0"/>
        <pt x="272" y="416" on="0"/>
        <pt x="308" y="416" on="1"/>
      </contour>
    </TTGlyph>
    <TTGlyph name="G" xMin="35" yMin="-12" xMax="614" yMax="740">
      <contour>
        <pt x="410" y="667" on="1"/>
        <pt x="358" y="667" on="0"/>
        <pt x="260" y="630" on="0"/>
        <pt x="183" y="554" on="0"/>
        <pt x="137" y="440" on="0"/>
        <pt x="137" y="363" on="1"/>
        <pt x="137" y="286" on="0"/>
        <pt x="183" y="173" on="0"/>
        <pt x="260" y="97" on="0"/>
        <pt x="358" y="60" on="0"/>
        <pt x="410" y="60" on="1"/>
        <pt x="432" y="60" on="0"/>
        <pt x="489" y="66" on="0"/>
        <pt x="522" y="77" on="1"/>
        <pt x="522" y="337" on="1"/>
        <pt x="614" y="337" on="1"/>
        <pt x="614" y="37" on="1"/>
        <pt x="560" y="8" on="0"/>
        <pt x="453" y="-12" on="0"/>
        <pt x="410" y="-12" on="1"/>
        <pt x="333" y="-12" on="0"/>
        <pt x="197" y="39" on="0"/>
        <pt x="95" y="136" on="0"/>
        <pt x="35" y="275" on="0"/>
        <pt x="35" y="363" on="1"/>
        <pt x="35" y="447" on="0"/>
        <pt x="95" y="586" on="0"/>
        <pt x="197" y="685" on="0"/>
        <pt x="333" y="740" on="0"/>
        <pt x="410" y="740" on="1"/>
        <pt x="453" y="740" on="0"/>
        <pt x="555" y="721" on="0"/>
        <pt x="608" y="696" on="1"/>
        <pt x="582" y="631" on="1"/>
        <pt x="528" y="654" on="0"/>
        <pt x="445" y="667" on="0"/>
      </contour>
    </TTGlyph>
    <TTGlyph name="H" xMin="89" yMin="0" xMax="643" yMax="727">
      <contour>
        <pt x="548" y="416" on="1"/>
        <pt x="548" y="727" on="1"/>
        <pt x="643" y="727" on="1"/>
        <pt x="643" y="0" on="1"/>
        <pt x="548" y="0" on="1"/>
        <pt x="548" y="346" on="1"/>
        <pt x="222" y="346" on="1"/>
        <pt x="233" y="375" on="0"/>
        <pt x="272" y="416" on="0"/>
        <pt x="307" y="416" on="1"/>
      </contour>
      <contour>
        <pt x="89" y="727" on="1"/>
        <pt x="184" y="727" on="1"/>
        <pt x="184" y="0" on="1"/>
        <pt x="89" y="0" on="1"/>
      </contour>
    </TTGlyph>
    <TTGlyph name="I" xMin="89" yMin="0" xMax="181" yMax="727">
      <contour>
        <pt x="181" y="0" on="1"/>
        <pt x="89" y="0" on="1"/>
        <pt x="89" y="727" on="1"/>
        <pt x="181" y="727" on="1"/>
      </contour>
    </TTGlyph>
    <TTGlyph name="Iacute" xMin="84" yMin="0" xMax="270" yMax="890">
      <contour>
        <pt x="181" y="0" on="1"/>
        <pt x="89" y="0" on="1"/>
        <pt x="89" y="727" on="1"/>
        <pt x="181" y="727" on="1"/>
      </contour>
      <contour>
        <pt x="182" y="792" on="1"/>
        <pt x="162" y="770" on="0"/>
        <pt x="110" y="760" on="0"/>
        <pt x="84" y="766" on="1"/>
        <pt x="173" y="890" on="1"/>
        <pt x="270" y="890" on="1"/>
      </contour>
    </TTGlyph>
    <TTGlyph name="Icircumflex" xMin="22" yMin="0" xMax="299" yMax="890">
      <contour>
        <pt x="205" y="0" on="1"/>
        <pt x="113" y="0" on="1"/>
        <pt x="113" y="727" on="1"/>
        <pt x="205" y="727" on="1"/>
      </contour>
      <contour>
        <pt x="188" y="890" on="1"/>
        <pt x="299" y="770" on="1"/>
        <pt x="247" y="762" on="1"/>
        <pt x="159" y="821" on="1"/>
        <pt x="71" y="761" on="1"/>
        <pt x="22" y="770" on="1"/>
        <pt x="131" y="890" on="1"/>
      </contour>
    </TTGlyph>
    <TTGlyph name="Idieresis" xMin="23" yMin="0" xMax="322" yMax="892">
      <contour>
        <pt x="218" y="0" on="1"/>
        <pt x="126" y="0" on="1"/>
        <pt x="126" y="727" on="1"/>
        <pt x="218" y="727" on="1"/>
      </contour>
      <contour>
        <pt x="23" y="840" on="1"/>
        <pt x="23" y="862" on="0"/>
        <pt x="54" y="892" on="0"/>
        <pt x="75" y="892" on="1"/>
        <pt x="97" y="892" on="0"/>
        <pt x="128" y="862" on="0"/>
        <pt x="128" y="840" on="1"/>
        <pt x="128" y="818" on="0"/>
        <pt x="97" y="788" on="0"/>
        <pt x="75" y="788" on="1"/>
        <pt x="54" y="788" on="0"/>
        <pt x="23" y="818" on="0"/>
      </contour>
      <contour>
        <pt x="217" y="840" on="1"/>
        <pt x="217" y="862" on="0"/>
        <pt x="248" y="892" on="0"/>
        <pt x="270" y="892" on="1"/>
        <pt x="291" y="892" on="0"/>
        <pt x="322" y="862" on="0"/>
        <pt x="322" y="840" on="1"/>
        <pt x="322" y="818" on="0"/>
        <pt x="291" y="788" on="0"/>
        <pt x="270" y="788" on="1"/>
        <pt x="248" y="788" on="0"/>
        <pt x="217" y="818" on="0"/>
      </contour>
    </TTGlyph>
    <TTGlyph name="Igrave" xMin="27" yMin="0" xMax="195" yMax="890">
      <contour>
        <pt x="190" y="0" on="1"/>
        <pt x="98" y="0" on="1"/>
        <pt x="98" y="727" on="1"/>
        <pt x="190" y="727" on="1"/>
      </contour>
      <contour>
        <pt x="27" y="890" on="1"/>
        <pt x="121" y="890" on="1"/>
        <pt x="195" y="766" on="1"/>
        <pt x="169" y="760" on="0"/>
        <pt x="117" y="770" on="0"/>
        <pt x="100" y="792" on="1"/>
      </contour>
    </TTGlyph>
    <TTGlyph name="J" xMin="-5" yMin="-208" xMax="261" yMax="727">
      <contour>
        <pt x="261" y="128" on="1"/>
        <pt x="261" y="62" on="0"/>
        <pt x="229" y="-33" on="0"/>
        <pt x="171" y="-108" on="0"/>
        <pt x="87" y="-173" on="0"/>
        <pt x="35" y="-208" on="1"/>
        <pt x="-5" y="-157" on="1"/>
        <pt x="32" y="-126" on="0"/>
        <pt x="95" y="-73" on="0"/>
        <pt x="140" y="-11" on="0"/>
        <pt x="165" y="69" on="0"/>
        <pt x="165" y="128" on="1"/>
        <pt x="165" y="727" on="1"/>
        <pt x="261" y="727" on="1"/>
      </contour>
    </TTGlyph>
    <TTGlyph name="K" xMin="89" yMin="0" xMax="641" yMax="727">
      <contour>
        <pt x="382" y="433" on="1"/>
        <pt x="641" y="0" on="1"/>
        <pt x="526" y="0" on="1"/>
        <pt x="332" y="347" on="1"/>
        <pt x="325" y="365" on="1"/>
        <pt x="316" y="347" on="1"/>
        <pt x="237" y="243" on="1"/>
        <pt x="230" y="258" on="0"/>
        <pt x="227" y="299" on="0"/>
        <pt x="234" y="345" on="0"/>
        <pt x="252" y="391" on="0"/>
        <pt x="267" y="412" on="1"/>
        <pt x="500" y="727" on="1"/>
        <pt x="608" y="727" on="1"/>
      </contour>
      <contour>
        <pt x="89" y="0" on="1"/>
        <pt x="89" y="727" on="1"/>
        <pt x="184" y="727" on="1"/>
        <pt x="184" y="0" on="1"/>
      </contour>
    </TTGlyph>
    <TTGlyph name="L" xMin="89" yMin="0" xMax="489" yMax="727">
      <contour>
        <pt x="89" y="727" on="1"/>
        <pt x="185" y="727" on="1"/>
        <pt x="185" y="73" on="1"/>
        <pt x="489" y="73" on="1"/>
        <pt x="488" y="0" on="1"/>
        <pt x="89" y="0" on="1"/>
      </contour>
    </TTGlyph>
    <TTGlyph name="M" xMin="69" yMin="0" xMax="880" yMax="727">
      <contour>
        <pt x="150" y="727" on="1"/>
        <pt x="273" y="727" on="1"/>
        <pt x="468" y="143" on="1"/>
        <pt x="475" y="112" on="1"/>
        <pt x="482" y="143" on="1"/>
        <pt x="677" y="727" on="1"/>
        <pt x="800" y="727" on="1"/>
        <pt x="880" y="0" on="1"/>
        <pt x="789" y="0" on="1"/>
        <pt x="732" y="582" on="1"/>
        <pt x="729" y="625" on="1"/>
        <pt x="717" y="582" on="1"/>
        <pt x="519" y="10" on="1"/>
        <pt x="430" y="10" on="1"/>
        <pt x="231" y="583" on="1"/>
        <pt x="218" y="625" on="1"/>
        <pt x="215" y="583" on="1"/>
        <pt x="159" y="0" on="1"/>
        <pt x="69" y="0" on="1"/>
      </contour>
    </TTGlyph>
    <TTGlyph name="N" xMin="104" yMin="0" xMax="646" yMax="727">
      <contour>
        <pt x="197" y="581" on="1"/>
        <pt x="183" y="615" on="1"/>
        <pt x="185" y="581" on="1"/>
        <pt x="185" y="0" on="1"/>
        <pt x="104" y="0" on="1"/>
        <pt x="104" y="727" on="1"/>
        <pt x="199" y="727" on="1"/>
        <pt x="552" y="163" on="1"/>
        <pt x="564" y="130" on="1"/>
        <pt x="562" y="165" on="1"/>
        <pt x="562" y="727" on="1"/>
        <pt x="646" y="727" on="1"/>
        <pt x="646" y="0" on="1"/>
        <pt x="561" y="0" on="1"/>
      </contour>
    </TTGlyph>
    <TTGlyph name="Ntilde" xMin="104" yMin="0" xMax="646" yMax="893">
      <contour>
        <pt x="197" y="581" on="1"/>
        <pt x="183" y="615" on="1"/>
        <pt x="185" y="581" on="1"/>
        <pt x="185" y="0" on="1"/>
        <pt x="104" y="0" on="1"/>
        <pt x="104" y="727" on="1"/>
        <pt x="199" y="727" on="1"/>
        <pt x="552" y="163" on="1"/>
        <pt x="564" y="130" on="1"/>
        <pt x="562" y="165" on="1"/>
        <pt x="562" y="727" on="1"/>
        <pt x="646" y="727" on="1"/>
        <pt x="646" y="0" on="1"/>
        <pt x="561" y="0" on="1"/>
      </contour>
      <contour>
        <pt x="233" y="783" on="1"/>
        <pt x="235" y="840" on="0"/>
        <pt x="286" y="890" on="0"/>
        <pt x="322" y="891" on="1"/>
        <pt x="359" y="891" on="0"/>
        <pt x="386" y="867" on="1"/>
        <pt x="400" y="855" on="0"/>
        <pt x="420" y="835" on="0"/>
        <pt x="440" y="835" on="1"/>
        <pt x="466" y="835" on="0"/>
        <pt x="471" y="893" on="1"/>
        <pt x="524" y="887" on="1"/>
        <pt x="522" y="855" on="0"/>
        <pt x="507" y="814" on="0"/>
        <pt x="483" y="789" on="0"/>
        <pt x="454" y="779" on="0"/>
        <pt x="440" y="779" on="1"/>
        <pt x="399" y="779" on="0"/>
        <pt x="375" y="802" on="1"/>
        <pt x="361" y="814" on="0"/>
        <pt x="340" y="835" on="0"/>
        <pt x="323" y="835" on="1"/>
        <pt x="310" y="835" on="0"/>
        <pt x="290" y="809" on="0"/>
        <pt x="288" y="777" on="1"/>
      </contour>
    </TTGlyph>
    <TTGlyph name="O" xMin="45" yMin="-14" xMax="719" yMax="742">
      <contour>
        <pt x="45" y="364" on="1"/>
        <pt x="45" y="460" on="0"/>
        <pt x="106" y="602" on="0"/>
        <pt x="204" y="696" on="0"/>
        <pt x="323" y="742" on="0"/>
        <pt x="382" y="742" on="1"/>
        <pt x="463" y="742" on="0"/>
        <pt x="589" y="682" on="0"/>
        <pt x="675" y="579" on="0"/>
        <pt x="719" y="441" on="0"/>
        <pt x="719" y="364" on="1"/>
        <pt x="719" y="277" on="0"/>
        <pt x="665" y="138" on="0"/>
        <pt x="572" y="39" on="0"/>
        <pt x="450" y="-14" on="0"/>
        <pt x="382" y="-14" on="1"/>
        <pt x="312" y="-14" on="0"/>
        <pt x="189" y="38" on="0"/>
        <pt x="98" y="135" on="0"/>
        <pt x="45" y="275" on="0"/>
      </contour>
      <contour>
        <pt x="147" y="364" on="1"/>
        <pt x="147" y="296" on="0"/>
        <pt x="182" y="184" on="0"/>
        <pt x="245" y="103" on="0"/>
        <pt x="331" y="58" on="0"/>
        <pt x="382" y="58" on="1"/>
        <pt x="435" y="58" on="0"/>
        <pt x="522" y="106" on="0"/>
        <pt x="583" y="188" on="0"/>
        <pt x="617" y="300" on="0"/>
        <pt x="617" y="364" on="1"/>
        <pt x="617" y="434" on="0"/>
        <pt x="580" y="547" on="0"/>
        <pt x="516" y="627" on="0"/>
        <pt x="430" y="669" on="0"/>
        <pt x="382" y="669" on="1"/>
        <pt x="334" y="669" on="0"/>
        <pt x="248" y="627" on="0"/>
        <pt x="184" y="547" on="0"/>
        <pt x="147" y="434" on="0"/>
      </contour>
    </TTGlyph>
    <TTGlyph name="OE" xMin="45" yMin="-14" xMax="929" yMax="742">
      <contour>
        <pt x="382" y="-14" on="1"/>
        <pt x="312" y="-14" on="0"/>
        <pt x="189" y="38" on="0"/>
        <pt x="98" y="135" on="0"/>
        <pt x="45" y="275" on="0"/>
        <pt x="45" y="364" on="1"/>
        <pt x="45" y="451" on="0"/>
        <pt x="100" y="590" on="0"/>
        <pt x="192" y="689" on="0"/>
        <pt x="314" y="742" on="0"/>
        <pt x="382" y="742" on="1"/>
        <pt x="411" y="742" on="0"/>
        <pt x="492" y="727" on="0"/>
        <pt x="530" y="727" on="1"/>
        <pt x="914" y="727" on="1"/>
        <pt x="914" y="655" on="1"/>
        <pt x="595" y="655" on="1"/>
        <pt x="595" y="72" on="1"/>
        <pt x="929" y="72" on="1"/>
        <pt x="929" y="0" on="1"/>
        <pt x="530" y="0" on="1"/>
        <pt x="489" y="0" on="0"/>
        <pt x="407" y="-14" on="0"/>
      </contour>
      <contour>
        <pt x="382" y="669" on="1"/>
        <pt x="334" y="669" on="0"/>
        <pt x="248" y="627" on="0"/>
        <pt x="184" y="547" on="0"/>
        <pt x="147" y="434" on="0"/>
        <pt x="147" y="364" on="1"/>
        <pt x="147" y="293" on="0"/>
        <pt x="184" y="179" on="0"/>
        <pt x="249" y="100" on="0"/>
        <pt x="334" y="58" on="0"/>
        <pt x="382" y="58" on="1"/>
        <pt x="408" y="58" on="0"/>
        <pt x="468" y="66" on="0"/>
        <pt x="500" y="77" on="1"/>
        <pt x="500" y="650" on="1"/>
        <pt x="472" y="659" on="0"/>
        <pt x="408" y="669" on="0"/>
      </contour>
      <contour>
        <pt x="880" y="416" on="1"/>
        <pt x="880" y="346" on="1"/>
        <pt x="633" y="346" on="1"/>
        <pt x="644" y="375" on="0"/>
        <pt x="683" y="416" on="0"/>
        <pt x="719" y="416" on="1"/>
      </contour>
    </TTGlyph>
    <TTGlyph name="Oacute" xMin="45" yMin="-14" xMax="719" yMax="890">
      <contour>
        <pt x="719" y="364" on="1"/>
        <pt x="719" y="277" on="0"/>
        <pt x="665" y="138" on="0"/>
        <pt x="572" y="39" on="0"/>
        <pt x="450" y="-14" on="0"/>
        <pt x="382" y="-14" on="1"/>
        <pt x="312" y="-14" on="0"/>
        <pt x="189" y="38" on="0"/>
        <pt x="98" y="135" on="0"/>
        <pt x="45" y="275" on="0"/>
        <pt x="45" y="364" on="1"/>
        <pt x="45" y="451" on="0"/>
        <pt x="100" y="590" on="0"/>
        <pt x="192" y="689" on="0"/>
        <pt x="314" y="742" on="0"/>
        <pt x="382" y="742" on="1"/>
        <pt x="453" y="742" on="0"/>
        <pt x="576" y="690" on="0"/>
        <pt x="667" y="592" on="0"/>
        <pt x="719" y="452" on="0"/>
      </contour>
      <contour>
        <pt x="617" y="364" on="1"/>
        <pt x="617" y="434" on="0"/>
        <pt x="580" y="547" on="0"/>
        <pt x="516" y="627" on="0"/>
        <pt x="430" y="669" on="0"/>
        <pt x="382" y="669" on="1"/>
        <pt x="334" y="669" on="0"/>
        <pt x="248" y="627" on="0"/>
        <pt x="184" y="547" on="0"/>
        <pt x="147" y="434" on="0"/>
        <pt x="147" y="364" on="1"/>
        <pt x="147" y="293" on="0"/>
        <pt x="184" y="179" on="0"/>
        <pt x="249" y="100" on="0"/>
        <pt x="334" y="58" on="0"/>
        <pt x="382" y="58" on="1"/>
        <pt x="430" y="58" on="0"/>
        <pt x="516" y="100" on="0"/>
        <pt x="580" y="179" on="0"/>
        <pt x="617" y="293" on="0"/>
      </contour>
      <contour>
        <pt x="443" y="792" on="1"/>
        <pt x="423" y="770" on="0"/>
        <pt x="371" y="760" on="0"/>
        <pt x="345" y="766" on="1"/>
        <pt x="434" y="890" on="1"/>
        <pt x="531" y="890" on="1"/>
      </contour>
    </TTGlyph>
    <TTGlyph name="Ocircumflex" xMin="45" yMin="-14" xMax="719" yMax="890">
      <contour>
        <pt x="719" y="364" on="1"/>
        <pt x="719" y="277" on="0"/>
        <pt x="665" y="138" on="0"/>
        <pt x="572" y="39" on="0"/>
        <pt x="450" y="-14" on="0"/>
        <pt x="382" y="-14" on="1"/>
        <pt x="312" y="-14" on="0"/>
        <pt x="189" y="38" on="0"/>
        <pt x="98" y="135" on="0"/>
        <pt x="45" y="275" on="0"/>
        <pt x="45" y="364" on="1"/>
        <pt x="45" y="451" on="0"/>
        <pt x="100" y="590" on="0"/>
        <pt x="192" y="689" on="0"/>
        <pt x="314" y="742" on="0"/>
        <pt x="382" y="742" on="1"/>
        <pt x="453" y="742" on="0"/>
        <pt x="576" y="690" on="0"/>
        <pt x="667" y="592" on="0"/>
        <pt x="719" y="452" on="0"/>
      </contour>
      <contour>
        <pt x="617" y="364" on="1"/>
        <pt x="617" y="434" on="0"/>
        <pt x="580" y="547" on="0"/>
        <pt x="516" y="627" on="0"/>
        <pt x="430" y="669" on="0"/>
        <pt x="382" y="669" on="1"/>
        <pt x="334" y="669" on="0"/>
        <pt x="248" y="627" on="0"/>
        <pt x="184" y="547" on="0"/>
        <pt x="147" y="434" on="0"/>
        <pt x="147" y="364" on="1"/>
        <pt x="147" y="293" on="0"/>
        <pt x="184" y="179" on="0"/>
        <pt x="249" y="100" on="0"/>
        <pt x="334" y="58" on="0"/>
        <pt x="382" y="58" on="1"/>
        <pt x="430" y="58" on="0"/>
        <pt x="516" y="100" on="0"/>
        <pt x="580" y="179" on="0"/>
        <pt x="617" y="293" on="0"/>
      </contour>
      <contour>
        <pt x="412" y="890" on="1"/>
        <pt x="523" y="770" on="1"/>
        <pt x="471" y="762" on="1"/>
        <pt x="383" y="821" on="1"/>
        <pt x="295" y="761" on="1"/>
        <pt x="246" y="770" on="1"/>
        <pt x="355" y="890" on="1"/>
      </contour>
    </TTGlyph>
    <TTGlyph name="Odieresis" xMin="45" yMin="-14" xMax="719" yMax="892">
      <contour>
        <pt x="719" y="364" on="1"/>
        <pt x="719" y="277" on="0"/>
        <pt x="665" y="138" on="0"/>
        <pt x="572" y="39" on="0"/>
        <pt x="450" y="-14" on="0"/>
        <pt x="382" y="-14" on="1"/>
        <pt x="312" y="-14" on="0"/>
        <pt x="189" y="38" on="0"/>
        <pt x="98" y="135" on="0"/>
        <pt x="45" y="275" on="0"/>
        <pt x="45" y="364" on="1"/>
        <pt x="45" y="451" on="0"/>
        <pt x="100" y="590" on="0"/>
        <pt x="192" y="689" on="0"/>
        <pt x="314" y="742" on="0"/>
        <pt x="382" y="742" on="1"/>
        <pt x="453" y="742" on="0"/>
        <pt x="576" y="690" on="0"/>
        <pt x="667" y="592" on="0"/>
        <pt x="719" y="452" on="0"/>
      </contour>
      <contour>
        <pt x="617" y="364" on="1"/>
        <pt x="617" y="434" on="0"/>
        <pt x="580" y="547" on="0"/>
        <pt x="516" y="627" on="0"/>
        <pt x="430" y="669" on="0"/>
        <pt x="382" y="669" on="1"/>
        <pt x="334" y="669" on="0"/>
        <pt x="248" y="627" on="0"/>
        <pt x="184" y="547" on="0"/>
        <pt x="147" y="434" on="0"/>
        <pt x="147" y="364" on="1"/>
        <pt x="147" y="293" on="0"/>
        <pt x="184" y="179" on="0"/>
        <pt x="249" y="100" on="0"/>
        <pt x="334" y="58" on="0"/>
        <pt x="382" y="58" on="1"/>
        <pt x="430" y="58" on="0"/>
        <pt x="516" y="100" on="0"/>
        <pt x="580" y="179" on="0"/>
        <pt x="617" y="293" on="0"/>
      </contour>
      <contour>
        <pt x="234" y="840" on="1"/>
        <pt x="234" y="862" on="0"/>
        <pt x="265" y="892" on="0"/>
        <pt x="286" y="892" on="1"/>
        <pt x="308" y="892" on="0"/>
        <pt x="339" y="862" on="0"/>
        <pt x="339" y="840" on="1"/>
        <pt x="339" y="818" on="0"/>
        <pt x="308" y="788" on="0"/>
        <pt x="286" y="788" on="1"/>
        <pt x="265" y="788" on="0"/>
        <pt x="234" y="818" on="0"/>
      </contour>
      <contour>
        <pt x="428" y="840" on="1"/>
        <pt x="428" y="862" on="0"/>
        <pt x="459" y="892" on="0"/>
        <pt x="481" y="892" on="1"/>
        <pt x="502" y="892" on="0"/>
        <pt x="533" y="862" on="0"/>
        <pt x="533" y="840" on="1"/>
        <pt x="533" y="818" on="0"/>
        <pt x="502" y="788" on="0"/>
        <pt x="481" y="788" on="1"/>
        <pt x="459" y="788" on="0"/>
        <pt x="428" y="818" on="0"/>
      </contour>
    </TTGlyph>
    <TTGlyph name="Ograve" xMin="45" yMin="-14" xMax="719" yMax="890">
      <contour>
        <pt x="719" y="364" on="1"/>
        <pt x="719" y="277" on="0"/>
        <pt x="665" y="138" on="0"/>
        <pt x="572" y="39" on="0"/>
        <pt x="450" y="-14" on="0"/>
        <pt x="382" y="-14" on="1"/>
        <pt x="312" y="-14" on="0"/>
        <pt x="189" y="38" on="0"/>
        <pt x="98" y="135" on="0"/>
        <pt x="45" y="275" on="0"/>
        <pt x="45" y="364" on="1"/>
        <pt x="45" y="451" on="0"/>
        <pt x="100" y="590" on="0"/>
        <pt x="192" y="689" on="0"/>
        <pt x="314" y="742" on="0"/>
        <pt x="382" y="742" on="1"/>
        <pt x="453" y="742" on="0"/>
        <pt x="576" y="690" on="0"/>
        <pt x="667" y="592" on="0"/>
        <pt x="719" y="452" on="0"/>
      </contour>
      <contour>
        <pt x="617" y="364" on="1"/>
        <pt x="617" y="434" on="0"/>
        <pt x="580" y="547" on="0"/>
        <pt x="516" y="627" on="0"/>
        <pt x="430" y="669" on="0"/>
        <pt x="382" y="669" on="1"/>
        <pt x="334" y="669" on="0"/>
        <pt x="248" y="627" on="0"/>
        <pt x="184" y="547" on="0"/>
        <pt x="147" y="434" on="0"/>
        <pt x="147" y="364" on="1"/>
        <pt x="147" y="293" on="0"/>
        <pt x="184" y="179" on="0"/>
        <pt x="249" y="100" on="0"/>
        <pt x="334" y="58" on="0"/>
        <pt x="382" y="58" on="1"/>
        <pt x="430" y="58" on="0"/>
        <pt x="516" y="100" on="0"/>
        <pt x="580" y="179" on="0"/>
        <pt x="617" y="293" on="0"/>
      </contour>
      <contour>
        <pt x="237" y="890" on="1"/>
        <pt x="331" y="890" on="1"/>
        <pt x="405" y="766" on="1"/>
        <pt x="379" y="760" on="0"/>
        <pt x="327" y="770" on="0"/>
        <pt x="310" y="792" on="1"/>
      </contour>
    </TTGlyph>
    <TTGlyph name="Oslash" xMin="45" yMin="-60" xMax="719" yMax="789">
      <contour>
        <pt x="596" y="665" on="1"/>
        <pt x="653" y="616" on="0"/>
        <pt x="719" y="464" on="0"/>
        <pt x="719" y="364" on="1"/>
        <pt x="719" y="277" on="0"/>
        <pt x="665" y="138" on="0"/>
        <pt x="572" y="39" on="0"/>
        <pt x="450" y="-14" on="0"/>
        <pt x="382" y="-14" on="1"/>
        <pt x="296" y="-14" on="0"/>
        <pt x="225" y="24" on="1"/>
        <pt x="176" y="-60" on="1"/>
        <pt x="97" y="-60" on="1"/>
        <pt x="169" y="62" on="1"/>
        <pt x="112" y="110" on="0"/>
        <pt x="45" y="263" on="0"/>
        <pt x="45" y="364" on="1"/>
        <pt x="45" y="451" on="0"/>
        <pt x="100" y="590" on="0"/>
        <pt x="192" y="689" on="0"/>
        <pt x="314" y="742" on="0"/>
        <pt x="382" y="742" on="1"/>
        <pt x="468" y="742" on="0"/>
        <pt x="539" y="704" on="1"/>
        <pt x="590" y="789" on="1"/>
        <pt x="669" y="789" on="1"/>
      </contour>
      <contour>
        <pt x="620" y="364" on="1"/>
        <pt x="620" y="434" on="0"/>
        <pt x="581" y="546" on="0"/>
        <pt x="549" y="586" on="1"/>
        <pt x="281" y="133" on="1"/>
        <pt x="264" y="153" on="0"/>
        <pt x="247" y="211" on="0"/>
        <pt x="263" y="240" on="1"/>
        <pt x="499" y="635" on="1"/>
        <pt x="446" y="671" on="0"/>
        <pt x="382" y="671" on="1"/>
        <pt x="334" y="671" on="0"/>
        <pt x="247" y="628" on="0"/>
        <pt x="182" y="548" on="0"/>
        <pt x="144" y="434" on="0"/>
        <pt x="144" y="364" on="1"/>
        <pt x="144" y="293" on="0"/>
        <pt x="182" y="179" on="0"/>
        <pt x="248" y="99" on="0"/>
        <pt x="334" y="56" on="0"/>
        <pt x="382" y="56" on="1"/>
        <pt x="430" y="56" on="0"/>
        <pt x="517" y="99" on="0"/>
        <pt x="582" y="179" on="0"/>
        <pt x="620" y="293" on="0"/>
      </contour>
    </TTGlyph>
    <TTGlyph name="Otilde" xMin="45" yMin="-14" xMax="719" yMax="893">
      <contour>
        <pt x="719" y="364" on="1"/>
        <pt x="719" y="277" on="0"/>
        <pt x="665" y="138" on="0"/>
        <pt x="572" y="39" on="0"/>
        <pt x="450" y="-14" on="0"/>
        <pt x="382" y="-14" on="1"/>
        <pt x="312" y="-14" on="0"/>
        <pt x="189" y="38" on="0"/>
        <pt x="98" y="135" on="0"/>
        <pt x="45" y="275" on="0"/>
        <pt x="45" y="364" on="1"/>
        <pt x="45" y="451" on="0"/>
        <pt x="100" y="590" on="0"/>
        <pt x="192" y="689" on="0"/>
        <pt x="314" y="742" on="0"/>
        <pt x="382" y="742" on="1"/>
        <pt x="453" y="742" on="0"/>
        <pt x="576" y="690" on="0"/>
        <pt x="667" y="592" on="0"/>
        <pt x="719" y="452" on="0"/>
      </contour>
      <contour>
        <pt x="617" y="364" on="1"/>
        <pt x="617" y="434" on="0"/>
        <pt x="580" y="547" on="0"/>
        <pt x="516" y="627" on="0"/>
        <pt x="430" y="669" on="0"/>
        <pt x="382" y="669" on="1"/>
        <pt x="334" y="669" on="0"/>
        <pt x="248" y="627" on="0"/>
        <pt x="184" y="547" on="0"/>
        <pt x="147" y="434" on="0"/>
        <pt x="147" y="364" on="1"/>
        <pt x="147" y="293" on="0"/>
        <pt x="184" y="179" on="0"/>
        <pt x="249" y="100" on="0"/>
        <pt x="334" y="58" on="0"/>
        <pt x="382" y="58" on="1"/>
        <pt x="430" y="58" on="0"/>
        <pt x="516" y="100" on="0"/>
        <pt x="580" y="179" on="0"/>
        <pt x="617" y="293" on="0"/>
      </contour>
      <contour>
        <pt x="242" y="783" on="1"/>
        <pt x="244" y="840" on="0"/>
        <pt x="295" y="890" on="0"/>
        <pt x="331" y="891" on="1"/>
        <pt x="368" y="891" on="0"/>
        <pt x="395" y="867" on="1"/>
        <pt x="409" y="855" on="0"/>
        <pt x="429" y="835" on="0"/>
        <pt x="449" y="835" on="1"/>
        <pt x="475" y="835" on="0"/>
        <pt x="480" y="893" on="1"/>
        <pt x="533" y="887" on="1"/>
        <pt x="531" y="855" on="0"/>
        <pt x="516" y="814" on="0"/>
        <pt x="492" y="789" on="0"/>
        <pt x="463" y="779" on="0"/>
        <pt x="449" y="779" on="1"/>
        <pt x="408" y="779" on="0"/>
        <pt x="384" y="802" on="1"/>
        <pt x="370" y="814" on="0"/>
        <pt x="349" y="835" on="0"/>
        <pt x="332" y="835" on="1"/>
        <pt x="319" y="835" on="0"/>
        <pt x="299" y="809" on="0"/>
        <pt x="297" y="777" on="1"/>
      </contour>
    </TTGlyph>
    <TTGlyph name="P" xMin="89" yMin="0" xMax="558" yMax="740">
      <contour>
        <pt x="558" y="520" on="1"/>
        <pt x="558" y="472" on="0"/>
        <pt x="519" y="396" on="0"/>
        <pt x="453" y="341" on="0"/>
        <pt x="369" y="309" on="0"/>
        <pt x="324" y="305" on="1"/>
        <pt x="302" y="303" on="0"/>
        <pt x="252" y="305" on="0"/>
        <pt x="224" y="313" on="1"/>
        <pt x="235" y="339" on="0"/>
        <pt x="280" y="374" on="0"/>
        <pt x="312" y="374" on="1"/>
        <pt x="338" y="374" on="0"/>
        <pt x="390" y="396" on="0"/>
        <pt x="431" y="435" on="0"/>
        <pt x="457" y="488" on="0"/>
        <pt x="457" y="520" on="1"/>
        <pt x="457" y="551" on="0"/>
        <pt x="431" y="605" on="0"/>
        <pt x="387" y="645" on="0"/>
        <pt x="328" y="667" on="0"/>
        <pt x="294" y="667" on="1"/>
        <pt x="238" y="667" on="0"/>
        <pt x="184" y="661" on="1"/>
        <pt x="184" y="0" on="1"/>
        <pt x="89" y="2" on="1"/>
        <pt x="89" y="720" on="1"/>
        <pt x="145" y="731" on="0"/>
        <pt x="239" y="740" on="0"/>
        <pt x="294" y="740" on="1"/>
        <pt x="354" y="740" on="0"/>
        <pt x="452" y="705" on="0"/>
        <pt x="521" y="645" on="0"/>
        <pt x="558" y="565" on="0"/>
      </contour>
    </TTGlyph>
    <TTGlyph name="Q" xMin="53" yMin="-14" xMax="726" yMax="742">
      <contour>
        <pt x="713" y="39" on="1"/>
        <pt x="659" y="-13" on="1"/>
        <pt x="412" y="238" on="1"/>
        <pt x="466" y="291" on="1"/>
        <pt x="566" y="187" on="1"/>
        <pt x="579" y="168" on="1"/>
        <pt x="586" y="192" on="1"/>
        <pt x="608" y="233" on="0"/>
        <pt x="624" y="320" on="0"/>
        <pt x="624" y="364" on="1"/>
        <pt x="624" y="434" on="0"/>
        <pt x="587" y="547" on="0"/>
        <pt x="524" y="627" on="0"/>
        <pt x="438" y="669" on="0"/>
        <pt x="390" y="669" on="1"/>
        <pt x="342" y="669" on="0"/>
        <pt x="256" y="627" on="0"/>
        <pt x="192" y="547" on="0"/>
        <pt x="154" y="434" on="0"/>
        <pt x="154" y="364" on="1"/>
        <pt x="154" y="294" on="0"/>
        <pt x="190" y="181" on="0"/>
        <pt x="253" y="102" on="0"/>
        <pt x="338" y="59" on="0"/>
        <pt x="387" y="59" on="1"/>
        <pt x="405" y="59" on="0"/>
        <pt x="431" y="63" on="0"/>
        <pt x="446" y="67" on="1"/>
        <pt x="472" y="74" on="0"/>
        <pt x="531" y="61" on="0"/>
        <pt x="548" y="43" on="1"/>
        <pt x="506" y="13" on="0"/>
        <pt x="428" y="-14" on="0"/>
        <pt x="387" y="-14" on="1"/>
        <pt x="316" y="-14" on="0"/>
        <pt x="194" y="39" on="0"/>
        <pt x="104" y="138" on="0"/>
        <pt x="53" y="278" on="0"/>
        <pt x="53" y="364" on="1"/>
        <pt x="53" y="451" on="0"/>
        <pt x="108" y="590" on="0"/>
        <pt x="200" y="689" on="0"/>
        <pt x="322" y="742" on="0"/>
        <pt x="390" y="742" on="1"/>
        <pt x="461" y="742" on="0"/>
        <pt x="584" y="690" on="0"/>
        <pt x="674" y="592" on="0"/>
        <pt x="726" y="452" on="0"/>
        <pt x="726" y="364" on="1"/>
        <pt x="726" y="296" on="0"/>
        <pt x="683" y="182" on="0"/>
        <pt x="637" y="116" on="1"/>
      </contour>
    </TTGlyph>
    <TTGlyph name="R" xMin="89" yMin="0" xMax="586" yMax="741">
      <contour>
        <pt x="558" y="525" on="1"/>
        <pt x="558" y="465" on="0"/>
        <pt x="491" y="374" on="0"/>
        <pt x="439" y="348" on="1"/>
        <pt x="415" y="340" on="1"/>
        <pt x="435" y="332" on="1"/>
        <pt x="472" y="307" on="0"/>
        <pt x="511" y="235" on="0"/>
        <pt x="538" y="148" on="0"/>
        <pt x="563" y="51" on="0"/>
        <pt x="586" y="0" on="1"/>
        <pt x="486" y="0" on="1"/>
        <pt x="466" y="43" on="0"/>
        <pt x="443" y="141" on="0"/>
        <pt x="415" y="231" on="0"/>
        <pt x="372" y="301" on="0"/>
        <pt x="333" y="316" on="1"/>
        <pt x="330" y="315" on="0"/>
        <pt x="324" y="315" on="1"/>
        <pt x="302" y="313" on="0"/>
        <pt x="252" y="316" on="0"/>
        <pt x="224" y="323" on="1"/>
        <pt x="235" y="349" on="0"/>
        <pt x="280" y="383" on="0"/>
        <pt x="312" y="384" on="1"/>
        <pt x="338" y="385" on="0"/>
        <pt x="390" y="407" on="0"/>
        <pt x="431" y="444" on="0"/>
        <pt x="457" y="496" on="0"/>
        <pt x="457" y="527" on="1"/>
        <pt x="457" y="557" on="0"/>
        <pt x="431" y="608" on="0"/>
        <pt x="387" y="646" on="0"/>
        <pt x="328" y="668" on="0"/>
        <pt x="294" y="668" on="1"/>
        <pt x="266" y="668" on="0"/>
        <pt x="220" y="666" on="0"/>
        <pt x="184" y="659" on="1"/>
        <pt x="184" y="0" on="1"/>
        <pt x="89" y="0" on="1"/>
        <pt x="89" y="718" on="1"/>
        <pt x="145" y="729" on="0"/>
        <pt x="239" y="741" on="0"/>
        <pt x="294" y="741" on="1"/>
        <pt x="354" y="741" on="0"/>
        <pt x="452" y="707" on="0"/>
        <pt x="521" y="648" on="0"/>
        <pt x="558" y="570" on="0"/>
        <pt x="558" y="527" on="1"/>
      </contour>
    </TTGlyph>
    <TTGlyph name="S" xMin="59" yMin="-12" xMax="504" yMax="740">
      <contour>
        <pt x="281" y="667" on="1"/>
        <pt x="253" y="667" on="0"/>
        <pt x="210" y="650" on="0"/>
        <pt x="180" y="620" on="0"/>
        <pt x="165" y="581" on="0"/>
        <pt x="165" y="559" on="1"/>
        <pt x="165" y="520" on="0"/>
        <pt x="215" y="465" on="0"/>
        <pt x="291" y="419" on="0"/>
        <pt x="378" y="374" on="0"/>
        <pt x="454" y="316" on="0"/>
        <pt x="504" y="238" on="0"/>
        <pt x="504" y="181" on="1"/>
        <pt x="504" y="144" on="0"/>
        <pt x="473" y="74" on="0"/>
        <pt x="412" y="20" on="0"/>
        <pt x="324" y="-12" on="0"/>
        <pt x="267" y="-12" on="1"/>
        <pt x="246" y="-12" on="0"/>
        <pt x="194" y="-7" on="0"/>
        <pt x="140" y="3" on="0"/>
        <pt x="84" y="21" on="0"/>
        <pt x="59" y="33" on="1"/>
        <pt x="85" y="98" on="1"/>
        <pt x="130" y="78" on="0"/>
        <pt x="221" y="60" on="0"/>
        <pt x="256" y="60" on="1"/>
        <pt x="327" y="60" on="0"/>
        <pt x="405" y="131" on="0"/>
        <pt x="405" y="183" on="1"/>
        <pt x="405" y="226" on="0"/>
        <pt x="355" y="283" on="0"/>
        <pt x="281" y="329" on="0"/>
        <pt x="193" y="372" on="0"/>
        <pt x="119" y="427" on="0"/>
        <pt x="69" y="503" on="0"/>
        <pt x="69" y="559" on="1"/>
        <pt x="69" y="596" on="0"/>
        <pt x="98" y="662" on="0"/>
        <pt x="152" y="712" on="0"/>
        <pt x="226" y="740" on="0"/>
        <pt x="271" y="740" on="1"/>
        <pt x="314" y="740" on="0"/>
        <pt x="401" y="726" on="0"/>
        <pt x="452" y="710" on="1"/>
        <pt x="425" y="645" on="1"/>
        <pt x="382" y="658" on="0"/>
        <pt x="309" y="667" on="0"/>
      </contour>
    </TTGlyph>
    <TTGlyph name="Scaron" xMin="59" yMin="-12" xMax="504" yMax="890">
      <contour>
        <pt x="281" y="667" on="1"/>
        <pt x="253" y="667" on="0"/>
        <pt x="210" y="650" on="0"/>
        <pt x="180" y="620" on="0"/>
        <pt x="165" y="581" on="0"/>
        <pt x="165" y="559" on="1"/>
        <pt x="165" y="520" on="0"/>
        <pt x="215" y="465" on="0"/>
        <pt x="291" y="419" on="0"/>
        <pt x="378" y="374" on="0"/>
        <pt x="454" y="316" on="0"/>
        <pt x="504" y="238" on="0"/>
        <pt x="504" y="181" on="1"/>
        <pt x="504" y="144" on="0"/>
        <pt x="473" y="74" on="0"/>
        <pt x="412" y="20" on="0"/>
        <pt x="324" y="-12" on="0"/>
        <pt x="267" y="-12" on="1"/>
        <pt x="246" y="-12" on="0"/>
        <pt x="194" y="-7" on="0"/>
        <pt x="140" y="3" on="0"/>
        <pt x="84" y="21" on="0"/>
        <pt x="59" y="33" on="1"/>
        <pt x="85" y="98" on="1"/>
        <pt x="130" y="78" on="0"/>
        <pt x="221" y="60" on="0"/>
        <pt x="256" y="60" on="1"/>
        <pt x="327" y="60" on="0"/>
        <pt x="405" y="131" on="0"/>
        <pt x="405" y="183" on="1"/>
        <pt x="405" y="226" on="0"/>
        <pt x="355" y="283" on="0"/>
        <pt x="281" y="329" on="0"/>
        <pt x="193" y="372" on="0"/>
        <pt x="119" y="427" on="0"/>
        <pt x="69" y="503" on="0"/>
        <pt x="69" y="559" on="1"/>
        <pt x="69" y="596" on="0"/>
        <pt x="98" y="662" on="0"/>
        <pt x="152" y="712" on="0"/>
        <pt x="226" y="740" on="0"/>
        <pt x="271" y="740" on="1"/>
        <pt x="314" y="740" on="0"/>
        <pt x="401" y="726" on="0"/>
        <pt x="452" y="710" on="1"/>
        <pt x="425" y="645" on="1"/>
        <pt x="382" y="658" on="0"/>
        <pt x="309" y="667" on="0"/>
      </contour>
      <contour>
        <pt x="252" y="761" on="1"/>
        <pt x="143" y="881" on="1"/>
        <pt x="192" y="890" on="1"/>
        <pt x="280" y="830" on="1"/>
        <pt x="368" y="889" on="1"/>
        <pt x="420" y="881" on="1"/>
        <pt x="309" y="761" on="1"/>
      </contour>
    </TTGlyph>
    <TTGlyph name="T" xMin="10" yMin="0" xMax="531" yMax="727">
      <contour>
        <pt x="10" y="655" on="1"/>
        <pt x="10" y="727" on="1"/>
        <pt x="531" y="727" on="1"/>
        <pt x="531" y="655" on="1"/>
        <pt x="318" y="655" on="1"/>
        <pt x="318" y="0" on="1"/>
        <pt x="222" y="0" on="1"/>
        <pt x="222" y="655" on="1"/>
      </contour>
    </TTGlyph>
    <TTGlyph name="Thorn" xMin="92" yMin="0" xMax="558" yMax="727">
      <contour>
        <pt x="558" y="363" on="1"/>
        <pt x="558" y="315" on="0"/>
        <pt x="519" y="239" on="0"/>
        <pt x="453" y="184" on="0"/>
        <pt x="369" y="152" on="0"/>
        <pt x="324" y="148" on="1"/>
        <pt x="302" y="146" on="0"/>
        <pt x="252" y="148" on="0"/>
        <pt x="224" y="156" on="1"/>
        <pt x="235" y="182" on="0"/>
        <pt x="280" y="217" on="0"/>
        <pt x="312" y="217" on="1"/>
        <pt x="338" y="217" on="0"/>
        <pt x="390" y="239" on="0"/>
        <pt x="431" y="278" on="0"/>
        <pt x="457" y="331" on="0"/>
        <pt x="457" y="363" on="1"/>
        <pt x="457" y="394" on="0"/>
        <pt x="431" y="448" on="0"/>
        <pt x="387" y="488" on="0"/>
        <pt x="328" y="510" on="0"/>
        <pt x="294" y="510" on="1"/>
        <pt x="238" y="510" on="0"/>
        <pt x="184" y="504" on="1"/>
        <pt x="184" y="0" on="1"/>
        <pt x="92" y="0" on="1"/>
        <pt x="92" y="727" on="1"/>
        <pt x="184" y="727" on="1"/>
        <pt x="184" y="577" on="1"/>
        <pt x="236" y="583" on="0"/>
        <pt x="294" y="583" on="1"/>
        <pt x="354" y="583" on="0"/>
        <pt x="452" y="548" on="0"/>
        <pt x="521" y="488" on="0"/>
        <pt x="558" y="408" on="0"/>
      </contour>
    </TTGlyph>
    <TTGlyph name="U" xMin="78" yMin="-14" xMax="616" yMax="727">
      <contour>
        <pt x="347" y="-14" on="1"/>
        <pt x="283" y="-14" on="0"/>
        <pt x="183" y="27" on="0"/>
        <pt x="114" y="101" on="0"/>
        <pt x="78" y="205" on="0"/>
        <pt x="78" y="268" on="1"/>
        <pt x="78" y="727" on="1"/>
        <pt x="172" y="727" on="1"/>
        <pt x="172" y="252" on="1"/>
        <pt x="172" y="163" on="0"/>
        <pt x="267" y="58" on="0"/>
        <pt x="347" y="58" on="1"/>
        <pt x="427" y="58" on="0"/>
        <pt x="522" y="163" on="0"/>
        <pt x="522" y="252" on="1"/>
        <pt x="522" y="727" on="1"/>
        <pt x="616" y="727" on="1"/>
        <pt x="616" y="268" on="1"/>
        <pt x="616" y="205" on="0"/>
        <pt x="577" y="101" on="0"/>
        <pt x="506" y="27" on="0"/>
        <pt x="407" y="-14" on="0"/>
      </contour>
    </TTGlyph>
    <TTGlyph name="Uacute" xMin="78" yMin="-14" xMax="616" yMax="890">
      <contour>
        <pt x="347" y="-14" on="1"/>
        <pt x="283" y="-14" on="0"/>
        <pt x="183" y="27" on="0"/>
        <pt x="114" y="101" on="0"/>
        <pt x="78" y="205" on="0"/>
        <pt x="78" y="268" on="1"/>
        <pt x="78" y="727" on="1"/>
        <pt x="172" y="727" on="1"/>
        <pt x="172" y="252" on="1"/>
        <pt x="172" y="163" on="0"/>
        <pt x="267" y="58" on="0"/>
        <pt x="347" y="58" on="1"/>
        <pt x="427" y="58" on="0"/>
        <pt x="522" y="163" on="0"/>
        <pt x="522" y="252" on="1"/>
        <pt x="522" y="727" on="1"/>
        <pt x="616" y="727" on="1"/>
        <pt x="616" y="268" on="1"/>
        <pt x="616" y="205" on="0"/>
        <pt x="577" y="101" on="0"/>
        <pt x="506" y="27" on="0"/>
        <pt x="407" y="-14" on="0"/>
      </contour>
      <contour>
        <pt x="403" y="792" on="1"/>
        <pt x="383" y="770" on="0"/>
        <pt x="331" y="760" on="0"/>
        <pt x="305" y="766" on="1"/>
        <pt x="394" y="890" on="1"/>
        <pt x="491" y="890" on="1"/>
      </contour>
    </TTGlyph>
    <TTGlyph name="Ucircumflex" xMin="78" yMin="-14" xMax="616" yMax="890">
      <contour>
        <pt x="347" y="-14" on="1"/>
        <pt x="283" y="-14" on="0"/>
        <pt x="183" y="27" on="0"/>
        <pt x="114" y="101" on="0"/>
        <pt x="78" y="205" on="0"/>
        <pt x="78" y="268" on="1"/>
        <pt x="78" y="727" on="1"/>
        <pt x="172" y="727" on="1"/>
        <pt x="172" y="252" on="1"/>
        <pt x="172" y="163" on="0"/>
        <pt x="267" y="58" on="0"/>
        <pt x="347" y="58" on="1"/>
        <pt x="427" y="58" on="0"/>
        <pt x="522" y="163" on="0"/>
        <pt x="522" y="252" on="1"/>
        <pt x="522" y="727" on="1"/>
        <pt x="616" y="727" on="1"/>
        <pt x="616" y="268" on="1"/>
        <pt x="616" y="205" on="0"/>
        <pt x="577" y="101" on="0"/>
        <pt x="506" y="27" on="0"/>
        <pt x="407" y="-14" on="0"/>
      </contour>
      <contour>
        <pt x="375" y="890" on="1"/>
        <pt x="486" y="770" on="1"/>
        <pt x="434" y="762" on="1"/>
        <pt x="346" y="821" on="1"/>
        <pt x="258" y="761" on="1"/>
        <pt x="209" y="770" on="1"/>
        <pt x="318" y="890" on="1"/>
      </contour>
    </TTGlyph>
    <TTGlyph name="Udieresis" xMin="78" yMin="-14" xMax="616" yMax="892">
      <contour>
        <pt x="347" y="-14" on="1"/>
        <pt x="283" y="-14" on="0"/>
        <pt x="183" y="27" on="0"/>
        <pt x="114" y="101" on="0"/>
        <pt x="78" y="205" on="0"/>
        <pt x="78" y="268" on="1"/>
        <pt x="78" y="727" on="1"/>
        <pt x="172" y="727" on="1"/>
        <pt x="172" y="252" on="1"/>
        <pt x="172" y="163" on="0"/>
        <pt x="267" y="58" on="0"/>
        <pt x="347" y="58" on="1"/>
        <pt x="427" y="58" on="0"/>
        <pt x="522" y="163" on="0"/>
        <pt x="522" y="252" on="1"/>
        <pt x="522" y="727" on="1"/>
        <pt x="616" y="727" on="1"/>
        <pt x="616" y="268" on="1"/>
        <pt x="616" y="205" on="0"/>
        <pt x="577" y="101" on="0"/>
        <pt x="506" y="27" on="0"/>
        <pt x="407" y="-14" on="0"/>
      </contour>
      <contour>
        <pt x="198" y="840" on="1"/>
        <pt x="198" y="862" on="0"/>
        <pt x="229" y="892" on="0"/>
        <pt x="250" y="892" on="1"/>
        <pt x="272" y="892" on="0"/>
        <pt x="303" y="862" on="0"/>
        <pt x="303" y="840" on="1"/>
        <pt x="303" y="818" on="0"/>
        <pt x="272" y="788" on="0"/>
        <pt x="250" y="788" on="1"/>
        <pt x="229" y="788" on="0"/>
        <pt x="198" y="818" on="0"/>
      </contour>
      <contour>
        <pt x="392" y="840" on="1"/>
        <pt x="392" y="862" on="0"/>
        <pt x="423" y="892" on="0"/>
        <pt x="445" y="892" on="1"/>
        <pt x="466" y="892" on="0"/>
        <pt x="497" y="862" on="0"/>
        <pt x="497" y="840" on="1"/>
        <pt x="497" y="818" on="0"/>
        <pt x="466" y="788" on="0"/>
        <pt x="445" y="788" on="1"/>
        <pt x="423" y="788" on="0"/>
        <pt x="392" y="818" on="0"/>
      </contour>
    </TTGlyph>
    <TTGlyph name="Ugrave" xMin="78" yMin="-14" xMax="616" yMax="890">
      <contour>
        <pt x="347" y="-14" on="1"/>
        <pt x="283" y="-14" on="0"/>
        <pt x="183" y="27" on="0"/>
        <pt x="114" y="101" on="0"/>
        <pt x="78" y="205" on="0"/>
        <pt x="78" y="268" on="1"/>
        <pt x="78" y="727" on="1"/>
        <pt x="172" y="727" on="1"/>
        <pt x="172" y="252" on="1"/>
        <pt x="172" y="163" on="0"/>
        <pt x="267" y="58" on="0"/>
        <pt x="347" y="58" on="1"/>
        <pt x="427" y="58" on="0"/>
        <pt x="522" y="163" on="0"/>
        <pt x="522" y="252" on="1"/>
        <pt x="522" y="727" on="1"/>
        <pt x="616" y="727" on="1"/>
        <pt x="616" y="268" on="1"/>
        <pt x="616" y="205" on="0"/>
        <pt x="577" y="101" on="0"/>
        <pt x="506" y="27" on="0"/>
        <pt x="407" y="-14" on="0"/>
      </contour>
      <contour>
        <pt x="222" y="890" on="1"/>
        <pt x="316" y="890" on="1"/>
        <pt x="390" y="766" on="1"/>
        <pt x="364" y="760" on="0"/>
        <pt x="312" y="770" on="0"/>
        <pt x="295" y="792" on="1"/>
      </contour>
    </TTGlyph>
    <TTGlyph name="V" xMin="13" yMin="0" xMax="621" yMax="727">
      <contour>
        <pt x="268" y="0" on="1"/>
        <pt x="13" y="727" on="1"/>
        <pt x="116" y="727" on="1"/>
        <pt x="312" y="130" on="1"/>
        <pt x="319" y="97" on="1"/>
        <pt x="327" y="129" on="1"/>
        <pt x="522" y="727" on="1"/>
        <pt x="621" y="727" on="1"/>
        <pt x="368" y="0" on="1"/>
      </contour>
    </TTGlyph>
    <TTGlyph name="W" xMin="21" yMin="0" xMax="952" yMax="727">
      <contour>
        <pt x="541" y="717" on="1"/>
        <pt x="692" y="136" on="1"/>
        <pt x="702" y="87" on="1"/>
        <pt x="711" y="134" on="1"/>
        <pt x="858" y="727" on="1"/>
        <pt x="952" y="727" on="1"/>
        <pt x="757" y="0" on="1"/>
        <pt x="645" y="0" on="1"/>
        <pt x="496" y="566" on="1"/>
        <pt x="488" y="608" on="1"/>
        <pt x="480" y="568" on="1"/>
        <pt x="332" y="0" on="1"/>
        <pt x="216" y="0" on="1"/>
        <pt x="21" y="727" on="1"/>
        <pt x="117" y="727" on="1"/>
        <pt x="265" y="137" on="1"/>
        <pt x="273" y="88" on="1"/>
        <pt x="284" y="137" on="1"/>
        <pt x="439" y="717" on="1"/>
      </contour>
    </TTGlyph>
    <TTGlyph name="X" xMin="34" yMin="0" xMax="590" yMax="727">
      <contour>
        <pt x="47" y="727" on="1"/>
        <pt x="158" y="727" on="1"/>
        <pt x="305" y="462" on="1"/>
        <pt x="314" y="437" on="1"/>
        <pt x="322" y="462" on="1"/>
        <pt x="471" y="727" on="1"/>
        <pt x="577" y="727" on="1"/>
        <pt x="365" y="377" on="1"/>
        <pt x="590" y="0" on="1"/>
        <pt x="482" y="0" on="1"/>
      </contour>
      <contour>
        <pt x="137" y="0" on="1"/>
        <pt x="34" y="0" on="1"/>
        <pt x="234" y="330" on="1"/>
        <pt x="243" y="318" on="0"/>
        <pt x="257" y="289" on="0"/>
        <pt x="265" y="258" on="0"/>
        <pt x="262" y="225" on="0"/>
        <pt x="253" y="210" on="1"/>
      </contour>
    </TTGlyph>
    <TTGlyph name="Y" xMin="28" yMin="0" xMax="612" yMax="727">
      <contour>
        <pt x="370" y="337" on="1"/>
        <pt x="370" y="0" on="1"/>
        <pt x="277" y="0" on="1"/>
        <pt x="277" y="309" on="1"/>
        <pt x="28" y="727" on="1"/>
        <pt x="136" y="727" on="1"/>
      </contour>
      <contour>
        <pt x="507" y="727" on="1"/>
        <pt x="612" y="727" on="1"/>
        <pt x="398" y="376" on="1"/>
        <pt x="389" y="388" on="0"/>
        <pt x="374" y="417" on="0"/>
        <pt x="367" y="449" on="0"/>
        <pt x="371" y="484" on="0"/>
        <pt x="381" y="502" on="1"/>
      </contour>
    </TTGlyph>
    <TTGlyph name="Yacute" xMin="28" yMin="0" xMax="612" yMax="890">
      <contour>
        <pt x="370" y="337" on="1"/>
        <pt x="370" y="0" on="1"/>
        <pt x="277" y="0" on="1"/>
        <pt x="277" y="309" on="1"/>
        <pt x="28" y="727" on="1"/>
        <pt x="136" y="727" on="1"/>
      </contour>
      <contour>
        <pt x="507" y="727" on="1"/>
        <pt x="612" y="727" on="1"/>
        <pt x="398" y="376" on="1"/>
        <pt x="389" y="388" on="0"/>
        <pt x="374" y="417" on="0"/>
        <pt x="367" y="449" on="0"/>
        <pt x="371" y="484" on="0"/>
        <pt x="381" y="502" on="1"/>
      </contour>
      <contour>
        <pt x="399" y="792" on="1"/>
        <pt x="379" y="770" on="0"/>
        <pt x="327" y="760" on="0"/>
        <pt x="301" y="766" on="1"/>
        <pt x="390" y="890" on="1"/>
        <pt x="487" y="890" on="1"/>
      </contour>
    </TTGlyph>
    <TTGlyph name="Ydieresis" xMin="28" yMin="0" xMax="612" yMax="892">
      <contour>
        <pt x="370" y="337" on="1"/>
        <pt x="370" y="0" on="1"/>
        <pt x="277" y="0" on="1"/>
        <pt x="277" y="309" on="1"/>
        <pt x="28" y="727" on="1"/>
        <pt x="136" y="727" on="1"/>
      </contour>
      <contour>
        <pt x="507" y="727" on="1"/>
        <pt x="612" y="727" on="1"/>
        <pt x="398" y="376" on="1"/>
        <pt x="389" y="388" on="0"/>
        <pt x="374" y="417" on="0"/>
        <pt x="367" y="449" on="0"/>
        <pt x="371" y="484" on="0"/>
        <pt x="381" y="502" on="1"/>
      </contour>
      <contour>
        <pt x="175" y="840" on="1"/>
        <pt x="175" y="862" on="0"/>
        <pt x="206" y="892" on="0"/>
        <pt x="227" y="892" on="1"/>
        <pt x="249" y="892" on="0"/>
        <pt x="280" y="862" on="0"/>
        <pt x="280" y="840" on="1"/>
        <pt x="280" y="818" on="0"/>
        <pt x="249" y="788" on="0"/>
        <pt x="227" y="788" on="1"/>
        <pt x="206" y="788" on="0"/>
        <pt x="175" y="818" on="0"/>
      </contour>
      <contour>
        <pt x="369" y="840" on="1"/>
        <pt x="369" y="862" on="0"/>
        <pt x="400" y="892" on="0"/>
        <pt x="422" y="892" on="1"/>
        <pt x="443" y="892" on="0"/>
        <pt x="474" y="862" on="0"/>
        <pt x="474" y="840" on="1"/>
        <pt x="474" y="818" on="0"/>
        <pt x="443" y="788" on="0"/>
        <pt x="422" y="788" on="1"/>
        <pt x="400" y="788" on="0"/>
        <pt x="369" y="818" on="0"/>
      </contour>
    </TTGlyph>
    <TTGlyph name="Z" xMin="85" yMin="0" xMax="608" yMax="727">
      <contour>
        <pt x="129" y="727" on="1"/>
        <pt x="598" y="727" on="1"/>
        <pt x="598" y="689" on="1"/>
        <pt x="211" y="84" on="1"/>
        <pt x="196" y="69" on="1"/>
        <pt x="218" y="72" on="1"/>
        <pt x="608" y="72" on="1"/>
        <pt x="608" y="0" on="1"/>
        <pt x="85" y="0" on="1"/>
        <pt x="85" y="38" on="1"/>
        <pt x="471" y="641" on="1"/>
        <pt x="487" y="658" on="1"/>
        <pt x="463" y="655" on="1"/>
        <pt x="129" y="655" on="1"/>
      </contour>
    </TTGlyph>
    <TTGlyph name="Zcaron" xMin="85" yMin="0" xMax="608" yMax="890">
      <contour>
        <pt x="129" y="727" on="1"/>
        <pt x="598" y="727" on="1"/>
        <pt x="598" y="689" on="1"/>
        <pt x="211" y="84" on="1"/>
        <pt x="196" y="69" on="1"/>
        <pt x="218" y="72" on="1"/>
        <pt x="608" y="72" on="1"/>
        <pt x="608" y="0" on="1"/>
        <pt x="85" y="0" on="1"/>
        <pt x="85" y="38" on="1"/>
        <pt x="471" y="641" on="1"/>
        <pt x="487" y="658" on="1"/>
        <pt x="463" y="655" on="1"/>
        <pt x="129" y="655" on="1"/>
      </contour>
      <contour>
        <pt x="335" y="761" on="1"/>
        <pt x="226" y="881" on="1"/>
        <pt x="275" y="890" on="1"/>
        <pt x="363" y="830" on="1"/>
        <pt x="451" y="889" on="1"/>
        <pt x="503" y="881" on="1"/>
        <pt x="392" y="761" on="1"/>
      </contour>
    </TTGlyph>
    <TTGlyph name="a" xMin="46" yMin="-10" xMax="469" yMax="527">
      <contour>
        <pt x="453" y="171" on="1"/>
        <pt x="453" y="111" on="0"/>
        <pt x="462" y="26" on="0"/>
        <pt x="469" y="0" on="1"/>
        <pt x="401" y="0" on="1"/>
        <pt x="387" y="8" on="0"/>
        <pt x="371" y="35" on="0"/>
        <pt x="365" y="51" on="1"/>
        <pt x="364" y="69" on="1"/>
        <pt x="353" y="51" on="1"/>
        <pt x="315" y="13" on="0"/>
        <pt x="250" y="-10" on="0"/>
        <pt x="214" y="-10" on="1"/>
        <pt x="175" y="-10" on="0"/>
        <pt x="113" y="12" on="0"/>
        <pt x="69" y="50" on="0"/>
        <pt x="46" y="102" on="0"/>
        <pt x="46" y="132" on="1"/>
        <pt x="46" y="170" on="0"/>
        <pt x="75" y="226" on="0"/>
        <pt x="140" y="266" on="0"/>
        <pt x="246" y="293" on="0"/>
        <pt x="323" y="302" on="1"/>
        <pt x="321" y="293" on="0"/>
        <pt x="314" y="269" on="0"/>
        <pt x="297" y="246" on="0"/>
        <pt x="271" y="228" on="0"/>
        <pt x="251" y="225" on="1"/>
        <pt x="218" y="220" on="0"/>
        <pt x="177" y="202" on="0"/>
        <pt x="153" y="179" on="0"/>
        <pt x="145" y="152" on="0"/>
        <pt x="145" y="138" on="1"/>
        <pt x="145" y="107" on="0"/>
        <pt x="189" y="62" on="0"/>
        <pt x="227" y="62" on="1"/>
        <pt x="261" y="62" on="0"/>
        <pt x="330" y="96" on="0"/>
        <pt x="359" y="134" on="1"/>
        <pt x="359" y="321" on="1"/>
        <pt x="359" y="380" on="0"/>
        <pt x="301" y="455" on="0"/>
        <pt x="233" y="455" on="1"/>
        <pt x="206" y="455" on="0"/>
        <pt x="153" y="444" on="0"/>
        <pt x="117" y="431" on="1"/>
        <pt x="94" y="493" on="1"/>
        <pt x="143" y="514" on="0"/>
        <pt x="218" y="527" on="0"/>
        <pt x="251" y="527" on="1"/>
        <pt x="348" y="527" on="0"/>
        <pt x="453" y="416" on="0"/>
        <pt x="453" y="314" on="1"/>
      </contour>
    </TTGlyph>
    <TTGlyph name="aacute" xMin="45" yMin="-10" xMax="468" yMax="740">
      <contour>
        <pt x="316" y="631" on="1"/>
        <pt x="296" y="607" on="0"/>
        <pt x="244" y="595" on="0"/>
        <pt x="218" y="602" on="1"/>
        <pt x="307" y="740" on="1"/>
        <pt x="404" y="740" on="1"/>
      </contour>
      <contour>
        <pt x="452" y="171" on="1"/>
        <pt x="452" y="111" on="0"/>
        <pt x="461" y="26" on="0"/>
        <pt x="468" y="0" on="1"/>
        <pt x="400" y="0" on="1"/>
        <pt x="386" y="8" on="0"/>
        <pt x="370" y="35" on="0"/>
        <pt x="364" y="51" on="1"/>
        <pt x="363" y="69" on="1"/>
        <pt x="352" y="51" on="1"/>
        <pt x="314" y="13" on="0"/>
        <pt x="249" y="-10" on="0"/>
        <pt x="213" y="-10" on="1"/>
        <pt x="174" y="-10" on="0"/>
        <pt x="112" y="12" on="0"/>
        <pt x="68" y="50" on="0"/>
        <pt x="45" y="102" on="0"/>
        <pt x="45" y="132" on="1"/>
        <pt x="45" y="170" on="0"/>
        <pt x="74" y="226" on="0"/>
        <pt x="139" y="266" on="0"/>
        <pt x="245" y="293" on="0"/>
        <pt x="322" y="302" on="1"/>
        <pt x="320" y="293" on="0"/>
        <pt x="313" y="269" on="0"/>
        <pt x="296" y="246" on="0"/>
        <pt x="270" y="228" on="0"/>
        <pt x="250" y="225" on="1"/>
        <pt x="217" y="220" on="0"/>
        <pt x="176" y="202" on="0"/>
        <pt x="152" y="179" on="0"/>
        <pt x="144" y="152" on="0"/>
        <pt x="144" y="138" on="1"/>
        <pt x="144" y="107" on="0"/>
        <pt x="188" y="62" on="0"/>
        <pt x="226" y="62" on="1"/>
        <pt x="260" y="62" on="0"/>
        <pt x="329" y="96" on="0"/>
        <pt x="358" y="134" on="1"/>
        <pt x="358" y="321" on="1"/>
        <pt x="358" y="380" on="0"/>
        <pt x="300" y="455" on="0"/>
        <pt x="232" y="455" on="1"/>
        <pt x="205" y="455" on="0"/>
        <pt x="152" y="444" on="0"/>
        <pt x="116" y="431" on="1"/>
        <pt x="93" y="493" on="1"/>
        <pt x="142" y="514" on="0"/>
        <pt x="217" y="527" on="0"/>
        <pt x="250" y="527" on="1"/>
        <pt x="347" y="527" on="0"/>
        <pt x="452" y="416" on="0"/>
        <pt x="452" y="314" on="1"/>
      </contour>
    </TTGlyph>
    <TTGlyph name="acircumflex" xMin="46" yMin="-10" xMax="469" yMax="743">
      <contour>
        <pt x="295" y="743" on="1"/>
        <pt x="406" y="598" on="1"/>
        <pt x="354" y="590" on="1"/>
        <pt x="266" y="674" on="1"/>
        <pt x="178" y="589" on="1"/>
        <pt x="129" y="598" on="1"/>
        <pt x="238" y="743" on="1"/>
      </contour>
      <contour>
        <pt x="453" y="171" on="1"/>
        <pt x="453" y="111" on="0"/>
        <pt x="462" y="26" on="0"/>
        <pt x="469" y="0" on="1"/>
        <pt x="401" y="0" on="1"/>
        <pt x="387" y="8" on="0"/>
        <pt x="371" y="35" on="0"/>
        <pt x="365" y="51" on="1"/>
        <pt x="364" y="69" on="1"/>
        <pt x="353" y="51" on="1"/>
        <pt x="315" y="13" on="0"/>
        <pt x="250" y="-10" on="0"/>
        <pt x="214" y="-10" on="1"/>
        <pt x="175" y="-10" on="0"/>
        <pt x="113" y="12" on="0"/>
        <pt x="69" y="50" on="0"/>
        <pt x="46" y="102" on="0"/>
        <pt x="46" y="132" on="1"/>
        <pt x="46" y="170" on="0"/>
        <pt x="75" y="226" on="0"/>
        <pt x="140" y="266" on="0"/>
        <pt x="246" y="293" on="0"/>
        <pt x="323" y="302" on="1"/>
        <pt x="321" y="293" on="0"/>
        <pt x="314" y="269" on="0"/>
        <pt x="297" y="246" on="0"/>
        <pt x="271" y="228" on="0"/>
        <pt x="251" y="225" on="1"/>
        <pt x="218" y="220" on="0"/>
        <pt x="177" y="202" on="0"/>
        <pt x="153" y="179" on="0"/>
        <pt x="145" y="152" on="0"/>
        <pt x="145" y="138" on="1"/>
        <pt x="145" y="107" on="0"/>
        <pt x="189" y="62" on="0"/>
        <pt x="227" y="62" on="1"/>
        <pt x="261" y="62" on="0"/>
        <pt x="330" y="96" on="0"/>
        <pt x="359" y="134" on="1"/>
        <pt x="359" y="321" on="1"/>
        <pt x="359" y="380" on="0"/>
        <pt x="301" y="455" on="0"/>
        <pt x="233" y="455" on="1"/>
        <pt x="206" y="455" on="0"/>
        <pt x="153" y="444" on="0"/>
        <pt x="117" y="431" on="1"/>
        <pt x="94" y="493" on="1"/>
        <pt x="143" y="514" on="0"/>
        <pt x="218" y="527" on="0"/>
        <pt x="251" y="527" on="1"/>
        <pt x="348" y="527" on="0"/>
        <pt x="453" y="416" on="0"/>
        <pt x="453" y="314" on="1"/>
      </contour>
    </TTGlyph>
    <TTGlyph name="acute" xMin="70" yMin="595" xMax="256" yMax="740">
      <contour>
        <pt x="168" y="631" on="1"/>
        <pt x="148" y="607" on="0"/>
        <pt x="96" y="595" on="0"/>
        <pt x="70" y="602" on="1"/>
        <pt x="159" y="740" on="1"/>
        <pt x="256" y="740" on="1"/>
      </contour>
    </TTGlyph>
    <TTGlyph name="adieresis" xMin="46" yMin="-10" xMax="469" yMax="722">
      <contour>
        <pt x="118" y="670" on="1"/>
        <pt x="118" y="692" on="0"/>
        <pt x="149" y="722" on="0"/>
        <pt x="170" y="722" on="1"/>
        <pt x="192" y="722" on="0"/>
        <pt x="223" y="692" on="0"/>
        <pt x="223" y="670" on="1"/>
        <pt x="223" y="648" on="0"/>
        <pt x="192" y="618" on="0"/>
        <pt x="170" y="618" on="1"/>
        <pt x="149" y="618" on="0"/>
        <pt x="118" y="648" on="0"/>
      </contour>
      <contour>
        <pt x="312" y="670" on="1"/>
        <pt x="312" y="692" on="0"/>
        <pt x="343" y="722" on="0"/>
        <pt x="365" y="722" on="1"/>
        <pt x="386" y="722" on="0"/>
        <pt x="417" y="692" on="0"/>
        <pt x="417" y="670" on="1"/>
        <pt x="417" y="648" on="0"/>
        <pt x="386" y="618" on="0"/>
        <pt x="365" y="618" on="1"/>
        <pt x="343" y="618" on="0"/>
        <pt x="312" y="648" on="0"/>
      </contour>
      <contour>
        <pt x="453" y="171" on="1"/>
        <pt x="453" y="111" on="0"/>
        <pt x="462" y="26" on="0"/>
        <pt x="469" y="0" on="1"/>
        <pt x="401" y="0" on="1"/>
        <pt x="387" y="8" on="0"/>
        <pt x="371" y="35" on="0"/>
        <pt x="365" y="51" on="1"/>
        <pt x="364" y="69" on="1"/>
        <pt x="353" y="51" on="1"/>
        <pt x="315" y="13" on="0"/>
        <pt x="250" y="-10" on="0"/>
        <pt x="214" y="-10" on="1"/>
        <pt x="175" y="-10" on="0"/>
        <pt x="113" y="12" on="0"/>
        <pt x="69" y="50" on="0"/>
        <pt x="46" y="102" on="0"/>
        <pt x="46" y="132" on="1"/>
        <pt x="46" y="170" on="0"/>
        <pt x="75" y="226" on="0"/>
        <pt x="140" y="266" on="0"/>
        <pt x="246" y="293" on="0"/>
        <pt x="323" y="302" on="1"/>
        <pt x="321" y="293" on="0"/>
        <pt x="314" y="269" on="0"/>
        <pt x="297" y="246" on="0"/>
        <pt x="271" y="228" on="0"/>
        <pt x="251" y="225" on="1"/>
        <pt x="218" y="220" on="0"/>
        <pt x="177" y="202" on="0"/>
        <pt x="153" y="179" on="0"/>
        <pt x="145" y="152" on="0"/>
        <pt x="145" y="138" on="1"/>
        <pt x="145" y="107" on="0"/>
        <pt x="189" y="62" on="0"/>
        <pt x="227" y="62" on="1"/>
        <pt x="261" y="62" on="0"/>
        <pt x="330" y="96" on="0"/>
        <pt x="359" y="134" on="1"/>
        <pt x="359" y="321" on="1"/>
        <pt x="359" y="380" on="0"/>
        <pt x="301" y="455" on="0"/>
        <pt x="233" y="455" on="1"/>
        <pt x="206" y="455" on="0"/>
        <pt x="153" y="444" on="0"/>
        <pt x="117" y="431" on="1"/>
        <pt x="94" y="493" on="1"/>
        <pt x="143" y="514" on="0"/>
        <pt x="218" y="527" on="0"/>
        <pt x="251" y="527" on="1"/>
        <pt x="348" y="527" on="0"/>
        <pt x="453" y="416" on="0"/>
        <pt x="453" y="314" on="1"/>
      </contour>
    </TTGlyph>
    <TTGlyph name="ae" xMin="46" yMin="-10" xMax="794" yMax="527">
      <contour>
        <pt x="700" y="317" on="1"/>
        <pt x="703" y="346" on="0"/>
        <pt x="689" y="396" on="0"/>
        <pt x="660" y="434" on="0"/>
        <pt x="618" y="455" on="0"/>
        <pt x="594" y="455" on="1"/>
        <pt x="531" y="455" on="0"/>
        <pt x="452" y="355" on="0"/>
        <pt x="452" y="262" on="1"/>
        <pt x="452" y="217" on="0"/>
        <pt x="476" y="144" on="0"/>
        <pt x="519" y="91" on="0"/>
        <pt x="577" y="62" on="0"/>
        <pt x="611" y="62" on="1"/>
        <pt x="646" y="62" on="0"/>
        <pt x="707" y="76" on="0"/>
        <pt x="750" y="98" on="1"/>
        <pt x="775" y="32" on="1"/>
        <pt x="727" y="7" on="0"/>
        <pt x="637" y="-10" on="0"/>
        <pt x="601" y="-10" on="1"/>
        <pt x="570" y="-10" on="0"/>
        <pt x="510" y="12" on="0"/>
        <pt x="458" y="50" on="0"/>
        <pt x="419" y="101" on="0"/>
        <pt x="409" y="131" on="1"/>
        <pt x="389" y="66" on="0"/>
        <pt x="284" y="-10" on="0"/>
        <pt x="214" y="-10" on="1"/>
        <pt x="175" y="-10" on="0"/>
        <pt x="113" y="12" on="0"/>
        <pt x="69" y="50" on="0"/>
        <pt x="46" y="102" on="0"/>
        <pt x="46" y="132" on="1"/>
        <pt x="46" y="170" on="0"/>
        <pt x="75" y="226" on="0"/>
        <pt x="140" y="266" on="0"/>
        <pt x="246" y="293" on="0"/>
        <pt x="323" y="302" on="1"/>
        <pt x="321" y="293" on="0"/>
        <pt x="314" y="269" on="0"/>
        <pt x="297" y="246" on="0"/>
        <pt x="271" y="228" on="0"/>
        <pt x="251" y="225" on="1"/>
        <pt x="218" y="220" on="0"/>
        <pt x="177" y="202" on="0"/>
        <pt x="153" y="179" on="0"/>
        <pt x="145" y="152" on="0"/>
        <pt x="145" y="138" on="1"/>
        <pt x="145" y="107" on="0"/>
        <pt x="189" y="62" on="0"/>
        <pt x="227" y="62" on="1"/>
        <pt x="290" y="62" on="0"/>
        <pt x="359" y="165" on="0"/>
        <pt x="359" y="262" on="1"/>
        <pt x="359" y="321" on="1"/>
        <pt x="359" y="380" on="0"/>
        <pt x="301" y="455" on="0"/>
        <pt x="233" y="455" on="1"/>
        <pt x="206" y="455" on="0"/>
        <pt x="153" y="444" on="0"/>
        <pt x="117" y="431" on="1"/>
        <pt x="94" y="493" on="1"/>
        <pt x="143" y="514" on="0"/>
        <pt x="218" y="527" on="0"/>
        <pt x="251" y="527" on="1"/>
        <pt x="309" y="527" on="0"/>
        <pt x="396" y="467" on="0"/>
        <pt x="416" y="419" on="1"/>
        <pt x="428" y="442" on="0"/>
        <pt x="468" y="482" on="0"/>
        <pt x="517" y="511" on="0"/>
        <pt x="574" y="527" on="0"/>
        <pt x="604" y="527" on="1"/>
        <pt x="655" y="527" on="0"/>
        <pt x="735" y="481" on="0"/>
        <pt x="783" y="404" on="0"/>
        <pt x="794" y="304" on="0"/>
        <pt x="778" y="250" on="1"/>
        <pt x="488" y="250" on="1"/>
        <pt x="499" y="279" on="0"/>
        <pt x="537" y="317" on="0"/>
        <pt x="573" y="317" on="1"/>
      </contour>
    </TTGlyph>
    <TTGlyph name="agrave" xMin="46" yMin="-10" xMax="469" yMax="740">
      <contour>
        <pt x="126" y="740" on="1"/>
        <pt x="221" y="740" on="1"/>
        <pt x="294" y="602" on="1"/>
        <pt x="268" y="596" on="0"/>
        <pt x="217" y="607" on="0"/>
        <pt x="198" y="631" on="1"/>
      </contour>
      <contour>
        <pt x="453" y="171" on="1"/>
        <pt x="453" y="111" on="0"/>
        <pt x="462" y="26" on="0"/>
        <pt x="469" y="0" on="1"/>
        <pt x="401" y="0" on="1"/>
        <pt x="387" y="8" on="0"/>
        <pt x="371" y="35" on="0"/>
        <pt x="365" y="51" on="1"/>
        <pt x="364" y="69" on="1"/>
        <pt x="353" y="51" on="1"/>
        <pt x="315" y="13" on="0"/>
        <pt x="250" y="-10" on="0"/>
        <pt x="214" y="-10" on="1"/>
        <pt x="175" y="-10" on="0"/>
        <pt x="113" y="12" on="0"/>
        <pt x="69" y="50" on="0"/>
        <pt x="46" y="102" on="0"/>
        <pt x="46" y="132" on="1"/>
        <pt x="46" y="170" on="0"/>
        <pt x="75" y="226" on="0"/>
        <pt x="140" y="266" on="0"/>
        <pt x="246" y="293" on="0"/>
        <pt x="323" y="302" on="1"/>
        <pt x="321" y="293" on="0"/>
        <pt x="314" y="269" on="0"/>
        <pt x="297" y="246" on="0"/>
        <pt x="271" y="228" on="0"/>
        <pt x="251" y="225" on="1"/>
        <pt x="218" y="220" on="0"/>
        <pt x="177" y="202" on="0"/>
        <pt x="153" y="179" on="0"/>
        <pt x="145" y="152" on="0"/>
        <pt x="145" y="138" on="1"/>
        <pt x="145" y="107" on="0"/>
        <pt x="189" y="62" on="0"/>
        <pt x="227" y="62" on="1"/>
        <pt x="261" y="62" on="0"/>
        <pt x="330" y="96" on="0"/>
        <pt x="359" y="134" on="1"/>
        <pt x="359" y="321" on="1"/>
        <pt x="359" y="380" on="0"/>
        <pt x="301" y="455" on="0"/>
        <pt x="233" y="455" on="1"/>
        <pt x="206" y="455" on="0"/>
        <pt x="153" y="444" on="0"/>
        <pt x="117" y="431" on="1"/>
        <pt x="94" y="493" on="1"/>
        <pt x="143" y="514" on="0"/>
        <pt x="218" y="527" on="0"/>
        <pt x="251" y="527" on="1"/>
        <pt x="348" y="527" on="0"/>
        <pt x="453" y="416" on="0"/>
        <pt x="453" y="314" on="1"/>
      </contour>
    </TTGlyph>
    <TTGlyph name="ampersand" xMin="123" yMin="-11" xMax="712" yMax="737">
      <contour>
        <pt x="397" y="70" on="1"/>
        <pt x="461" y="91" on="0"/>
        <pt x="507" y="51" on="1"/>
        <pt x="472" y="22" on="0"/>
        <pt x="390" y="-11" on="0"/>
        <pt x="335" y="-11" on="1"/>
        <pt x="284" y="-11" on="0"/>
        <pt x="205" y="27" on="0"/>
        <pt x="151" y="88" on="0"/>
        <pt x="123" y="167" on="0"/>
        <pt x="123" y="209" on="1"/>
        <pt x="123" y="243" on="0"/>
        <pt x="143" y="303" on="0"/>
        <pt x="176" y="354" on="0"/>
        <pt x="220" y="398" on="0"/>
        <pt x="244" y="416" on="1"/>
        <pt x="218" y="454" on="0"/>
        <pt x="190" y="527" on="0"/>
        <pt x="190" y="562" on="1"/>
        <pt x="190" y="599" on="0"/>
        <pt x="216" y="663" on="0"/>
        <pt x="266" y="710" on="0"/>
        <pt x="338" y="737" on="0"/>
        <pt x="384" y="737" on="1"/>
        <pt x="417" y="737" on="0"/>
        <pt x="494" y="720" on="0"/>
        <pt x="527" y="703" on="1"/>
        <pt x="503" y="640" on="1"/>
        <pt x="477" y="653" on="0"/>
        <pt x="409" y="665" on="0"/>
        <pt x="382" y="665" on="1"/>
        <pt x="335" y="665" on="0"/>
        <pt x="275" y="612" on="0"/>
        <pt x="275" y="571" on="1"/>
        <pt x="275" y="548" on="0"/>
        <pt x="288" y="509" on="0"/>
        <pt x="311" y="470" on="0"/>
        <pt x="344" y="429" on="0"/>
        <pt x="365" y="404" on="1"/>
        <pt x="536" y="205" on="1"/>
        <pt x="561" y="249" on="0"/>
        <pt x="589" y="330" on="0"/>
        <pt x="597" y="379" on="1"/>
        <pt x="669" y="379" on="1"/>
        <pt x="655" y="313" on="0"/>
        <pt x="617" y="197" on="0"/>
        <pt x="586" y="146" on="1"/>
        <pt x="712" y="0" on="1"/>
        <pt x="594" y="0" on="1"/>
        <pt x="289" y="358" on="1"/>
        <pt x="259" y="332" on="0"/>
        <pt x="220" y="267" on="0"/>
        <pt x="220" y="222" on="1"/>
        <pt x="220" y="150" on="0"/>
        <pt x="287" y="61" on="0"/>
        <pt x="350" y="61" on="1"/>
        <pt x="361" y="61" on="0"/>
        <pt x="383" y="65" on="0"/>
      </contour>
    </TTGlyph>
    <TTGlyph name="aring" xMin="46" yMin="-10" xMax="469" yMax="747">
      <contour>
        <pt x="453" y="171" on="1"/>
        <pt x="453" y="111" on="0"/>
        <pt x="462" y="26" on="0"/>
        <pt x="469" y="0" on="1"/>
        <pt x="401" y="0" on="1"/>
        <pt x="387" y="8" on="0"/>
        <pt x="371" y="35" on="0"/>
        <pt x="365" y="51" on="1"/>
        <pt x="364" y="69" on="1"/>
        <pt x="353" y="51" on="1"/>
        <pt x="315" y="13" on="0"/>
        <pt x="250" y="-10" on="0"/>
        <pt x="214" y="-10" on="1"/>
        <pt x="175" y="-10" on="0"/>
        <pt x="113" y="12" on="0"/>
        <pt x="69" y="50" on="0"/>
        <pt x="46" y="102" on="0"/>
        <pt x="46" y="132" on="1"/>
        <pt x="46" y="170" on="0"/>
        <pt x="75" y="226" on="0"/>
        <pt x="140" y="266" on="0"/>
        <pt x="246" y="293" on="0"/>
        <pt x="323" y="302" on="1"/>
        <pt x="321" y="293" on="0"/>
        <pt x="314" y="269" on="0"/>
        <pt x="297" y="246" on="0"/>
        <pt x="271" y="228" on="0"/>
        <pt x="251" y="225" on="1"/>
        <pt x="218" y="220" on="0"/>
        <pt x="177" y="202" on="0"/>
        <pt x="153" y="179" on="0"/>
        <pt x="145" y="152" on="0"/>
        <pt x="145" y="138" on="1"/>
        <pt x="145" y="107" on="0"/>
        <pt x="189" y="62" on="0"/>
        <pt x="227" y="62" on="1"/>
        <pt x="261" y="62" on="0"/>
        <pt x="330" y="96" on="0"/>
        <pt x="359" y="134" on="1"/>
        <pt x="359" y="321" on="1"/>
        <pt x="359" y="380" on="0"/>
        <pt x="301" y="455" on="0"/>
        <pt x="233" y="455" on="1"/>
        <pt x="206" y="455" on="0"/>
        <pt x="153" y="444" on="0"/>
        <pt x="117" y="431" on="1"/>
        <pt x="94" y="493" on="1"/>
        <pt x="143" y="514" on="0"/>
        <pt x="218" y="527" on="0"/>
        <pt x="251" y="527" on="1"/>
        <pt x="348" y="527" on="0"/>
        <pt x="453" y="416" on="0"/>
        <pt x="453" y="314" on="1"/>
      </contour>
      <contour>
        <pt x="267" y="571" on="1"/>
        <pt x="223" y="571" on="0"/>
        <pt x="169" y="620" on="0"/>
        <pt x="169" y="657" on="1"/>
        <pt x="169" y="696" on="0"/>
        <pt x="224" y="747" on="0"/>
        <pt x="268" y="747" on="1"/>
        <pt x="313" y="747" on="0"/>
        <pt x="365" y="697" on="0"/>
        <pt x="365" y="658" on="1"/>
        <pt x="365" y="620" on="0"/>
        <pt x="309" y="571" on="0"/>
      </contour>
      <contour>
        <pt x="267" y="608" on="1"/>
        <pt x="290" y="608" on="0"/>
        <pt x="317" y="637" on="0"/>
        <pt x="317" y="659" on="1"/>
        <pt x="317" y="681" on="0"/>
        <pt x="290" y="710" on="0"/>
        <pt x="267" y="710" on="1"/>
        <pt x="246" y="710" on="0"/>
        <pt x="219" y="680" on="0"/>
        <pt x="219" y="657" on="1"/>
        <pt x="219" y="638" on="0"/>
        <pt x="245" y="608" on="0"/>
      </contour>
    </TTGlyph>
    <TTGlyph name="asciicircum" xMin="84" yMin="210" xMax="547" yMax="727">
      <contour>
        <pt x="163" y="210" on="1"/>
        <pt x="84" y="210" on="1"/>
        <pt x="290" y="727" on="1"/>
        <pt x="341" y="727" on="1"/>
        <pt x="547" y="210" on="1"/>
        <pt x="470" y="210" on="1"/>
        <pt x="322" y="580" on="1"/>
        <pt x="316" y="606" on="1"/>
        <pt x="310" y="580" on="1"/>
      </contour>
    </TTGlyph>
    <TTGlyph name="asciitilde" xMin="63" yMin="228" xMax="569" yMax="384">
      <contour>
        <pt x="63" y="236" on="1"/>
        <pt x="66" y="311" on="0"/>
        <pt x="148" y="381" on="0"/>
        <pt x="213" y="382" on="1"/>
        <pt x="245" y="382" on="0"/>
        <pt x="304" y="357" on="0"/>
        <pt x="327" y="340" on="1"/>
        <pt x="350" y="323" on="0"/>
        <pt x="400" y="298" on="0"/>
        <pt x="434" y="298" on="1"/>
        <pt x="458" y="298" on="0"/>
        <pt x="485" y="346" on="0"/>
        <pt x="488" y="384" on="1"/>
        <pt x="569" y="376" on="1"/>
        <pt x="566" y="334" on="0"/>
        <pt x="543" y="278" on="0"/>
        <pt x="504" y="244" on="0"/>
        <pt x="453" y="230" on="0"/>
        <pt x="423" y="230" on="1"/>
        <pt x="389" y="229" on="0"/>
        <pt x="329" y="255" on="0"/>
        <pt x="306" y="272" on="1"/>
        <pt x="281" y="289" on="0"/>
        <pt x="235" y="314" on="0"/>
        <pt x="204" y="314" on="1"/>
        <pt x="180" y="313" on="0"/>
        <pt x="146" y="270" on="0"/>
        <pt x="143" y="228" on="1"/>
      </contour>
    </TTGlyph>
    <TTGlyph name="asterisk" xMin="51" yMin="354" xMax="450" yMax="737">
      <contour>
        <pt x="319" y="737" on="1"/>
        <pt x="385" y="699" on="1"/>
        <pt x="353" y="658" on="0"/>
        <pt x="316" y="607" on="0"/>
        <pt x="296" y="578" on="0"/>
        <pt x="289" y="568" on="0"/>
        <pt x="289" y="568" on="1"/>
        <pt x="450" y="584" on="1"/>
        <pt x="450" y="508" on="1"/>
        <pt x="389" y="515" on="0"/>
        <pt x="323" y="521" on="0"/>
        <pt x="292" y="523" on="0"/>
        <pt x="287" y="523" on="0"/>
        <pt x="288" y="523" on="1"/>
        <pt x="383" y="392" on="1"/>
        <pt x="317" y="354" on="1"/>
        <pt x="251" y="502" on="1"/>
        <pt x="184" y="354" on="1"/>
        <pt x="118" y="392" on="1"/>
        <pt x="212" y="524" on="1"/>
        <pt x="51" y="508" on="1"/>
        <pt x="51" y="584" on="1"/>
        <pt x="213" y="569" on="1"/>
        <pt x="116" y="699" on="1"/>
        <pt x="182" y="737" on="1"/>
        <pt x="251" y="590" on="1"/>
      </contour>
    </TTGlyph>
    <TTGlyph name="at" xMin="85" yMin="-122" xMax="817" yMax="638">
      <contour>
        <pt x="619" y="116" on="1"/>
        <pt x="622" y="118" on="0"/>
        <pt x="631" y="126" on="0"/>
        <pt x="634" y="128" on="1"/>
        <pt x="694" y="166" on="0"/>
        <pt x="743" y="255" on="0"/>
        <pt x="743" y="313" on="1"/>
        <pt x="743" y="376" on="0"/>
        <pt x="703" y="475" on="0"/>
        <pt x="630" y="543" on="0"/>
        <pt x="525" y="579" on="0"/>
        <pt x="461" y="579" on="1"/>
        <pt x="397" y="579" on="0"/>
        <pt x="287" y="539" on="0"/>
        <pt x="206" y="459" on="0"/>
        <pt x="160" y="338" on="0"/>
        <pt x="160" y="257" on="1"/>
        <pt x="160" y="176" on="0"/>
        <pt x="206" y="56" on="0"/>
        <pt x="284" y="-23" on="0"/>
        <pt x="388" y="-63" on="0"/>
        <pt x="447" y="-63" on="1"/>
        <pt x="469" y="-63" on="0"/>
        <pt x="510" y="-61" on="0"/>
        <pt x="553" y="-54" on="0"/>
        <pt x="603" y="-42" on="0"/>
        <pt x="634" y="-32" on="1"/>
        <pt x="655" y="-87" on="1"/>
        <pt x="619" y="-98" on="0"/>
        <pt x="564" y="-112" on="0"/>
        <pt x="516" y="-119" on="0"/>
        <pt x="472" y="-122" on="0"/>
        <pt x="447" y="-122" on="1"/>
        <pt x="370" y="-122" on="0"/>
        <pt x="238" y="-79" on="0"/>
        <pt x="141" y="13" on="0"/>
        <pt x="85" y="156" on="0"/>
        <pt x="85" y="257" on="1"/>
        <pt x="85" y="350" on="0"/>
        <pt x="146" y="493" on="0"/>
        <pt x="249" y="589" on="0"/>
        <pt x="386" y="638" on="0"/>
        <pt x="462" y="638" on="1"/>
        <pt x="539" y="638" on="0"/>
        <pt x="669" y="594" on="0"/>
        <pt x="764" y="511" on="0"/>
        <pt x="817" y="390" on="0"/>
        <pt x="817" y="313" on="1"/>
        <pt x="817" y="259" on="0"/>
        <pt x="783" y="173" on="0"/>
        <pt x="720" y="108" on="0"/>
        <pt x="632" y="66" on="0"/>
        <pt x="578" y="56" on="1"/>
        <pt x="567" y="62" on="0"/>
        <pt x="556" y="80" on="0"/>
        <pt x="551" y="93" on="1"/>
        <pt x="549" y="112" on="1"/>
        <pt x="539" y="92" on="1"/>
        <pt x="510" y="63" on="0"/>
        <pt x="457" y="47" on="0"/>
        <pt x="430" y="47" on="1"/>
        <pt x="366" y="47" on="0"/>
        <pt x="294" y="108" on="0"/>
        <pt x="294" y="158" on="1"/>
        <pt x="294" y="219" on="0"/>
        <pt x="393" y="277" on="0"/>
        <pt x="505" y="289" on="1"/>
        <pt x="504" y="282" on="0"/>
        <pt x="498" y="262" on="0"/>
        <pt x="485" y="242" on="0"/>
        <pt x="464" y="227" on="0"/>
        <pt x="449" y="225" on="1"/>
        <pt x="404" y="219" on="0"/>
        <pt x="368" y="185" on="0"/>
        <pt x="368" y="162" on="1"/>
        <pt x="368" y="137" on="0"/>
        <pt x="408" y="106" on="0"/>
        <pt x="440" y="106" on="1"/>
        <pt x="466" y="106" on="0"/>
        <pt x="523" y="129" on="0"/>
        <pt x="546" y="160" on="1"/>
        <pt x="546" y="306" on="1"/>
        <pt x="546" y="352" on="0"/>
        <pt x="502" y="408" on="0"/>
        <pt x="448" y="408" on="1"/>
        <pt x="427" y="408" on="0"/>
        <pt x="377" y="399" on="0"/>
        <pt x="351" y="388" on="1"/>
        <pt x="331" y="439" on="1"/>
        <pt x="369" y="455" on="0"/>
        <pt x="430" y="466" on="0"/>
        <pt x="462" y="466" on="1"/>
        <pt x="537" y="466" on="0"/>
        <pt x="619" y="379" on="0"/>
        <pt x="619" y="301" on="1"/>
        <pt x="619" y="187" on="1"/>
        <pt x="619" y="175" on="0"/>
        <pt x="619" y="151" on="0"/>
        <pt x="620" y="140" on="1"/>
      </contour>
    </TTGlyph>
    <TTGlyph name="atilde" xMin="46" yMin="-10" xMax="469" yMax="734">
      <contour>
        <pt x="453" y="171" on="1"/>
        <pt x="453" y="111" on="0"/>
        <pt x="462" y="26" on="0"/>
        <pt x="469" y="0" on="1"/>
        <pt x="401" y="0" on="1"/>
        <pt x="387" y="8" on="0"/>
        <pt x="371" y="35" on="0"/>
        <pt x="365" y="51" on="1"/>
        <pt x="364" y="69" on="1"/>
        <pt x="353" y="51" on="1"/>
        <pt x="315" y="13" on="0"/>
        <pt x="250" y="-10" on="0"/>
        <pt x="214" y="-10" on="1"/>
        <pt x="175" y="-10" on="0"/>
        <pt x="113" y="12" on="0"/>
        <pt x="69" y="50" on="0"/>
        <pt x="46" y="102" on="0"/>
        <pt x="46" y="132" on="1"/>
        <pt x="46" y="170" on="0"/>
        <pt x="75" y="226" on="0"/>
        <pt x="140" y="266" on="0"/>
        <pt x="246" y="293" on="0"/>
        <pt x="323" y="302" on="1"/>
        <pt x="321" y="293" on="0"/>
        <pt x="314" y="269" on="0"/>
        <pt x="297" y="246" on="0"/>
        <pt x="271" y="228" on="0"/>
        <pt x="251" y="225" on="1"/>
        <pt x="218" y="220" on="0"/>
        <pt x="177" y="202" on="0"/>
        <pt x="153" y="179" on="0"/>
        <pt x="145" y="152" on="0"/>
        <pt x="145" y="138" on="1"/>
        <pt x="145" y="107" on="0"/>
        <pt x="189" y="62" on="0"/>
        <pt x="227" y="62" on="1"/>
        <pt x="261" y="62" on="0"/>
        <pt x="330" y="96" on="0"/>
        <pt x="359" y="134" on="1"/>
        <pt x="359" y="321" on="1"/>
        <pt x="359" y="380" on="0"/>
        <pt x="301" y="455" on="0"/>
        <pt x="233" y="455" on="1"/>
        <pt x="206" y="455" on="0"/>
        <pt x="153" y="444" on="0"/>
        <pt x="117" y="431" on="1"/>
        <pt x="94" y="493" on="1"/>
        <pt x="143" y="514" on="0"/>
        <pt x="218" y="527" on="0"/>
        <pt x="251" y="527" on="1"/>
        <pt x="348" y="527" on="0"/>
        <pt x="453" y="416" on="0"/>
        <pt x="453" y="314" on="1"/>
      </contour>
      <contour>
        <pt x="120" y="624" on="1"/>
        <pt x="122" y="681" on="0"/>
        <pt x="173" y="731" on="0"/>
        <pt x="209" y="732" on="1"/>
        <pt x="246" y="732" on="0"/>
        <pt x="273" y="708" on="1"/>
        <pt x="287" y="696" on="0"/>
        <pt x="307" y="676" on="0"/>
        <pt x="327" y="676" on="1"/>
        <pt x="353" y="676" on="0"/>
        <pt x="358" y="734" on="1"/>
        <pt x="411" y="728" on="1"/>
        <pt x="409" y="696" on="0"/>
        <pt x="394" y="655" on="0"/>
        <pt x="370" y="630" on="0"/>
        <pt x="341" y="620" on="0"/>
        <pt x="327" y="620" on="1"/>
        <pt x="286" y="620" on="0"/>
        <pt x="262" y="643" on="1"/>
        <pt x="248" y="655" on="0"/>
        <pt x="227" y="676" on="0"/>
        <pt x="210" y="676" on="1"/>
        <pt x="197" y="676" on="0"/>
        <pt x="177" y="650" on="0"/>
        <pt x="175" y="618" on="1"/>
      </contour>
    </TTGlyph>
    <TTGlyph name="b" xMin="83" yMin="-10" xMax="529" yMax="758">
      <contour>
        <pt x="210" y="496" on="1"/>
        <pt x="236" y="509" on="0"/>
        <pt x="295" y="523" on="0"/>
        <pt x="318" y="523" on="1"/>
        <pt x="359" y="523" on="0"/>
        <pt x="435" y="490" on="0"/>
        <pt x="494" y="424" on="0"/>
        <pt x="529" y="326" on="0"/>
        <pt x="529" y="261" on="1"/>
        <pt x="529" y="201" on="0"/>
        <pt x="492" y="102" on="0"/>
        <pt x="426" y="30" on="0"/>
        <pt x="333" y="-10" on="0"/>
        <pt x="277" y="-10" on="1"/>
        <pt x="169" y="-10" on="0"/>
        <pt x="83" y="40" on="1"/>
        <pt x="83" y="758" on="1"/>
        <pt x="176" y="758" on="1"/>
        <pt x="176" y="78" on="1"/>
        <pt x="200" y="69" on="0"/>
        <pt x="254" y="62" on="0"/>
        <pt x="277" y="62" on="1"/>
        <pt x="313" y="62" on="0"/>
        <pt x="370" y="91" on="0"/>
        <pt x="410" y="143" on="0"/>
        <pt x="431" y="217" on="0"/>
        <pt x="431" y="261" on="1"/>
        <pt x="431" y="361" on="0"/>
        <pt x="352" y="455" on="0"/>
        <pt x="287" y="451" on="1"/>
        <pt x="242" y="448" on="0"/>
      </contour>
    </TTGlyph>
    <TTGlyph name="backslash" xMin="25" yMin="-62" xMax="357" yMax="727">
      <contour>
        <pt x="268" y="-62" on="1"/>
        <pt x="25" y="727" on="1"/>
        <pt x="114" y="727" on="1"/>
        <pt x="357" y="-62" on="1"/>
      </contour>
    </TTGlyph>
    <TTGlyph name="bar" xMin="115" yMin="-293" xMax="195" yMax="811">
      <contour>
        <pt x="115" y="-293" on="1"/>
        <pt x="115" y="811" on="1"/>
        <pt x="195" y="811" on="1"/>
        <pt x="195" y="-293" on="1"/>
      </contour>
    </TTGlyph>
    <TTGlyph name="braceleft" xMin="82" yMin="-176" xMax="400" yMax="767">
      <contour>
        <pt x="179" y="192" on="1"/>
        <pt x="177" y="227" on="0"/>
        <pt x="120" y="268" on="0"/>
        <pt x="82" y="275" on="1"/>
        <pt x="82" y="332" on="1"/>
        <pt x="120" y="339" on="0"/>
        <pt x="179" y="380" on="0"/>
        <pt x="181" y="415" on="1"/>
        <pt x="186" y="476" on="0"/>
        <pt x="208" y="578" on="0"/>
        <pt x="250" y="664" on="0"/>
        <pt x="314" y="736" on="0"/>
        <pt x="360" y="767" on="1"/>
        <pt x="400" y="717" on="1"/>
        <pt x="363" y="688" on="0"/>
        <pt x="313" y="627" on="0"/>
        <pt x="281" y="560" on="0"/>
        <pt x="264" y="484" on="0"/>
        <pt x="261" y="439" on="1"/>
        <pt x="258" y="397" on="0"/>
        <pt x="218" y="335" on="0"/>
        <pt x="186" y="314" on="1"/>
        <pt x="161" y="303" on="1"/>
        <pt x="187" y="291" on="1"/>
        <pt x="219" y="270" on="0"/>
        <pt x="259" y="209" on="0"/>
        <pt x="261" y="168" on="1"/>
        <pt x="264" y="120" on="0"/>
        <pt x="279" y="38" on="0"/>
        <pt x="311" y="-32" on="0"/>
        <pt x="362" y="-96" on="0"/>
        <pt x="400" y="-126" on="1"/>
        <pt x="360" y="-176" on="1"/>
        <pt x="312" y="-143" on="0"/>
        <pt x="247" y="-70" on="0"/>
        <pt x="205" y="18" on="0"/>
        <pt x="183" y="126" on="0"/>
      </contour>
    </TTGlyph>
    <TTGlyph name="braceright" xMin="82" yMin="-176" xMax="400" yMax="767">
      <contour>
        <pt x="303" y="192" on="1"/>
        <pt x="299" y="126" on="0"/>
        <pt x="278" y="18" on="0"/>
        <pt x="236" y="-70" on="0"/>
        <pt x="170" y="-143" on="0"/>
        <pt x="122" y="-176" on="1"/>
        <pt x="82" y="-126" on="1"/>
        <pt x="120" y="-96" on="0"/>
        <pt x="171" y="-32" on="0"/>
        <pt x="202" y="38" on="0"/>
        <pt x="218" y="120" on="0"/>
        <pt x="221" y="168" on="1"/>
        <pt x="224" y="210" on="0"/>
        <pt x="265" y="272" on="0"/>
        <pt x="297" y="293" on="1"/>
        <pt x="321" y="303" on="1"/>
        <pt x="296" y="314" on="1"/>
        <pt x="264" y="335" on="0"/>
        <pt x="224" y="397" on="0"/>
        <pt x="221" y="439" on="1"/>
        <pt x="218" y="484" on="0"/>
        <pt x="201" y="560" on="0"/>
        <pt x="169" y="627" on="0"/>
        <pt x="119" y="688" on="0"/>
        <pt x="82" y="717" on="1"/>
        <pt x="122" y="767" on="1"/>
        <pt x="168" y="736" on="0"/>
        <pt x="232" y="664" on="0"/>
        <pt x="274" y="578" on="0"/>
        <pt x="296" y="476" on="0"/>
        <pt x="301" y="415" on="1"/>
        <pt x="303" y="380" on="0"/>
        <pt x="362" y="339" on="0"/>
        <pt x="400" y="332" on="1"/>
        <pt x="400" y="275" on="1"/>
        <pt x="362" y="268" on="0"/>
        <pt x="305" y="227" on="0"/>
      </contour>
    </TTGlyph>
    <TTGlyph name="bracketleft" xMin="145" yMin="-199" xMax="403" yMax="771">
      <contour>
        <pt x="145" y="771" on="1"/>
        <pt x="402" y="771" on="1"/>
        <pt x="402" y="699" on="1"/>
        <pt x="231" y="699" on="1"/>
        <pt x="231" y="-127" on="1"/>
        <pt x="403" y="-127" on="1"/>
        <pt x="402" y="-199" on="1"/>
        <pt x="145" y="-199" on="1"/>
      </contour>
    </TTGlyph>
    <TTGlyph name="bracketright" xMin="53" yMin="-199" xMax="310" yMax="771">
      <contour>
        <pt x="310" y="-199" on="1"/>
        <pt x="54" y="-199" on="1"/>
        <pt x="53" y="-127" on="1"/>
        <pt x="225" y="-127" on="1"/>
        <pt x="225" y="699" on="1"/>
        <pt x="54" y="699" on="1"/>
        <pt x="54" y="771" on="1"/>
        <pt x="310" y="771" on="1"/>
      </contour>
    </TTGlyph>
    <TTGlyph name="brokenbar" xMin="91" yMin="-293" xMax="171" yMax="811">
      <contour>
        <pt x="91" y="387" on="1"/>
        <pt x="91" y="811" on="1"/>
        <pt x="171" y="811" on="1"/>
        <pt x="171" y="387" on="1"/>
      </contour>
      <contour>
        <pt x="91" y="-293" on="1"/>
        <pt x="91" y="141" on="1"/>
        <pt x="171" y="141" on="1"/>
        <pt x="171" y="-293" on="1"/>
      </contour>
    </TTGlyph>
    <TTGlyph name="bullet" xMin="183" yMin="241" xMax="333" yMax="391">
      <contour>
        <pt x="183" y="315" on="1"/>
        <pt x="183" y="347" on="0"/>
        <pt x="225" y="391" on="0"/>
        <pt x="257" y="391" on="1"/>
        <pt x="289" y="391" on="0"/>
        <pt x="333" y="347" on="0"/>
        <pt x="333" y="315" on="1"/>
        <pt x="333" y="283" on="0"/>
        <pt x="289" y="241" on="0"/>
        <pt x="257" y="241" on="1"/>
        <pt x="225" y="241" on="0"/>
        <pt x="183" y="283" on="0"/>
      </contour>
    </TTGlyph>
    <TTGlyph name="c" xMin="42" yMin="-10" xMax="418" yMax="527">
      <contour>
        <pt x="283" y="-10" on="1"/>
        <pt x="233" y="-10" on="0"/>
        <pt x="145" y="25" on="0"/>
        <pt x="80" y="93" on="0"/>
        <pt x="42" y="194" on="0"/>
        <pt x="42" y="259" on="1"/>
        <pt x="42" y="324" on="0"/>
        <pt x="81" y="424" on="0"/>
        <pt x="147" y="492" on="0"/>
        <pt x="235" y="527" on="0"/>
        <pt x="283" y="527" on="1"/>
        <pt x="310" y="527" on="0"/>
        <pt x="375" y="517" on="0"/>
        <pt x="405" y="506" on="1"/>
        <pt x="382" y="441" on="1"/>
        <pt x="353" y="449" on="0"/>
        <pt x="306" y="455" on="0"/>
        <pt x="283" y="455" on="1"/>
        <pt x="254" y="455" on="0"/>
        <pt x="203" y="431" on="0"/>
        <pt x="164" y="383" on="0"/>
        <pt x="141" y="309" on="0"/>
        <pt x="141" y="259" on="1"/>
        <pt x="141" y="208" on="0"/>
        <pt x="164" y="134" on="0"/>
        <pt x="203" y="86" on="0"/>
        <pt x="254" y="62" on="0"/>
        <pt x="283" y="62" on="1"/>
        <pt x="305" y="62" on="0"/>
        <pt x="358" y="75" on="0"/>
        <pt x="393" y="91" on="1"/>
        <pt x="418" y="25" on="1"/>
        <pt x="377" y="5" on="0"/>
        <pt x="306" y="-10" on="0"/>
      </contour>
    </TTGlyph>
    <TTGlyph name="ccedilla" xMin="42" yMin="-206" xMax="418" yMax="527">
      <contour>
        <pt x="278" y="-10" on="1"/>
        <pt x="268" y="-50" on="1"/>
        <pt x="282" y="-52" on="0"/>
        <pt x="311" y="-63" on="0"/>
        <pt x="334" y="-82" on="0"/>
        <pt x="348" y="-108" on="0"/>
        <pt x="348" y="-123" on="1"/>
        <pt x="348" y="-146" on="0"/>
        <pt x="328" y="-177" on="0"/>
        <pt x="295" y="-197" on="0"/>
        <pt x="254" y="-206" on="0"/>
        <pt x="234" y="-206" on="1"/>
        <pt x="217" y="-206" on="0"/>
        <pt x="179" y="-198" on="0"/>
        <pt x="155" y="-187" on="1"/>
        <pt x="169" y="-144" on="1"/>
        <pt x="188" y="-152" on="0"/>
        <pt x="219" y="-157" on="0"/>
        <pt x="234" y="-157" on="1"/>
        <pt x="251" y="-157" on="0"/>
        <pt x="287" y="-144" on="0"/>
        <pt x="287" y="-126" on="1"/>
        <pt x="287" y="-107" on="0"/>
        <pt x="247" y="-88" on="0"/>
        <pt x="212" y="-84" on="1"/>
        <pt x="233" y="-5" on="1"/>
        <pt x="192" y="2" on="0"/>
        <pt x="122" y="44" on="0"/>
        <pt x="71" y="111" on="0"/>
        <pt x="42" y="202" on="0"/>
        <pt x="42" y="259" on="1"/>
        <pt x="42" y="324" on="0"/>
        <pt x="81" y="424" on="0"/>
        <pt x="147" y="492" on="0"/>
        <pt x="235" y="527" on="0"/>
        <pt x="283" y="527" on="1"/>
        <pt x="310" y="527" on="0"/>
        <pt x="375" y="517" on="0"/>
        <pt x="405" y="506" on="1"/>
        <pt x="380" y="440" on="1"/>
        <pt x="353" y="448" on="0"/>
        <pt x="306" y="455" on="0"/>
        <pt x="283" y="455" on="1"/>
        <pt x="254" y="455" on="0"/>
        <pt x="203" y="431" on="0"/>
        <pt x="164" y="383" on="0"/>
        <pt x="141" y="309" on="0"/>
        <pt x="141" y="259" on="1"/>
        <pt x="141" y="208" on="0"/>
        <pt x="164" y="134" on="0"/>
        <pt x="203" y="86" on="0"/>
        <pt x="254" y="62" on="0"/>
        <pt x="283" y="62" on="1"/>
        <pt x="305" y="62" on="0"/>
        <pt x="358" y="75" on="0"/>
        <pt x="393" y="91" on="1"/>
        <pt x="418" y="25" on="1"/>
        <pt x="377" y="5" on="0"/>
        <pt x="306" y="-10" on="0"/>
        <pt x="283" y="-10" on="1"/>
      </contour>
    </TTGlyph>
    <TTGlyph name="cedilla" xMin="155" yMin="-206" xMax="348" yMax="2">
      <contour>
        <pt x="281" y="2" on="1"/>
        <pt x="268" y="-50" on="1"/>
        <pt x="282" y="-52" on="0"/>
        <pt x="311" y="-63" on="0"/>
        <pt x="334" y="-82" on="0"/>
        <pt x="348" y="-108" on="0"/>
        <pt x="348" y="-123" on="1"/>
        <pt x="348" y="-146" on="0"/>
        <pt x="328" y="-177" on="0"/>
        <pt x="295" y="-197" on="0"/>
        <pt x="254" y="-206" on="0"/>
        <pt x="234" y="-206" on="1"/>
        <pt x="217" y="-206" on="0"/>
        <pt x="179" y="-198" on="0"/>
        <pt x="155" y="-187" on="1"/>
        <pt x="169" y="-144" on="1"/>
        <pt x="188" y="-152" on="0"/>
        <pt x="219" y="-157" on="0"/>
        <pt x="234" y="-157" on="1"/>
        <pt x="251" y="-157" on="0"/>
        <pt x="287" y="-144" on="0"/>
        <pt x="287" y="-126" on="1"/>
        <pt x="287" y="-107" on="0"/>
        <pt x="247" y="-88" on="0"/>
        <pt x="212" y="-84" on="1"/>
        <pt x="234" y="-2" on="1"/>
      </contour>
    </TTGlyph>
    <TTGlyph name="cent" xMin="42" yMin="-14" xMax="418" yMax="716">
      <contour>
        <pt x="418" y="120" on="1"/>
        <pt x="389" y="105" on="0"/>
        <pt x="336" y="90" on="0"/>
        <pt x="314" y="87" on="1"/>
        <pt x="314" y="-14" on="1"/>
        <pt x="242" y="-14" on="1"/>
        <pt x="242" y="88" on="1"/>
        <pt x="199" y="94" on="0"/>
        <pt x="126" y="135" on="0"/>
        <pt x="72" y="203" on="0"/>
        <pt x="42" y="295" on="0"/>
        <pt x="42" y="354" on="1"/>
        <pt x="42" y="412" on="0"/>
        <pt x="73" y="504" on="0"/>
        <pt x="127" y="570" on="0"/>
        <pt x="200" y="611" on="0"/>
        <pt x="242" y="618" on="1"/>
        <pt x="242" y="716" on="1"/>
        <pt x="314" y="716" on="1"/>
        <pt x="314" y="621" on="1"/>
        <pt x="336" y="619" on="0"/>
        <pt x="383" y="609" on="0"/>
        <pt x="405" y="601" on="1"/>
        <pt x="380" y="535" on="1"/>
        <pt x="353" y="543" on="0"/>
        <pt x="306" y="550" on="0"/>
        <pt x="283" y="550" on="1"/>
        <pt x="254" y="550" on="0"/>
        <pt x="203" y="526" on="0"/>
        <pt x="164" y="478" on="0"/>
        <pt x="141" y="404" on="0"/>
        <pt x="141" y="354" on="1"/>
        <pt x="141" y="303" on="0"/>
        <pt x="164" y="229" on="0"/>
        <pt x="203" y="181" on="0"/>
        <pt x="254" y="157" on="0"/>
        <pt x="283" y="157" on="1"/>
        <pt x="305" y="157" on="0"/>
        <pt x="358" y="170" on="0"/>
        <pt x="393" y="186" on="1"/>
      </contour>
    </TTGlyph>
    <TTGlyph name="circumflex" xMin="144" yMin="589" xMax="421" yMax="743">
      <contour>
        <pt x="310" y="743" on="1"/>
        <pt x="421" y="598" on="1"/>
        <pt x="369" y="590" on="1"/>
        <pt x="281" y="674" on="1"/>
        <pt x="193" y="589" on="1"/>
        <pt x="144" y="598" on="1"/>
        <pt x="253" y="743" on="1"/>
      </contour>
    </TTGlyph>
    <TTGlyph name="colon" xMin="93" yMin="-15" xMax="213" yMax="486">
      <contour>
        <pt x="93" y="44" on="1"/>
        <pt x="93" y="70" on="0"/>
        <pt x="126" y="105" on="0"/>
        <pt x="152" y="105" on="1"/>
        <pt x="178" y="105" on="0"/>
        <pt x="213" y="70" on="0"/>
        <pt x="213" y="44" on="1"/>
        <pt x="213" y="18" on="0"/>
        <pt x="178" y="-15" on="0"/>
        <pt x="152" y="-15" on="1"/>
        <pt x="126" y="-15" on="0"/>
        <pt x="93" y="18" on="0"/>
      </contour>
      <contour>
        <pt x="93" y="425" on="1"/>
        <pt x="93" y="451" on="0"/>
        <pt x="126" y="486" on="0"/>
        <pt x="152" y="486" on="1"/>
        <pt x="178" y="486" on="0"/>
        <pt x="213" y="451" on="0"/>
        <pt x="213" y="425" on="1"/>
        <pt x="213" y="399" on="0"/>
        <pt x="178" y="366" on="0"/>
        <pt x="152" y="366" on="1"/>
        <pt x="126" y="366" on="0"/>
        <pt x="93" y="399" on="0"/>
      </contour>
    </TTGlyph>
    <TTGlyph name="comma" xMin="56" yMin="-104" xMax="143" yMax="98">
      <contour>
        <pt x="56" y="98" on="1"/>
        <pt x="143" y="98" on="1"/>
        <pt x="143" y="20" on="1"/>
        <pt x="143" y="0" on="0"/>
        <pt x="136" y="-47" on="0"/>
        <pt x="116" y="-84" on="0"/>
        <pt x="83" y="-104" on="0"/>
        <pt x="56" y="-98" on="1"/>
      </contour>
    </TTGlyph>
    <TTGlyph name="copyright" xMin="32" yMin="31" xMax="679" yMax="680">
      <contour>
        <pt x="357" y="680" on="1"/>
        <pt x="429" y="680" on="0"/>
        <pt x="548" y="629" on="0"/>
        <pt x="632" y="541" on="0"/>
        <pt x="679" y="424" on="0"/>
        <pt x="679" y="357" on="1"/>
        <pt x="679" y="289" on="0"/>
        <pt x="632" y="170" on="0"/>
        <pt x="548" y="82" on="0"/>
        <pt x="429" y="31" on="0"/>
        <pt x="357" y="31" on="1"/>
        <pt x="284" y="31" on="0"/>
        <pt x="164" y="82" on="0"/>
        <pt x="79" y="170" on="0"/>
        <pt x="32" y="289" on="0"/>
        <pt x="32" y="357" on="1"/>
        <pt x="32" y="424" on="0"/>
        <pt x="79" y="541" on="0"/>
        <pt x="164" y="629" on="0"/>
        <pt x="284" y="680" on="0"/>
      </contour>
      <contour>
        <pt x="357" y="623" on="1"/>
        <pt x="300" y="623" on="0"/>
        <pt x="207" y="583" on="0"/>
        <pt x="141" y="512" on="0"/>
        <pt x="104" y="414" on="0"/>
        <pt x="104" y="354" on="1"/>
        <pt x="104" y="295" on="0"/>
        <pt x="141" y="198" on="0"/>
        <pt x="207" y="128" on="0"/>
        <pt x="300" y="89" on="0"/>
        <pt x="357" y="89" on="1"/>
        <pt x="412" y="88" on="0"/>
        <pt x="504" y="127" on="0"/>
        <pt x="570" y="198" on="0"/>
        <pt x="607" y="297" on="0"/>
        <pt x="607" y="357" on="1"/>
        <pt x="607" y="415" on="0"/>
        <pt x="570" y="513" on="0"/>
        <pt x="504" y="584" on="0"/>
        <pt x="412" y="623" on="0"/>
      </contour>
      <contour>
        <pt x="377" y="176" on="1"/>
        <pt x="344" y="176" on="0"/>
        <pt x="285" y="200" on="0"/>
        <pt x="241" y="246" on="0"/>
        <pt x="215" y="313" on="0"/>
        <pt x="215" y="357" on="1"/>
        <pt x="215" y="400" on="0"/>
        <pt x="241" y="468" on="0"/>
        <pt x="286" y="513" on="0"/>
        <pt x="344" y="537" on="0"/>
        <pt x="377" y="537" on="1"/>
        <pt x="416" y="537" on="0"/>
        <pt x="460" y="523" on="1"/>
        <pt x="443" y="475" on="1"/>
        <pt x="425" y="481" on="0"/>
        <pt x="392" y="485" on="0"/>
        <pt x="377" y="485" on="1"/>
        <pt x="339" y="485" on="0"/>
        <pt x="282" y="421" on="0"/>
        <pt x="282" y="357" on="1"/>
        <pt x="282" y="291" on="0"/>
        <pt x="339" y="227" on="0"/>
        <pt x="377" y="227" on="1"/>
        <pt x="391" y="227" on="0"/>
        <pt x="429" y="235" on="0"/>
        <pt x="452" y="246" on="1"/>
        <pt x="469" y="199" on="1"/>
        <pt x="441" y="185" on="0"/>
        <pt x="393" y="176" on="0"/>
      </contour>
    </TTGlyph>
    <TTGlyph name="currency" xMin="29" yMin="108" xMax="487" yMax="574">
      <contour>
        <pt x="256" y="544" on="1"/>
        <pt x="291" y="544" on="0"/>
        <pt x="351" y="522" on="0"/>
        <pt x="372" y="504" on="1"/>
        <pt x="448" y="574" on="1"/>
        <pt x="487" y="533" on="1"/>
        <pt x="409" y="462" on="1"/>
        <pt x="423" y="442" on="0"/>
        <pt x="444" y="381" on="0"/>
        <pt x="444" y="345" on="1"/>
        <pt x="444" y="303" on="0"/>
        <pt x="423" y="241" on="0"/>
        <pt x="409" y="222" on="1"/>
        <pt x="484" y="148" on="1"/>
        <pt x="444" y="108" on="1"/>
        <pt x="371" y="181" on="1"/>
        <pt x="348" y="159" on="0"/>
        <pt x="284" y="138" on="0"/>
        <pt x="254" y="138" on="1"/>
        <pt x="223" y="138" on="0"/>
        <pt x="160" y="159" on="0"/>
        <pt x="140" y="178" on="1"/>
        <pt x="70" y="108" on="1"/>
        <pt x="30" y="148" on="1"/>
        <pt x="102" y="219" on="1"/>
        <pt x="87" y="239" on="0"/>
        <pt x="65" y="302" on="0"/>
        <pt x="65" y="339" on="1"/>
        <pt x="65" y="378" on="0"/>
        <pt x="88" y="441" on="0"/>
        <pt x="104" y="462" on="1"/>
        <pt x="29" y="533" on="1"/>
        <pt x="68" y="574" on="1"/>
        <pt x="142" y="503" on="1"/>
        <pt x="163" y="522" on="0"/>
        <pt x="223" y="544" on="0"/>
      </contour>
      <contour>
        <pt x="255" y="485" on="1"/>
        <pt x="227" y="485" on="0"/>
        <pt x="183" y="462" on="0"/>
        <pt x="152" y="422" on="0"/>
        <pt x="136" y="369" on="0"/>
        <pt x="136" y="340" on="1"/>
        <pt x="136" y="304" on="0"/>
        <pt x="159" y="250" on="0"/>
        <pt x="193" y="214" on="0"/>
        <pt x="235" y="197" on="0"/>
        <pt x="254" y="197" on="1"/>
        <pt x="275" y="197" on="0"/>
        <pt x="317" y="214" on="0"/>
        <pt x="352" y="250" on="0"/>
        <pt x="373" y="305" on="0"/>
        <pt x="373" y="344" on="1"/>
        <pt x="373" y="370" on="0"/>
        <pt x="358" y="420" on="0"/>
        <pt x="328" y="460" on="0"/>
        <pt x="284" y="485" on="0"/>
      </contour>
    </TTGlyph>
    <TTGlyph name="d" xMin="51" yMin="-10" xMax="525" yMax="758">
      <contour>
        <pt x="51" y="261" on="1"/>
        <pt x="51" y="321" on="0"/>
        <pt x="90" y="418" on="0"/>
        <pt x="155" y="486" on="0"/>
        <pt x="238" y="523" on="0"/>
        <pt x="283" y="523" on="1"/>
        <pt x="306" y="523" on="0"/>
        <pt x="356" y="516" on="0"/>
        <pt x="383" y="506" on="1"/>
        <pt x="369" y="481" on="0"/>
        <pt x="324" y="450" on="0"/>
        <pt x="289" y="451" on="1"/>
        <pt x="263" y="452" on="0"/>
        <pt x="213" y="431" on="0"/>
        <pt x="174" y="385" on="0"/>
        <pt x="150" y="312" on="0"/>
        <pt x="150" y="261" on="1"/>
        <pt x="150" y="217" on="0"/>
        <pt x="168" y="144" on="0"/>
        <pt x="202" y="92" on="0"/>
        <pt x="253" y="62" on="0"/>
        <pt x="286" y="62" on="1"/>
        <pt x="357" y="62" on="0"/>
        <pt x="417" y="135" on="1"/>
        <pt x="417" y="758" on="1"/>
        <pt x="510" y="758" on="1"/>
        <pt x="510" y="171" on="1"/>
        <pt x="510" y="111" on="0"/>
        <pt x="519" y="26" on="0"/>
        <pt x="525" y="0" on="1"/>
        <pt x="458" y="0" on="1"/>
        <pt x="446" y="11" on="0"/>
        <pt x="431" y="34" on="0"/>
        <pt x="423" y="54" on="1"/>
        <pt x="421" y="70" on="1"/>
        <pt x="413" y="53" on="1"/>
        <pt x="382" y="18" on="0"/>
        <pt x="302" y="-10" on="0"/>
        <pt x="271" y="-10" on="1"/>
        <pt x="218" y="-10" on="0"/>
        <pt x="137" y="32" on="0"/>
        <pt x="80" y="105" on="0"/>
        <pt x="51" y="204" on="0"/>
      </contour>
    </TTGlyph>
    <TTGlyph name="dagger" xMin="22" yMin="-30" xMax="526" yMax="697">
      <contour>
        <pt x="311" y="-30" on="1"/>
        <pt x="237" y="-30" on="1"/>
        <pt x="237" y="697" on="1"/>
        <pt x="311" y="697" on="1"/>
      </contour>
      <contour>
        <pt x="431" y="407" on="1"/>
        <pt x="395" y="407" on="0"/>
        <pt x="357" y="447" on="0"/>
        <pt x="346" y="476" on="1"/>
        <pt x="526" y="476" on="1"/>
        <pt x="526" y="407" on="1"/>
      </contour>
      <contour>
        <pt x="22" y="407" on="1"/>
        <pt x="22" y="476" on="1"/>
        <pt x="202" y="476" on="1"/>
        <pt x="191" y="447" on="0"/>
        <pt x="153" y="407" on="0"/>
        <pt x="117" y="407" on="1"/>
      </contour>
    </TTGlyph>
    <TTGlyph name="daggerdbl" xMin="46" yMin="-30" xMax="550" yMax="697">
      <contour>
        <pt x="335" y="-30" on="1"/>
        <pt x="261" y="-30" on="1"/>
        <pt x="261" y="697" on="1"/>
        <pt x="335" y="697" on="1"/>
      </contour>
      <contour>
        <pt x="455" y="171" on="1"/>
        <pt x="419" y="171" on="0"/>
        <pt x="381" y="211" on="0"/>
        <pt x="370" y="240" on="1"/>
        <pt x="550" y="240" on="1"/>
        <pt x="550" y="171" on="1"/>
      </contour>
      <contour>
        <pt x="46" y="171" on="1"/>
        <pt x="46" y="240" on="1"/>
        <pt x="226" y="240" on="1"/>
        <pt x="215" y="211" on="0"/>
        <pt x="177" y="171" on="0"/>
        <pt x="141" y="171" on="1"/>
      </contour>
      <contour>
        <pt x="455" y="427" on="1"/>
        <pt x="419" y="427" on="0"/>
        <pt x="381" y="467" on="0"/>
        <pt x="370" y="496" on="1"/>
        <pt x="550" y="496" on="1"/>
        <pt x="550" y="427" on="1"/>
      </contour>
      <contour>
        <pt x="46" y="427" on="1"/>
        <pt x="46" y="496" on="1"/>
        <pt x="226" y="496" on="1"/>
        <pt x="215" y="467" on="0"/>
        <pt x="177" y="427" on="0"/>
        <pt x="141" y="427" on="1"/>
      </contour>
    </TTGlyph>
    <TTGlyph name="degree" xMin="29" yMin="483" xMax="321" yMax="763">
      <contour>
        <pt x="175" y="713" on="1"/>
        <pt x="154" y="713" on="0"/>
        <pt x="123" y="697" on="0"/>
        <pt x="102" y="671" on="0"/>
        <pt x="92" y="639" on="0"/>
        <pt x="92" y="623" on="1"/>
        <pt x="92" y="606" on="0"/>
        <pt x="102" y="574" on="0"/>
        <pt x="123" y="548" on="0"/>
        <pt x="154" y="533" on="0"/>
        <pt x="175" y="533" on="1"/>
        <pt x="197" y="533" on="0"/>
        <pt x="229" y="551" on="0"/>
        <pt x="249" y="578" on="0"/>
        <pt x="259" y="609" on="0"/>
        <pt x="259" y="623" on="1"/>
        <pt x="259" y="644" on="0"/>
        <pt x="245" y="677" on="0"/>
        <pt x="221" y="700" on="0"/>
        <pt x="191" y="713" on="0"/>
      </contour>
      <contour>
        <pt x="29" y="623" on="1"/>
        <pt x="29" y="651" on="0"/>
        <pt x="51" y="702" on="0"/>
        <pt x="90" y="740" on="0"/>
        <pt x="144" y="763" on="0"/>
        <pt x="175" y="763" on="1"/>
        <pt x="200" y="763" on="0"/>
        <pt x="252" y="745" on="0"/>
        <pt x="294" y="709" on="0"/>
        <pt x="321" y="657" on="0"/>
        <pt x="321" y="623" on="1"/>
        <pt x="321" y="589" on="0"/>
        <pt x="294" y="537" on="0"/>
        <pt x="252" y="501" on="0"/>
        <pt x="200" y="483" on="0"/>
        <pt x="175" y="483" on="1"/>
        <pt x="146" y="483" on="0"/>
        <pt x="93" y="504" on="0"/>
        <pt x="53" y="541" on="0"/>
        <pt x="29" y="593" on="0"/>
      </contour>
    </TTGlyph>
    <TTGlyph name="dieresis" xMin="38" yMin="618" xMax="337" yMax="722">
      <contour>
        <pt x="38" y="670" on="1"/>
        <pt x="38" y="692" on="0"/>
        <pt x="69" y="722" on="0"/>
        <pt x="90" y="722" on="1"/>
        <pt x="112" y="722" on="0"/>
        <pt x="143" y="692" on="0"/>
        <pt x="143" y="670" on="1"/>
        <pt x="143" y="648" on="0"/>
        <pt x="112" y="618" on="0"/>
        <pt x="90" y="618" on="1"/>
        <pt x="69" y="618" on="0"/>
        <pt x="38" y="648" on="0"/>
      </contour>
      <contour>
        <pt x="232" y="670" on="1"/>
        <pt x="232" y="692" on="0"/>
        <pt x="263" y="722" on="0"/>
        <pt x="285" y="722" on="1"/>
        <pt x="306" y="722" on="0"/>
        <pt x="337" y="692" on="0"/>
        <pt x="337" y="670" on="1"/>
        <pt x="337" y="648" on="0"/>
        <pt x="306" y="618" on="0"/>
        <pt x="285" y="618" on="1"/>
        <pt x="263" y="618" on="0"/>
        <pt x="232" y="648" on="0"/>
      </contour>
    </TTGlyph>
    <TTGlyph name="divide" xMin="47" yMin="62" xMax="515" yMax="546">
      <contour>
        <pt x="47" y="337" on="1"/>
        <pt x="515" y="337" on="1"/>
        <pt x="515" y="273" on="1"/>
        <pt x="47" y="273" on="1"/>
      </contour>
      <contour>
        <pt x="230" y="494" on="1"/>
        <pt x="230" y="517" on="0"/>
        <pt x="258" y="546" on="0"/>
        <pt x="280" y="546" on="1"/>
        <pt x="303" y="546" on="0"/>
        <pt x="332" y="517" on="0"/>
        <pt x="332" y="494" on="1"/>
        <pt x="332" y="472" on="0"/>
        <pt x="303" y="444" on="0"/>
        <pt x="280" y="444" on="1"/>
        <pt x="258" y="444" on="0"/>
        <pt x="230" y="472" on="0"/>
      </contour>
      <contour>
        <pt x="230" y="112" on="1"/>
        <pt x="230" y="135" on="0"/>
        <pt x="258" y="164" on="0"/>
        <pt x="280" y="164" on="1"/>
        <pt x="303" y="164" on="0"/>
        <pt x="332" y="135" on="0"/>
        <pt x="332" y="112" on="1"/>
        <pt x="332" y="90" on="0"/>
        <pt x="303" y="62" on="0"/>
        <pt x="280" y="62" on="1"/>
        <pt x="258" y="62" on="0"/>
        <pt x="230" y="90" on="0"/>
      </contour>
    </TTGlyph>
    <TTGlyph name="dollar" xMin="45" yMin="-107" xMax="474" yMax="810">
      <contour>
        <pt x="260" y="638" on="1"/>
        <pt x="209" y="638" on="0"/>
        <pt x="152" y="582" on="0"/>
        <pt x="152" y="544" on="1"/>
        <pt x="152" y="506" on="0"/>
        <pt x="200" y="452" on="0"/>
        <pt x="271" y="407" on="0"/>
        <pt x="355" y="363" on="0"/>
        <pt x="426" y="307" on="0"/>
        <pt x="474" y="231" on="0"/>
        <pt x="474" y="176" on="1"/>
        <pt x="474" y="146" on="0"/>
        <pt x="451" y="87" on="0"/>
        <pt x="407" y="38" on="0"/>
        <pt x="341" y="1" on="0"/>
        <pt x="299" y="-6" on="1"/>
        <pt x="299" y="-107" on="1"/>
        <pt x="227" y="-107" on="1"/>
        <pt x="227" y="-11" on="1"/>
        <pt x="185" y="-9" on="0"/>
        <pt x="92" y="13" on="0"/>
        <pt x="45" y="36" on="1"/>
        <pt x="71" y="101" on="1"/>
        <pt x="118" y="80" on="0"/>
        <pt x="199" y="62" on="0"/>
        <pt x="235" y="62" on="1"/>
        <pt x="267" y="62" on="0"/>
        <pt x="319" y="81" on="0"/>
        <pt x="356" y="113" on="0"/>
        <pt x="376" y="155" on="0"/>
        <pt x="376" y="178" on="1"/>
        <pt x="376" y="219" on="0"/>
        <pt x="329" y="276" on="0"/>
        <pt x="258" y="321" on="0"/>
        <pt x="175" y="362" on="0"/>
        <pt x="104" y="416" on="0"/>
        <pt x="57" y="490" on="0"/>
        <pt x="57" y="544" on="1"/>
        <pt x="57" y="576" on="0"/>
        <pt x="82" y="634" on="0"/>
        <pt x="127" y="678" on="0"/>
        <pt x="189" y="707" on="0"/>
        <pt x="227" y="711" on="1"/>
        <pt x="227" y="810" on="1"/>
        <pt x="299" y="810" on="1"/>
        <pt x="299" y="709" on="1"/>
        <pt x="328" y="706" on="0"/>
        <pt x="386" y="692" on="0"/>
        <pt x="424" y="681" on="1"/>
        <pt x="396" y="616" on="1"/>
        <pt x="352" y="629" on="0"/>
        <pt x="289" y="638" on="0"/>
      </contour>
    </TTGlyph>
    <TTGlyph name="e" xMin="56" yMin="-10" xMax="491" yMax="527">
      <contour>
        <pt x="397" y="317" on="1"/>
        <pt x="400" y="346" on="0"/>
        <pt x="386" y="396" on="0"/>
        <pt x="357" y="434" on="0"/>
        <pt x="315" y="455" on="0"/>
        <pt x="291" y="455" on="1"/>
        <pt x="228" y="455" on="0"/>
        <pt x="149" y="355" on="0"/>
        <pt x="149" y="262" on="1"/>
        <pt x="149" y="217" on="0"/>
        <pt x="173" y="144" on="0"/>
        <pt x="216" y="91" on="0"/>
        <pt x="274" y="62" on="0"/>
        <pt x="308" y="62" on="1"/>
        <pt x="343" y="62" on="0"/>
        <pt x="404" y="76" on="0"/>
        <pt x="447" y="98" on="1"/>
        <pt x="472" y="32" on="1"/>
        <pt x="424" y="7" on="0"/>
        <pt x="334" y="-10" on="0"/>
        <pt x="298" y="-10" on="1"/>
        <pt x="243" y="-10" on="0"/>
        <pt x="153" y="31" on="0"/>
        <pt x="90" y="104" on="0"/>
        <pt x="56" y="204" on="0"/>
        <pt x="56" y="263" on="1"/>
        <pt x="56" y="324" on="0"/>
        <pt x="90" y="421" on="0"/>
        <pt x="154" y="490" on="0"/>
        <pt x="244" y="527" on="0"/>
        <pt x="301" y="527" on="1"/>
        <pt x="352" y="527" on="0"/>
        <pt x="432" y="481" on="0"/>
        <pt x="480" y="404" on="0"/>
        <pt x="491" y="304" on="0"/>
        <pt x="475" y="250" on="1"/>
        <pt x="185" y="250" on="1"/>
        <pt x="196" y="279" on="0"/>
        <pt x="234" y="317" on="0"/>
        <pt x="270" y="317" on="1"/>
      </contour>
    </TTGlyph>
    <TTGlyph name="eacute" xMin="56" yMin="-10" xMax="491" yMax="740">
      <contour>
        <pt x="397" y="317" on="1"/>
        <pt x="400" y="346" on="0"/>
        <pt x="386" y="396" on="0"/>
        <pt x="357" y="434" on="0"/>
        <pt x="315" y="455" on="0"/>
        <pt x="291" y="455" on="1"/>
        <pt x="228" y="455" on="0"/>
        <pt x="149" y="355" on="0"/>
        <pt x="149" y="262" on="1"/>
        <pt x="149" y="217" on="0"/>
        <pt x="173" y="144" on="0"/>
        <pt x="216" y="91" on="0"/>
        <pt x="274" y="62" on="0"/>
        <pt x="308" y="62" on="1"/>
        <pt x="343" y="62" on="0"/>
        <pt x="404" y="76" on="0"/>
        <pt x="447" y="98" on="1"/>
        <pt x="472" y="32" on="1"/>
        <pt x="424" y="7" on="0"/>
        <pt x="334" y="-10" on="0"/>
        <pt x="298" y="-10" on="1"/>
        <pt x="243" y="-10" on="0"/>
        <pt x="153" y="31" on="0"/>
        <pt x="90" y="104" on="0"/>
        <pt x="56" y="204" on="0"/>
        <pt x="56" y="263" on="1"/>
        <pt x="56" y="324" on="0"/>
        <pt x="90" y="421" on="0"/>
        <pt x="154" y="490" on="0"/>
        <pt x="244" y="527" on="0"/>
        <pt x="301" y="527" on="1"/>
        <pt x="352" y="527" on="0"/>
        <pt x="432" y="481" on="0"/>
        <pt x="480" y="404" on="0"/>
        <pt x="491" y="304" on="0"/>
        <pt x="475" y="250" on="1"/>
        <pt x="185" y="250" on="1"/>
        <pt x="196" y="279" on="0"/>
        <pt x="234" y="317" on="0"/>
        <pt x="270" y="317" on="1"/>
      </contour>
      <contour>
        <pt x="342" y="631" on="1"/>
        <pt x="322" y="607" on="0"/>
        <pt x="270" y="595" on="0"/>
        <pt x="244" y="602" on="1"/>
        <pt x="333" y="740" on="1"/>
        <pt x="430" y="740" on="1"/>
      </contour>
    </TTGlyph>
    <TTGlyph name="ecircumflex" xMin="56" yMin="-10" xMax="491" yMax="743">
      <contour>
        <pt x="397" y="317" on="1"/>
        <pt x="400" y="346" on="0"/>
        <pt x="386" y="396" on="0"/>
        <pt x="357" y="434" on="0"/>
        <pt x="315" y="455" on="0"/>
        <pt x="291" y="455" on="1"/>
        <pt x="228" y="455" on="0"/>
        <pt x="149" y="355" on="0"/>
        <pt x="149" y="262" on="1"/>
        <pt x="149" y="217" on="0"/>
        <pt x="173" y="144" on="0"/>
        <pt x="216" y="91" on="0"/>
        <pt x="274" y="62" on="0"/>
        <pt x="308" y="62" on="1"/>
        <pt x="343" y="62" on="0"/>
        <pt x="404" y="76" on="0"/>
        <pt x="447" y="98" on="1"/>
        <pt x="472" y="32" on="1"/>
        <pt x="424" y="7" on="0"/>
        <pt x="334" y="-10" on="0"/>
        <pt x="298" y="-10" on="1"/>
        <pt x="243" y="-10" on="0"/>
        <pt x="153" y="31" on="0"/>
        <pt x="90" y="104" on="0"/>
        <pt x="56" y="204" on="0"/>
        <pt x="56" y="263" on="1"/>
        <pt x="56" y="324" on="0"/>
        <pt x="90" y="421" on="0"/>
        <pt x="154" y="490" on="0"/>
        <pt x="244" y="527" on="0"/>
        <pt x="301" y="527" on="1"/>
        <pt x="352" y="527" on="0"/>
        <pt x="432" y="481" on="0"/>
        <pt x="480" y="404" on="0"/>
        <pt x="491" y="304" on="0"/>
        <pt x="475" y="250" on="1"/>
        <pt x="185" y="250" on="1"/>
        <pt x="196" y="279" on="0"/>
        <pt x="234" y="317" on="0"/>
        <pt x="270" y="317" on="1"/>
      </contour>
      <contour>
        <pt x="320" y="743" on="1"/>
        <pt x="431" y="598" on="1"/>
        <pt x="379" y="590" on="1"/>
        <pt x="291" y="674" on="1"/>
        <pt x="203" y="589" on="1"/>
        <pt x="154" y="598" on="1"/>
        <pt x="263" y="743" on="1"/>
      </contour>
    </TTGlyph>
    <TTGlyph name="edieresis" xMin="56" yMin="-10" xMax="491" yMax="722">
      <contour>
        <pt x="397" y="317" on="1"/>
        <pt x="400" y="346" on="0"/>
        <pt x="386" y="396" on="0"/>
        <pt x="357" y="434" on="0"/>
        <pt x="315" y="455" on="0"/>
        <pt x="291" y="455" on="1"/>
        <pt x="228" y="455" on="0"/>
        <pt x="149" y="355" on="0"/>
        <pt x="149" y="262" on="1"/>
        <pt x="149" y="217" on="0"/>
        <pt x="173" y="144" on="0"/>
        <pt x="216" y="91" on="0"/>
        <pt x="274" y="62" on="0"/>
        <pt x="308" y="62" on="1"/>
        <pt x="343" y="62" on="0"/>
        <pt x="404" y="76" on="0"/>
        <pt x="447" y="98" on="1"/>
        <pt x="472" y="32" on="1"/>
        <pt x="424" y="7" on="0"/>
        <pt x="334" y="-10" on="0"/>
        <pt x="298" y="-10" on="1"/>
        <pt x="243" y="-10" on="0"/>
        <pt x="153" y="31" on="0"/>
        <pt x="90" y="104" on="0"/>
        <pt x="56" y="204" on="0"/>
        <pt x="56" y="263" on="1"/>
        <pt x="56" y="324" on="0"/>
        <pt x="90" y="421" on="0"/>
        <pt x="154" y="490" on="0"/>
        <pt x="244" y="527" on="0"/>
        <pt x="301" y="527" on="1"/>
        <pt x="352" y="527" on="0"/>
        <pt x="432" y="481" on="0"/>
        <pt x="480" y="404" on="0"/>
        <pt x="491" y="304" on="0"/>
        <pt x="475" y="250" on="1"/>
        <pt x="185" y="250" on="1"/>
        <pt x="196" y="279" on="0"/>
        <pt x="234" y="317" on="0"/>
        <pt x="270" y="317" on="1"/>
      </contour>
      <contour>
        <pt x="136" y="670" on="1"/>
        <pt x="136" y="692" on="0"/>
        <pt x="167" y="722" on="0"/>
        <pt x="188" y="722" on="1"/>
        <pt x="210" y="722" on="0"/>
        <pt x="241" y="692" on="0"/>
        <pt x="241" y="670" on="1"/>
        <pt x="241" y="648" on="0"/>
        <pt x="210" y="618" on="0"/>
        <pt x="188" y="618" on="1"/>
        <pt x="167" y="618" on="0"/>
        <pt x="136" y="648" on="0"/>
      </contour>
      <contour>
        <pt x="330" y="670" on="1"/>
        <pt x="330" y="692" on="0"/>
        <pt x="361" y="722" on="0"/>
        <pt x="383" y="722" on="1"/>
        <pt x="404" y="722" on="0"/>
        <pt x="435" y="692" on="0"/>
        <pt x="435" y="670" on="1"/>
        <pt x="435" y="648" on="0"/>
        <pt x="404" y="618" on="0"/>
        <pt x="383" y="618" on="1"/>
        <pt x="361" y="618" on="0"/>
        <pt x="330" y="648" on="0"/>
      </contour>
    </TTGlyph>
    <TTGlyph name="egrave" xMin="56" yMin="-10" xMax="491" yMax="740">
      <contour>
        <pt x="397" y="317" on="1"/>
        <pt x="400" y="346" on="0"/>
        <pt x="386" y="396" on="0"/>
        <pt x="357" y="434" on="0"/>
        <pt x="315" y="455" on="0"/>
        <pt x="291" y="455" on="1"/>
        <pt x="228" y="455" on="0"/>
        <pt x="149" y="355" on="0"/>
        <pt x="149" y="262" on="1"/>
        <pt x="149" y="217" on="0"/>
        <pt x="173" y="144" on="0"/>
        <pt x="216" y="91" on="0"/>
        <pt x="274" y="62" on="0"/>
        <pt x="308" y="62" on="1"/>
        <pt x="343" y="62" on="0"/>
        <pt x="404" y="76" on="0"/>
        <pt x="447" y="98" on="1"/>
        <pt x="472" y="32" on="1"/>
        <pt x="424" y="7" on="0"/>
        <pt x="334" y="-10" on="0"/>
        <pt x="298" y="-10" on="1"/>
        <pt x="243" y="-10" on="0"/>
        <pt x="153" y="31" on="0"/>
        <pt x="90" y="104" on="0"/>
        <pt x="56" y="204" on="0"/>
        <pt x="56" y="263" on="1"/>
        <pt x="56" y="324" on="0"/>
        <pt x="90" y="421" on="0"/>
        <pt x="154" y="490" on="0"/>
        <pt x="244" y="527" on="0"/>
        <pt x="301" y="527" on="1"/>
        <pt x="352" y="527" on="0"/>
        <pt x="432" y="481" on="0"/>
        <pt x="480" y="404" on="0"/>
        <pt x="491" y="304" on="0"/>
        <pt x="475" y="250" on="1"/>
        <pt x="185" y="250" on="1"/>
        <pt x="196" y="279" on="0"/>
        <pt x="234" y="317" on="0"/>
        <pt x="270" y="317" on="1"/>
      </contour>
      <contour>
        <pt x="156" y="740" on="1"/>
        <pt x="251" y="740" on="1"/>
        <pt x="324" y="602" on="1"/>
        <pt x="298" y="596" on="0"/>
        <pt x="247" y="607" on="0"/>
        <pt x="228" y="631" on="1"/>
      </contour>
    </TTGlyph>
    <TTGlyph name="eight" xMin="81" yMin="-14" xMax="547" yMax="712">
      <contour>
        <pt x="195" y="531" on="1"/>
        <pt x="195" y="502" on="0"/>
        <pt x="224" y="461" on="0"/>
        <pt x="272" y="429" on="0"/>
        <pt x="333" y="404" on="0"/>
        <pt x="366" y="390" on="1"/>
        <pt x="398" y="421" on="0"/>
        <pt x="436" y="481" on="0"/>
        <pt x="436" y="519" on="1"/>
        <pt x="436" y="549" on="0"/>
        <pt x="415" y="594" on="0"/>
        <pt x="380" y="624" on="0"/>
        <pt x="337" y="639" on="0"/>
        <pt x="315" y="639" on="1"/>
        <pt x="292" y="639" on="0"/>
        <pt x="249" y="624" on="0"/>
        <pt x="216" y="597" on="0"/>
        <pt x="195" y="556" on="0"/>
      </contour>
      <contour>
        <pt x="312" y="58" on="1"/>
        <pt x="377" y="58" on="0"/>
        <pt x="457" y="125" on="0"/>
        <pt x="457" y="178" on="1"/>
        <pt x="457" y="221" on="0"/>
        <pt x="405" y="275" on="0"/>
        <pt x="327" y="314" on="0"/>
        <pt x="235" y="349" on="0"/>
        <pt x="157" y="398" on="0"/>
        <pt x="105" y="472" on="0"/>
        <pt x="105" y="531" on="1"/>
        <pt x="105" y="574" on="0"/>
        <pt x="141" y="641" on="0"/>
        <pt x="199" y="687" on="0"/>
        <pt x="275" y="712" on="0"/>
        <pt x="315" y="712" on="1"/>
        <pt x="357" y="712" on="0"/>
        <pt x="433" y="687" on="0"/>
        <pt x="490" y="641" on="0"/>
        <pt x="524" y="574" on="0"/>
        <pt x="524" y="531" on="1"/>
        <pt x="524" y="482" on="0"/>
        <pt x="472" y="399" on="0"/>
        <pt x="435" y="357" on="1"/>
        <pt x="458" y="344" on="0"/>
        <pt x="499" y="311" on="0"/>
        <pt x="529" y="268" on="0"/>
        <pt x="547" y="213" on="0"/>
        <pt x="547" y="178" on="1"/>
        <pt x="547" y="132" on="0"/>
        <pt x="509" y="60" on="0"/>
        <pt x="444" y="11" on="0"/>
        <pt x="359" y="-14" on="0"/>
        <pt x="312" y="-14" on="1"/>
        <pt x="264" y="-14" on="0"/>
        <pt x="180" y="11" on="0"/>
        <pt x="117" y="60" on="0"/>
        <pt x="81" y="132" on="0"/>
        <pt x="81" y="178" on="1"/>
        <pt x="81" y="195" on="0"/>
        <pt x="88" y="231" on="0"/>
        <pt x="106" y="272" on="0"/>
        <pt x="139" y="319" on="0"/>
        <pt x="165" y="347" on="1"/>
        <pt x="182" y="323" on="0"/>
        <pt x="195" y="265" on="0"/>
        <pt x="181" y="239" on="1"/>
        <pt x="167" y="211" on="0"/>
        <pt x="167" y="190" on="1"/>
        <pt x="167" y="159" on="0"/>
        <pt x="189" y="110" on="0"/>
        <pt x="228" y="76" on="0"/>
        <pt x="281" y="58" on="0"/>
      </contour>
    </TTGlyph>
    <TTGlyph name="ellipsis" xMin="93" yMin="-15" xMax="753" yMax="105">
      <contour>
        <pt x="93" y="44" on="1"/>
        <pt x="93" y="70" on="0"/>
        <pt x="126" y="105" on="0"/>
        <pt x="152" y="105" on="1"/>
        <pt x="178" y="105" on="0"/>
        <pt x="213" y="70" on="0"/>
        <pt x="213" y="44" on="1"/>
        <pt x="213" y="18" on="0"/>
        <pt x="178" y="-15" on="0"/>
        <pt x="152" y="-15" on="1"/>
        <pt x="126" y="-15" on="0"/>
        <pt x="93" y="18" on="0"/>
      </contour>
      <contour>
        <pt x="363" y="44" on="1"/>
        <pt x="363" y="70" on="0"/>
        <pt x="396" y="105" on="0"/>
        <pt x="422" y="105" on="1"/>
        <pt x="448" y="105" on="0"/>
        <pt x="483" y="70" on="0"/>
        <pt x="483" y="44" on="1"/>
        <pt x="483" y="18" on="0"/>
        <pt x="448" y="-15" on="0"/>
        <pt x="422" y="-15" on="1"/>
        <pt x="396" y="-15" on="0"/>
        <pt x="363" y="18" on="0"/>
      </contour>
      <contour>
        <pt x="633" y="44" on="1"/>
        <pt x="633" y="70" on="0"/>
        <pt x="666" y="105" on="0"/>
        <pt x="692" y="105" on="1"/>
        <pt x="718" y="105" on="0"/>
        <pt x="753" y="70" on="0"/>
        <pt x="753" y="44" on="1"/>
        <pt x="753" y="18" on="0"/>
        <pt x="718" y="-15" on="0"/>
        <pt x="692" y="-15" on="1"/>
        <pt x="666" y="-15" on="0"/>
        <pt x="633" y="18" on="0"/>
      </contour>
    </TTGlyph>
    <TTGlyph name="emdash" xMin="45" yMin="243" xMax="784" yMax="307">
      <contour>
        <pt x="45" y="243" on="1"/>
        <pt x="45" y="307" on="1"/>
        <pt x="784" y="307" on="1"/>
        <pt x="784" y="243" on="1"/>
      </contour>
    </TTGlyph>
    <TTGlyph name="endash" xMin="45" yMin="243" xMax="469" yMax="307">
      <contour>
        <pt x="45" y="243" on="1"/>
        <pt x="45" y="307" on="1"/>
        <pt x="469" y="307" on="1"/>
        <pt x="469" y="243" on="1"/>
      </contour>
    </TTGlyph>
    <TTGlyph name="equal" xMin="67" yMin="176" xMax="539" yMax="465">
      <contour>
        <pt x="67" y="244" on="1"/>
        <pt x="539" y="244" on="1"/>
        <pt x="539" y="176" on="1"/>
        <pt x="67" y="176" on="1"/>
      </contour>
      <contour>
        <pt x="67" y="465" on="1"/>
        <pt x="539" y="465" on="1"/>
        <pt x="539" y="397" on="1"/>
        <pt x="67" y="397" on="1"/>
      </contour>
    </TTGlyph>
    <TTGlyph name="eth" xMin="40" yMin="-10" xMax="522" yMax="760">
      <contour>
        <pt x="522" y="259" on="1"/>
        <pt x="522" y="194" on="0"/>
        <pt x="483" y="93" on="0"/>
        <pt x="417" y="25" on="0"/>
        <pt x="329" y="-10" on="0"/>
        <pt x="281" y="-10" on="1"/>
        <pt x="231" y="-10" on="0"/>
        <pt x="143" y="25" on="0"/>
        <pt x="78" y="93" on="0"/>
        <pt x="40" y="194" on="0"/>
        <pt x="40" y="259" on="1"/>
        <pt x="40" y="324" on="0"/>
        <pt x="79" y="424" on="0"/>
        <pt x="145" y="492" on="0"/>
        <pt x="233" y="527" on="0"/>
        <pt x="281" y="527" on="1"/>
        <pt x="297" y="527" on="0"/>
        <pt x="331" y="521" on="0"/>
        <pt x="349" y="513" on="1"/>
        <pt x="391" y="489" on="1"/>
        <pt x="366" y="519" on="1"/>
        <pt x="343" y="551" on="0"/>
        <pt x="288" y="602" on="0"/>
        <pt x="273" y="613" on="1"/>
        <pt x="148" y="553" on="1"/>
        <pt x="129" y="596" on="1"/>
        <pt x="228" y="645" on="1"/>
        <pt x="205" y="662" on="0"/>
        <pt x="158" y="688" on="0"/>
        <pt x="130" y="702" on="1"/>
        <pt x="162" y="760" on="1"/>
        <pt x="198" y="743" on="0"/>
        <pt x="271" y="702" on="0"/>
        <pt x="303" y="679" on="1"/>
        <pt x="415" y="733" on="1"/>
        <pt x="436" y="689" on="1"/>
        <pt x="346" y="646" on="1"/>
        <pt x="364" y="631" on="0"/>
        <pt x="423" y="560" on="0"/>
        <pt x="480" y="459" on="0"/>
        <pt x="522" y="331" on="0"/>
      </contour>
      <contour>
        <pt x="423" y="259" on="1"/>
        <pt x="423" y="309" on="0"/>
        <pt x="400" y="383" on="0"/>
        <pt x="361" y="431" on="0"/>
        <pt x="309" y="455" on="0"/>
        <pt x="281" y="455" on="1"/>
        <pt x="252" y="455" on="0"/>
        <pt x="201" y="431" on="0"/>
        <pt x="162" y="383" on="0"/>
        <pt x="139" y="309" on="0"/>
        <pt x="139" y="259" on="1"/>
        <pt x="139" y="208" on="0"/>
        <pt x="162" y="134" on="0"/>
        <pt x="201" y="86" on="0"/>
        <pt x="252" y="62" on="0"/>
        <pt x="281" y="62" on="1"/>
        <pt x="309" y="62" on="0"/>
        <pt x="361" y="86" on="0"/>
        <pt x="400" y="134" on="0"/>
        <pt x="423" y="208" on="0"/>
      </contour>
    </TTGlyph>
    <TTGlyph name="exclam" xMin="56" yMin="-15" xMax="176" yMax="727">
      <contour>
        <pt x="164" y="727" on="1"/>
        <pt x="150" y="185" on="1"/>
        <pt x="82" y="185" on="1"/>
        <pt x="70" y="727" on="1"/>
      </contour>
      <contour>
        <pt x="56" y="44" on="1"/>
        <pt x="56" y="70" on="0"/>
        <pt x="89" y="105" on="0"/>
        <pt x="115" y="105" on="1"/>
        <pt x="141" y="105" on="0"/>
        <pt x="176" y="70" on="0"/>
        <pt x="176" y="44" on="1"/>
        <pt x="176" y="18" on="0"/>
        <pt x="141" y="-15" on="0"/>
        <pt x="115" y="-15" on="1"/>
        <pt x="89" y="-15" on="0"/>
        <pt x="56" y="18" on="0"/>
      </contour>
    </TTGlyph>
    <TTGlyph name="exclamdown" xMin="56" yMin="-210" xMax="176" yMax="532">
      <contour>
        <pt x="70" y="-210" on="1"/>
        <pt x="82" y="332" on="1"/>
        <pt x="150" y="332" on="1"/>
        <pt x="164" y="-210" on="1"/>
      </contour>
      <contour>
        <pt x="56" y="473" on="1"/>
        <pt x="56" y="499" on="0"/>
        <pt x="89" y="532" on="0"/>
        <pt x="115" y="532" on="1"/>
        <pt x="141" y="532" on="0"/>
        <pt x="176" y="499" on="0"/>
        <pt x="176" y="473" on="1"/>
        <pt x="176" y="447" on="0"/>
        <pt x="141" y="412" on="0"/>
        <pt x="115" y="412" on="1"/>
        <pt x="89" y="412" on="0"/>
        <pt x="56" y="447" on="0"/>
      </contour>
    </TTGlyph>
    <TTGlyph name="f" xMin="5" yMin="0" xMax="404" yMax="763">
      <contour>
        <pt x="5" y="448" on="1"/>
        <pt x="5" y="496" on="1"/>
        <pt x="91" y="517" on="1"/>
        <pt x="91" y="545" on="1"/>
        <pt x="91" y="594" on="0"/>
        <pt x="117" y="675" on="0"/>
        <pt x="166" y="732" on="0"/>
        <pt x="237" y="763" on="0"/>
        <pt x="283" y="763" on="1"/>
        <pt x="308" y="763" on="0"/>
        <pt x="369" y="752" on="0"/>
        <pt x="404" y="737" on="1"/>
        <pt x="383" y="676" on="1"/>
        <pt x="351" y="688" on="0"/>
        <pt x="310" y="695" on="0"/>
        <pt x="294" y="695" on="1"/>
        <pt x="273" y="695" on="0"/>
        <pt x="231" y="679" on="0"/>
        <pt x="198" y="646" on="0"/>
        <pt x="178" y="592" on="0"/>
        <pt x="178" y="555" on="1"/>
        <pt x="178" y="0" on="1"/>
        <pt x="91" y="0" on="1"/>
        <pt x="91" y="448" on="1"/>
      </contour>
      <contour>
        <pt x="359" y="517" on="1"/>
        <pt x="359" y="448" on="1"/>
        <pt x="214" y="448" on="1"/>
        <pt x="225" y="477" on="0"/>
        <pt x="263" y="517" on="0"/>
        <pt x="299" y="517" on="1"/>
      </contour>
    </TTGlyph>
    <TTGlyph name="five" xMin="45" yMin="-11" xMax="465" yMax="701">
      <contour>
        <pt x="154" y="413" on="1"/>
        <pt x="172" y="415" on="0"/>
        <pt x="206" y="419" on="0"/>
        <pt x="225" y="419" on="1"/>
        <pt x="287" y="419" on="0"/>
        <pt x="377" y="383" on="0"/>
        <pt x="436" y="323" on="0"/>
        <pt x="465" y="247" on="0"/>
        <pt x="465" y="207" on="1"/>
        <pt x="465" y="164" on="0"/>
        <pt x="432" y="85" on="0"/>
        <pt x="369" y="25" on="0"/>
        <pt x="277" y="-11" on="0"/>
        <pt x="217" y="-11" on="1"/>
        <pt x="198" y="-11" on="0"/>
        <pt x="151" y="-4" on="0"/>
        <pt x="105" y="9" on="0"/>
        <pt x="61" y="27" on="0"/>
        <pt x="45" y="38" on="1"/>
        <pt x="68" y="103" on="1"/>
        <pt x="108" y="80" on="0"/>
        <pt x="187" y="62" on="0"/>
        <pt x="216" y="62" on="1"/>
        <pt x="259" y="62" on="0"/>
        <pt x="318" y="90" on="0"/>
        <pt x="352" y="134" on="0"/>
        <pt x="367" y="185" on="0"/>
        <pt x="367" y="209" on="1"/>
        <pt x="367" y="245" on="0"/>
        <pt x="343" y="297" on="0"/>
        <pt x="299" y="332" on="0"/>
        <pt x="240" y="348" on="0"/>
        <pt x="204" y="348" on="1"/>
        <pt x="191" y="348" on="0"/>
        <pt x="159" y="345" on="0"/>
        <pt x="125" y="340" on="0"/>
        <pt x="91" y="332" on="0"/>
        <pt x="76" y="328" on="1"/>
        <pt x="102" y="701" on="1"/>
        <pt x="435" y="701" on="1"/>
        <pt x="435" y="622" on="1"/>
        <pt x="170" y="622" on="1"/>
      </contour>
    </TTGlyph>
    <TTGlyph name="florin" xMin="2" yMin="-141" xMax="504" yMax="711">
      <contour>
        <pt x="437" y="465" on="1"/>
        <pt x="437" y="396" on="1"/>
        <pt x="285" y="396" on="1"/>
        <pt x="299" y="425" on="0"/>
        <pt x="341" y="465" on="0"/>
        <pt x="377" y="465" on="1"/>
      </contour>
      <contour>
        <pt x="2" y="-84" on="1"/>
        <pt x="26" y="-76" on="0"/>
        <pt x="68" y="-56" on="0"/>
        <pt x="102" y="-23" on="0"/>
        <pt x="125" y="27" on="0"/>
        <pt x="129" y="65" on="1"/>
        <pt x="162" y="396" on="1"/>
        <pt x="81" y="396" on="1"/>
        <pt x="81" y="444" on="1"/>
        <pt x="169" y="465" on="1"/>
        <pt x="172" y="493" on="1"/>
        <pt x="182" y="592" on="0"/>
        <pt x="294" y="711" on="0"/>
        <pt x="386" y="711" on="1"/>
        <pt x="411" y="711" on="0"/>
        <pt x="471" y="700" on="0"/>
        <pt x="504" y="685" on="1"/>
        <pt x="477" y="624" on="1"/>
        <pt x="447" y="636" on="0"/>
        <pt x="406" y="643" on="0"/>
        <pt x="390" y="643" on="1"/>
        <pt x="369" y="643" on="0"/>
        <pt x="326" y="627" on="0"/>
        <pt x="290" y="594" on="0"/>
        <pt x="264" y="540" on="0"/>
        <pt x="260" y="503" on="1"/>
        <pt x="217" y="75" on="1"/>
        <pt x="212" y="25" on="0"/>
        <pt x="180" y="-47" on="0"/>
        <pt x="129" y="-98" on="0"/>
        <pt x="59" y="-131" on="0"/>
        <pt x="16" y="-141" on="1"/>
      </contour>
    </TTGlyph>
    <TTGlyph name="four" xMin="46" yMin="0" xMax="539" yMax="701">
      <contour>
        <pt x="372" y="701" on="1"/>
        <pt x="459" y="701" on="1"/>
        <pt x="459" y="227" on="1"/>
        <pt x="539" y="227" on="1"/>
        <pt x="539" y="156" on="1"/>
        <pt x="459" y="156" on="1"/>
        <pt x="459" y="0" on="1"/>
        <pt x="372" y="0" on="1"/>
        <pt x="372" y="546" on="1"/>
        <pt x="374" y="573" on="1"/>
        <pt x="359" y="548" on="1"/>
        <pt x="144" y="237" on="1"/>
        <pt x="133" y="226" on="1"/>
        <pt x="149" y="228" on="1"/>
        <pt x="241" y="228" on="1"/>
        <pt x="261" y="228" on="0"/>
        <pt x="293" y="212" on="0"/>
        <pt x="317" y="189" on="0"/>
        <pt x="333" y="164" on="0"/>
        <pt x="337" y="156" on="1"/>
        <pt x="46" y="156" on="1"/>
        <pt x="46" y="217" on="1"/>
      </contour>
    </TTGlyph>
    <TTGlyph name="g" xMin="54" yMin="-250" xMax="496" yMax="527">
      <contour>
        <pt x="54" y="256" on="1"/>
        <pt x="54" y="317" on="0"/>
        <pt x="93" y="417" on="0"/>
        <pt x="164" y="488" on="0"/>
        <pt x="261" y="527" on="0"/>
        <pt x="319" y="527" on="1"/>
        <pt x="361" y="527" on="0"/>
        <pt x="444" y="512" on="0"/>
        <pt x="496" y="495" on="1"/>
        <pt x="496" y="0" on="1"/>
        <pt x="496" y="-56" on="0"/>
        <pt x="463" y="-148" on="0"/>
        <pt x="401" y="-214" on="0"/>
        <pt x="314" y="-250" on="0"/>
        <pt x="259" y="-250" on="1"/>
        <pt x="220" y="-250" on="0"/>
        <pt x="128" y="-234" on="0"/>
        <pt x="78" y="-208" on="1"/>
        <pt x="104" y="-140" on="1"/>
        <pt x="147" y="-161" on="0"/>
        <pt x="219" y="-178" on="0"/>
        <pt x="251" y="-178" on="1"/>
        <pt x="282" y="-178" on="0"/>
        <pt x="338" y="-158" on="0"/>
        <pt x="380" y="-117" on="0"/>
        <pt x="405" y="-54" on="0"/>
        <pt x="405" y="-11" on="1"/>
        <pt x="405" y="444" on="1"/>
        <pt x="382" y="450" on="0"/>
        <pt x="342" y="455" on="0"/>
        <pt x="319" y="455" on="1"/>
        <pt x="244" y="455" on="0"/>
        <pt x="152" y="353" on="0"/>
        <pt x="152" y="256" on="1"/>
        <pt x="152" y="214" on="0"/>
        <pt x="169" y="141" on="0"/>
        <pt x="204" y="90" on="0"/>
        <pt x="255" y="64" on="0"/>
        <pt x="290" y="68" on="1"/>
        <pt x="312" y="70" on="0"/>
        <pt x="353" y="54" on="0"/>
        <pt x="371" y="31" on="1"/>
        <pt x="346" y="14" on="0"/>
        <pt x="294" y="-4" on="0"/>
        <pt x="271" y="-6" on="1"/>
        <pt x="226" y="-10" on="0"/>
        <pt x="147" y="25" on="0"/>
        <pt x="88" y="95" on="0"/>
        <pt x="54" y="195" on="0"/>
      </contour>
    </TTGlyph>
    <TTGlyph name="germandbls" xMin="91" yMin="-12" xMax="547" yMax="763">
      <contour>
        <pt x="273" y="87" on="1"/>
        <pt x="306" y="72" on="0"/>
        <pt x="363" y="60" on="0"/>
        <pt x="385" y="60" on="1"/>
        <pt x="415" y="60" on="0"/>
        <pt x="457" y="102" on="0"/>
        <pt x="457" y="136" on="1"/>
        <pt x="457" y="163" on="0"/>
        <pt x="431" y="203" on="0"/>
        <pt x="393" y="236" on="0"/>
        <pt x="347" y="269" on="0"/>
        <pt x="309" y="309" on="0"/>
        <pt x="283" y="363" on="0"/>
        <pt x="283" y="401" on="1"/>
        <pt x="283" y="445" on="0"/>
        <pt x="340" y="518" on="0"/>
        <pt x="395" y="541" on="1"/>
        <pt x="401" y="563" on="0"/>
        <pt x="401" y="588" on="1"/>
        <pt x="401" y="612" on="0"/>
        <pt x="384" y="651" on="0"/>
        <pt x="355" y="679" on="0"/>
        <pt x="318" y="695" on="0"/>
        <pt x="299" y="695" on="1"/>
        <pt x="278" y="695" on="0"/>
        <pt x="235" y="679" on="0"/>
        <pt x="200" y="646" on="0"/>
        <pt x="178" y="592" on="0"/>
        <pt x="178" y="555" on="1"/>
        <pt x="178" y="0" on="1"/>
        <pt x="91" y="0" on="1"/>
        <pt x="91" y="545" on="1"/>
        <pt x="91" y="594" on="0"/>
        <pt x="118" y="675" on="0"/>
        <pt x="169" y="732" on="0"/>
        <pt x="242" y="763" on="0"/>
        <pt x="288" y="763" on="1"/>
        <pt x="334" y="763" on="0"/>
        <pt x="406" y="734" on="0"/>
        <pt x="455" y="686" on="0"/>
        <pt x="480" y="623" on="0"/>
        <pt x="480" y="588" on="1"/>
        <pt x="480" y="562" on="0"/>
        <pt x="464" y="514" on="0"/>
        <pt x="445" y="484" on="1"/>
        <pt x="410" y="467" on="0"/>
        <pt x="373" y="430" on="0"/>
        <pt x="373" y="401" on="1"/>
        <pt x="373" y="374" on="0"/>
        <pt x="399" y="335" on="0"/>
        <pt x="437" y="302" on="0"/>
        <pt x="483" y="269" on="0"/>
        <pt x="521" y="226" on="0"/>
        <pt x="547" y="170" on="0"/>
        <pt x="547" y="131" on="1"/>
        <pt x="547" y="102" on="0"/>
        <pt x="523" y="50" on="0"/>
        <pt x="482" y="11" on="0"/>
        <pt x="426" y="-12" on="0"/>
        <pt x="394" y="-12" on="1"/>
        <pt x="364" y="-12" on="0"/>
        <pt x="297" y="1" on="0"/>
        <pt x="249" y="25" on="1"/>
      </contour>
    </TTGlyph>
    <TTGlyph name="grave" xMin="20" yMin="594" xMax="193" yMax="727">
      <contour>
        <pt x="20" y="727" on="1"/>
        <pt x="127" y="727" on="1"/>
        <pt x="193" y="602" on="1"/>
        <pt x="163" y="594" on="0"/>
        <pt x="111" y="607" on="0"/>
        <pt x="92" y="631" on="1"/>
      </contour>
    </TTGlyph>
    <TTGlyph name="greater" xMin="37" yMin="0" xMax="554" yMax="552">
      <contour>
        <pt x="444" y="270" on="1"/>
        <pt x="470" y="276" on="1"/>
        <pt x="444" y="283" on="1"/>
        <pt x="37" y="472" on="1"/>
        <pt x="37" y="552" on="1"/>
        <pt x="554" y="301" on="1"/>
        <pt x="554" y="251" on="1"/>
        <pt x="37" y="0" on="1"/>
        <pt x="37" y="81" on="1"/>
      </contour>
    </TTGlyph>
    <TTGlyph name="guillemotleft" xMin="72" yMin="50" xMax="582" yMax="466">
      <contour>
        <pt x="72" y="258" on="1"/>
        <pt x="288" y="466" on="1"/>
        <pt x="332" y="423" on="1"/>
        <pt x="188" y="258" on="1"/>
        <pt x="332" y="93" on="1"/>
        <pt x="288" y="50" on="1"/>
      </contour>
      <contour>
        <pt x="322" y="258" on="1"/>
        <pt x="538" y="466" on="1"/>
        <pt x="582" y="423" on="1"/>
        <pt x="438" y="258" on="1"/>
        <pt x="582" y="93" on="1"/>
        <pt x="538" y="50" on="1"/>
      </contour>
    </TTGlyph>
    <TTGlyph name="guillemotright" xMin="70" yMin="50" xMax="580" yMax="466">
      <contour>
        <pt x="114" y="50" on="1"/>
        <pt x="70" y="93" on="1"/>
        <pt x="214" y="258" on="1"/>
        <pt x="70" y="423" on="1"/>
        <pt x="114" y="466" on="1"/>
        <pt x="330" y="258" on="1"/>
      </contour>
      <contour>
        <pt x="364" y="50" on="1"/>
        <pt x="320" y="93" on="1"/>
        <pt x="464" y="258" on="1"/>
        <pt x="320" y="423" on="1"/>
        <pt x="364" y="466" on="1"/>
        <pt x="580" y="258" on="1"/>
      </contour>
    </TTGlyph>
    <TTGlyph name="guilsinglleft" xMin="197" yMin="50" xMax="457" yMax="466">
      <contour>
        <pt x="197" y="258" on="1"/>
        <pt x="413" y="466" on="1"/>
        <pt x="457" y="423" on="1"/>
        <pt x="313" y="258" on="1"/>
        <pt x="457" y="93" on="1"/>
        <pt x="413" y="50" on="1"/>
      </contour>
    </TTGlyph>
    <TTGlyph name="guilsinglright" xMin="197" yMin="50" xMax="457" yMax="466">
      <contour>
        <pt x="241" y="50" on="1"/>
        <pt x="197" y="93" on="1"/>
        <pt x="341" y="258" on="1"/>
        <pt x="197" y="423" on="1"/>
        <pt x="241" y="466" on="1"/>
        <pt x="457" y="258" on="1"/>
      </contour>
    </TTGlyph>
    <TTGlyph name="h" xMin="83" yMin="0" xMax="502" yMax="758">
      <contour>
        <pt x="83" y="0" on="1"/>
        <pt x="83" y="758" on="1"/>
        <pt x="176" y="758" on="1"/>
        <pt x="176" y="0" on="1"/>
      </contour>
      <contour>
        <pt x="406" y="376" on="1"/>
        <pt x="406" y="411" on="0"/>
        <pt x="379" y="455" on="0"/>
        <pt x="350" y="455" on="1"/>
        <pt x="338" y="455" on="0"/>
        <pt x="323" y="450" on="0"/>
        <pt x="309" y="447" on="1"/>
        <pt x="280" y="440" on="0"/>
        <pt x="232" y="452" on="0"/>
        <pt x="211" y="474" on="1"/>
        <pt x="264" y="505" on="0"/>
        <pt x="334" y="527" on="0"/>
        <pt x="362" y="527" on="1"/>
        <pt x="391" y="527" on="0"/>
        <pt x="442" y="512" on="0"/>
        <pt x="480" y="474" on="0"/>
        <pt x="502" y="412" on="0"/>
        <pt x="502" y="366" on="1"/>
        <pt x="502" y="0" on="1"/>
        <pt x="406" y="0" on="1"/>
      </contour>
    </TTGlyph>
    <TTGlyph name="hyphen" xMin="45" yMin="273" xMax="347" yMax="337">
      <contour>
        <pt x="45" y="273" on="1"/>
        <pt x="45" y="337" on="1"/>
        <pt x="347" y="337" on="1"/>
        <pt x="347" y="273" on="1"/>
      </contour>
    </TTGlyph>
    <TTGlyph name="i" xMin="68" yMin="0" xMax="188" yMax="728">
      <contour>
        <pt x="80" y="0" on="1"/>
        <pt x="80" y="517" on="1"/>
        <pt x="176" y="517" on="1"/>
        <pt x="176" y="0" on="1"/>
      </contour>
      <contour>
        <pt x="68" y="667" on="1"/>
        <pt x="68" y="693" on="0"/>
        <pt x="102" y="728" on="0"/>
        <pt x="128" y="728" on="1"/>
        <pt x="154" y="728" on="0"/>
        <pt x="188" y="693" on="0"/>
        <pt x="188" y="667" on="1"/>
        <pt x="188" y="641" on="0"/>
        <pt x="154" y="607" on="0"/>
        <pt x="128" y="607" on="1"/>
        <pt x="102" y="607" on="0"/>
        <pt x="68" y="641" on="0"/>
      </contour>
    </TTGlyph>
    <TTGlyph name="iacute" xMin="70" yMin="0" xMax="258" yMax="740">
      <contour>
        <pt x="70" y="0" on="1"/>
        <pt x="70" y="517" on="1"/>
        <pt x="166" y="517" on="1"/>
        <pt x="166" y="0" on="1"/>
      </contour>
      <contour>
        <pt x="170" y="631" on="1"/>
        <pt x="150" y="607" on="0"/>
        <pt x="98" y="595" on="0"/>
        <pt x="72" y="602" on="1"/>
        <pt x="161" y="740" on="1"/>
        <pt x="258" y="740" on="1"/>
      </contour>
    </TTGlyph>
    <TTGlyph name="icircumflex" xMin="30" yMin="0" xMax="307" yMax="743">
      <contour>
        <pt x="119" y="0" on="1"/>
        <pt x="119" y="517" on="1"/>
        <pt x="215" y="517" on="1"/>
        <pt x="215" y="0" on="1"/>
      </contour>
      <contour>
        <pt x="196" y="743" on="1"/>
        <pt x="307" y="598" on="1"/>
        <pt x="255" y="590" on="1"/>
        <pt x="167" y="674" on="1"/>
        <pt x="79" y="589" on="1"/>
        <pt x="30" y="598" on="1"/>
        <pt x="139" y="743" on="1"/>
      </contour>
    </TTGlyph>
    <TTGlyph name="idieresis" xMin="27" yMin="0" xMax="325" yMax="722">
      <contour>
        <pt x="129" y="0" on="1"/>
        <pt x="129" y="517" on="1"/>
        <pt x="225" y="517" on="1"/>
        <pt x="225" y="0" on="1"/>
      </contour>
      <contour>
        <pt x="27" y="670" on="1"/>
        <pt x="27" y="692" on="0"/>
        <pt x="58" y="722" on="0"/>
        <pt x="79" y="722" on="1"/>
        <pt x="101" y="722" on="0"/>
        <pt x="132" y="692" on="0"/>
        <pt x="132" y="670" on="1"/>
        <pt x="132" y="648" on="0"/>
        <pt x="101" y="618" on="0"/>
        <pt x="79" y="618" on="1"/>
        <pt x="58" y="618" on="0"/>
        <pt x="27" y="648" on="0"/>
      </contour>
      <contour>
        <pt x="220" y="670" on="1"/>
        <pt x="220" y="692" on="0"/>
        <pt x="251" y="722" on="0"/>
        <pt x="272" y="722" on="1"/>
        <pt x="294" y="722" on="0"/>
        <pt x="325" y="692" on="0"/>
        <pt x="325" y="670" on="1"/>
        <pt x="325" y="648" on="0"/>
        <pt x="294" y="618" on="0"/>
        <pt x="272" y="618" on="1"/>
        <pt x="251" y="618" on="0"/>
        <pt x="220" y="648" on="0"/>
      </contour>
    </TTGlyph>
    <TTGlyph name="igrave" xMin="20" yMin="0" xMax="206" yMax="740">
      <contour>
        <pt x="110" y="0" on="1"/>
        <pt x="110" y="517" on="1"/>
        <pt x="206" y="517" on="1"/>
        <pt x="206" y="0" on="1"/>
      </contour>
      <contour>
        <pt x="20" y="740" on="1"/>
        <pt x="115" y="740" on="1"/>
        <pt x="188" y="602" on="1"/>
        <pt x="162" y="596" on="0"/>
        <pt x="111" y="607" on="0"/>
        <pt x="92" y="631" on="1"/>
      </contour>
    </TTGlyph>
    <TTGlyph name="j" xMin="-25" yMin="-248" xMax="210" yMax="729">
      <contour>
        <pt x="89" y="667" on="1"/>
        <pt x="89" y="694" on="0"/>
        <pt x="122" y="729" on="0"/>
        <pt x="148" y="729" on="1"/>
        <pt x="175" y="729" on="0"/>
        <pt x="210" y="694" on="0"/>
        <pt x="210" y="667" on="1"/>
        <pt x="210" y="641" on="0"/>
        <pt x="175" y="607" on="0"/>
        <pt x="148" y="607" on="1"/>
        <pt x="122" y="607" on="0"/>
        <pt x="89" y="641" on="0"/>
      </contour>
      <contour>
        <pt x="196" y="39" on="1"/>
        <pt x="196" y="-1" on="0"/>
        <pt x="182" y="-71" on="0"/>
        <pt x="143" y="-139" on="0"/>
        <pt x="74" y="-209" on="0"/>
        <pt x="18" y="-248" on="1"/>
        <pt x="-25" y="-195" on="1"/>
        <pt x="16" y="-160" on="0"/>
        <pt x="65" y="-104" on="0"/>
        <pt x="92" y="-52" on="0"/>
        <pt x="101" y="4" on="0"/>
        <pt x="101" y="39" on="1"/>
        <pt x="101" y="517" on="1"/>
        <pt x="196" y="517" on="1"/>
      </contour>
    </TTGlyph>
    <TTGlyph name="k" xMin="83" yMin="0" xMax="557" yMax="758">
      <contour>
        <pt x="176" y="0" on="1"/>
        <pt x="83" y="0" on="1"/>
        <pt x="83" y="758" on="1"/>
        <pt x="176" y="758" on="1"/>
      </contour>
      <contour>
        <pt x="362" y="335" on="1"/>
        <pt x="557" y="0" on="1"/>
        <pt x="451" y="0" on="1"/>
        <pt x="303" y="270" on="1"/>
        <pt x="226" y="183" on="1"/>
        <pt x="220" y="198" on="0"/>
        <pt x="217" y="234" on="0"/>
        <pt x="224" y="273" on="0"/>
        <pt x="240" y="312" on="0"/>
        <pt x="254" y="328" on="1"/>
        <pt x="417" y="517" on="1"/>
        <pt x="527" y="517" on="1"/>
      </contour>
    </TTGlyph>
    <TTGlyph name="l" xMin="85" yMin="0" xMax="176" yMax="758">
      <contour>
        <pt x="176" y="0" on="1"/>
        <pt x="85" y="0" on="1"/>
        <pt x="85" y="758" on="1"/>
        <pt x="176" y="758" on="1"/>
      </contour>
    </TTGlyph>
    <TTGlyph name="less" xMin="37" yMin="0" xMax="554" yMax="552">
      <contour>
        <pt x="554" y="81" on="1"/>
        <pt x="554" y="0" on="1"/>
        <pt x="37" y="251" on="1"/>
        <pt x="37" y="301" on="1"/>
        <pt x="554" y="552" on="1"/>
        <pt x="554" y="472" on="1"/>
        <pt x="147" y="283" on="1"/>
        <pt x="121" y="276" on="1"/>
        <pt x="147" y="270" on="1"/>
      </contour>
    </TTGlyph>
    <TTGlyph name="logicalnot" xMin="43" yMin="156" xMax="529" yMax="438">
      <contour>
        <pt x="529" y="438" on="1"/>
        <pt x="529" y="156" on="1"/>
        <pt x="456" y="156" on="1"/>
        <pt x="456" y="374" on="1"/>
        <pt x="43" y="374" on="1"/>
        <pt x="43" y="438" on="1"/>
      </contour>
    </TTGlyph>
    <TTGlyph name="m" xMin="70" yMin="0" xMax="824" yMax="527">
      <contour>
        <pt x="142" y="517" on="1"/>
        <pt x="166" y="490" on="0"/>
        <pt x="181" y="437" on="0"/>
        <pt x="181" y="407" on="1"/>
        <pt x="181" y="0" on="1"/>
        <pt x="85" y="0" on="1"/>
        <pt x="85" y="391" on="1"/>
        <pt x="85" y="419" on="0"/>
        <pt x="78" y="482" on="0"/>
        <pt x="70" y="517" on="1"/>
      </contour>
      <contour>
        <pt x="407" y="376" on="1"/>
        <pt x="407" y="411" on="0"/>
        <pt x="378" y="455" on="0"/>
        <pt x="349" y="455" on="1"/>
        <pt x="337" y="455" on="0"/>
        <pt x="319" y="451" on="0"/>
        <pt x="306" y="448" on="1"/>
        <pt x="277" y="441" on="0"/>
        <pt x="229" y="453" on="0"/>
        <pt x="208" y="475" on="1"/>
        <pt x="261" y="506" on="0"/>
        <pt x="333" y="527" on="0"/>
        <pt x="360" y="527" on="1"/>
        <pt x="389" y="527" on="0"/>
        <pt x="441" y="512" on="0"/>
        <pt x="480" y="474" on="0"/>
        <pt x="503" y="412" on="0"/>
        <pt x="503" y="366" on="1"/>
        <pt x="503" y="0" on="1"/>
        <pt x="407" y="0" on="1"/>
      </contour>
      <contour>
        <pt x="728" y="376" on="1"/>
        <pt x="728" y="411" on="0"/>
        <pt x="698" y="455" on="0"/>
        <pt x="666" y="455" on="1"/>
        <pt x="654" y="455" on="0"/>
        <pt x="634" y="450" on="0"/>
        <pt x="620" y="447" on="1"/>
        <pt x="591" y="440" on="0"/>
        <pt x="541" y="452" on="0"/>
        <pt x="520" y="474" on="1"/>
        <pt x="574" y="506" on="0"/>
        <pt x="649" y="527" on="0"/>
        <pt x="676" y="527" on="1"/>
        <pt x="706" y="527" on="0"/>
        <pt x="759" y="512" on="0"/>
        <pt x="800" y="474" on="0"/>
        <pt x="824" y="412" on="0"/>
        <pt x="824" y="366" on="1"/>
        <pt x="824" y="0" on="1"/>
        <pt x="728" y="0" on="1"/>
      </contour>
    </TTGlyph>
    <TTGlyph name="macron" xMin="115" yMin="613" xMax="407" yMax="677">
      <contour>
        <pt x="115" y="613" on="1"/>
        <pt x="115" y="677" on="1"/>
        <pt x="407" y="677" on="1"/>
        <pt x="407" y="613" on="1"/>
      </contour>
    </TTGlyph>
    <TTGlyph name="mu" xMin="74" yMin="-211" xMax="554" yMax="517">
      <contour>
        <pt x="396" y="61" on="1"/>
        <pt x="377" y="35" on="0"/>
        <pt x="315" y="-10" on="0"/>
        <pt x="265" y="-10" on="1"/>
        <pt x="206" y="-10" on="0"/>
        <pt x="173" y="25" on="1"/>
        <pt x="158" y="47" on="1"/>
        <pt x="160" y="15" on="1"/>
        <pt x="160" y="-211" on="1"/>
        <pt x="74" y="-211" on="1"/>
        <pt x="74" y="517" on="1"/>
        <pt x="166" y="517" on="1"/>
        <pt x="166" y="210" on="1"/>
        <pt x="166" y="180" on="0"/>
        <pt x="179" y="128" on="0"/>
        <pt x="206" y="88" on="0"/>
        <pt x="246" y="65" on="0"/>
        <pt x="274" y="65" on="1"/>
        <pt x="297" y="65" on="0"/>
        <pt x="341" y="87" on="0"/>
        <pt x="376" y="123" on="0"/>
        <pt x="397" y="172" on="0"/>
        <pt x="397" y="199" on="1"/>
        <pt x="397" y="517" on="1"/>
        <pt x="490" y="517" on="1"/>
        <pt x="490" y="141" on="1"/>
        <pt x="490" y="99" on="0"/>
        <pt x="514" y="65" on="0"/>
        <pt x="545" y="67" on="1"/>
        <pt x="554" y="3" on="1"/>
        <pt x="537" y="-3" on="0"/>
        <pt x="511" y="-8" on="0"/>
        <pt x="500" y="-8" on="1"/>
        <pt x="469" y="-8" on="0"/>
        <pt x="422" y="23" on="0"/>
        <pt x="412" y="61" on="1"/>
        <pt x="408" y="85" on="1"/>
      </contour>
    </TTGlyph>
    <TTGlyph name="multiply" xMin="54" yMin="79" xMax="507" yMax="531">
      <contour>
        <pt x="54" y="124" on="1"/>
        <pt x="235" y="306" on="1"/>
        <pt x="54" y="486" on="1"/>
        <pt x="100" y="531" on="1"/>
        <pt x="281" y="351" on="1"/>
        <pt x="460" y="531" on="1"/>
        <pt x="505" y="486" on="1"/>
        <pt x="326" y="306" on="1"/>
        <pt x="507" y="124" on="1"/>
        <pt x="462" y="79" on="1"/>
        <pt x="281" y="260" on="1"/>
        <pt x="99" y="79" on="1"/>
      </contour>
    </TTGlyph>
    <TTGlyph name="n" xMin="70" yMin="0" xMax="509" yMax="527">
      <contour>
        <pt x="142" y="517" on="1"/>
        <pt x="166" y="490" on="0"/>
        <pt x="181" y="437" on="0"/>
        <pt x="181" y="407" on="1"/>
        <pt x="181" y="0" on="1"/>
        <pt x="85" y="0" on="1"/>
        <pt x="85" y="391" on="1"/>
        <pt x="85" y="419" on="0"/>
        <pt x="78" y="482" on="0"/>
        <pt x="70" y="517" on="1"/>
      </contour>
      <contour>
        <pt x="413" y="376" on="1"/>
        <pt x="413" y="411" on="0"/>
        <pt x="382" y="455" on="0"/>
        <pt x="351" y="455" on="1"/>
        <pt x="339" y="455" on="0"/>
        <pt x="321" y="450" on="0"/>
        <pt x="308" y="447" on="1"/>
        <pt x="279" y="440" on="0"/>
        <pt x="229" y="452" on="0"/>
        <pt x="208" y="474" on="1"/>
        <pt x="261" y="505" on="0"/>
        <pt x="333" y="527" on="0"/>
        <pt x="360" y="527" on="1"/>
        <pt x="390" y="527" on="0"/>
        <pt x="444" y="512" on="0"/>
        <pt x="485" y="474" on="0"/>
        <pt x="509" y="412" on="0"/>
        <pt x="509" y="366" on="1"/>
        <pt x="509" y="0" on="1"/>
        <pt x="413" y="0" on="1"/>
      </contour>
    </TTGlyph>
    <TTGlyph name="nine" xMin="76" yMin="-10" xMax="566" yMax="710">
      <contour>
        <pt x="229" y="63" on="1"/>
        <pt x="283" y="63" on="0"/>
        <pt x="371" y="108" on="0"/>
        <pt x="434" y="190" on="0"/>
        <pt x="468" y="302" on="0"/>
        <pt x="468" y="370" on="1"/>
        <pt x="468" y="410" on="0"/>
        <pt x="455" y="504" on="0"/>
        <pt x="419" y="585" on="0"/>
        <pt x="356" y="638" on="0"/>
        <pt x="307" y="638" on="1"/>
        <pt x="277" y="638" on="0"/>
        <pt x="228" y="615" on="0"/>
        <pt x="194" y="573" on="0"/>
        <pt x="175" y="515" on="0"/>
        <pt x="175" y="481" on="1"/>
        <pt x="175" y="413" on="0"/>
        <pt x="238" y="342" on="0"/>
        <pt x="284" y="342" on="1"/>
        <pt x="291" y="342" on="0"/>
        <pt x="307" y="344" on="0"/>
        <pt x="319" y="346" on="1"/>
        <pt x="338" y="351" on="0"/>
        <pt x="372" y="348" on="0"/>
        <pt x="401" y="338" on="0"/>
        <pt x="422" y="323" on="0"/>
        <pt x="429" y="316" on="1"/>
        <pt x="403" y="302" on="0"/>
        <pt x="364" y="285" on="0"/>
        <pt x="331" y="275" on="0"/>
        <pt x="301" y="271" on="0"/>
        <pt x="284" y="271" on="1"/>
        <pt x="239" y="271" on="0"/>
        <pt x="163" y="298" on="0"/>
        <pt x="107" y="351" on="0"/>
        <pt x="76" y="430" on="0"/>
        <pt x="76" y="481" on="1"/>
        <pt x="76" y="524" on="0"/>
        <pt x="109" y="607" on="0"/>
        <pt x="169" y="671" on="0"/>
        <pt x="253" y="710" on="0"/>
        <pt x="304" y="710" on="1"/>
        <pt x="379" y="710" on="0"/>
        <pt x="480" y="650" on="0"/>
        <pt x="540" y="554" on="0"/>
        <pt x="566" y="433" on="0"/>
        <pt x="566" y="372" on="1"/>
        <pt x="566" y="303" on="0"/>
        <pt x="522" y="166" on="0"/>
        <pt x="436" y="58" on="0"/>
        <pt x="310" y="-10" on="0"/>
        <pt x="229" y="-10" on="1"/>
        <pt x="177" y="-10" on="0"/>
        <pt x="124" y="15" on="1"/>
        <pt x="147" y="81" on="1"/>
        <pt x="169" y="71" on="0"/>
        <pt x="211" y="63" on="0"/>
      </contour>
    </TTGlyph>
    <TTGlyph name="ntilde" xMin="70" yMin="0" xMax="509" yMax="734">
      <contour>
        <pt x="142" y="517" on="1"/>
        <pt x="166" y="490" on="0"/>
        <pt x="181" y="437" on="0"/>
        <pt x="181" y="407" on="1"/>
        <pt x="181" y="0" on="1"/>
        <pt x="85" y="0" on="1"/>
        <pt x="85" y="391" on="1"/>
        <pt x="85" y="419" on="0"/>
        <pt x="78" y="482" on="0"/>
        <pt x="70" y="517" on="1"/>
      </contour>
      <contour>
        <pt x="413" y="376" on="1"/>
        <pt x="413" y="411" on="0"/>
        <pt x="382" y="455" on="0"/>
        <pt x="351" y="455" on="1"/>
        <pt x="339" y="455" on="0"/>
        <pt x="321" y="450" on="0"/>
        <pt x="308" y="447" on="1"/>
        <pt x="279" y="440" on="0"/>
        <pt x="229" y="452" on="0"/>
        <pt x="208" y="474" on="1"/>
        <pt x="261" y="505" on="0"/>
        <pt x="333" y="527" on="0"/>
        <pt x="360" y="527" on="1"/>
        <pt x="390" y="527" on="0"/>
        <pt x="444" y="512" on="0"/>
        <pt x="485" y="474" on="0"/>
        <pt x="509" y="412" on="0"/>
        <pt x="509" y="366" on="1"/>
        <pt x="509" y="0" on="1"/>
        <pt x="413" y="0" on="1"/>
      </contour>
      <contour>
        <pt x="152" y="624" on="1"/>
        <pt x="154" y="681" on="0"/>
        <pt x="205" y="731" on="0"/>
        <pt x="241" y="732" on="1"/>
        <pt x="278" y="732" on="0"/>
        <pt x="305" y="708" on="1"/>
        <pt x="319" y="696" on="0"/>
        <pt x="339" y="676" on="0"/>
        <pt x="359" y="676" on="1"/>
        <pt x="385" y="676" on="0"/>
        <pt x="390" y="734" on="1"/>
        <pt x="443" y="728" on="1"/>
        <pt x="441" y="696" on="0"/>
        <pt x="426" y="655" on="0"/>
        <pt x="402" y="630" on="0"/>
        <pt x="373" y="620" on="0"/>
        <pt x="359" y="620" on="1"/>
        <pt x="318" y="620" on="0"/>
        <pt x="294" y="643" on="1"/>
        <pt x="280" y="655" on="0"/>
        <pt x="259" y="676" on="0"/>
        <pt x="242" y="676" on="1"/>
        <pt x="229" y="676" on="0"/>
        <pt x="209" y="650" on="0"/>
        <pt x="207" y="618" on="1"/>
      </contour>
    </TTGlyph>
    <TTGlyph name="numbersign" xMin="82" yMin="0" xMax="757" yMax="702">
      <contour>
        <pt x="501" y="165" on="1"/>
        <pt x="306" y="165" on="1"/>
        <pt x="316" y="194" on="0"/>
        <pt x="355" y="230" on="0"/>
        <pt x="390" y="230" on="1"/>
        <pt x="513" y="230" on="1"/>
        <pt x="559" y="474" on="1"/>
        <pt x="329" y="474" on="1"/>
        <pt x="239" y="0" on="1"/>
        <pt x="163" y="0" on="1"/>
        <pt x="194" y="165" on="1"/>
        <pt x="82" y="165" on="1"/>
        <pt x="82" y="230" on="1"/>
        <pt x="206" y="230" on="1"/>
        <pt x="252" y="474" on="1"/>
        <pt x="141" y="474" on="1"/>
        <pt x="141" y="539" on="1"/>
        <pt x="265" y="539" on="1"/>
        <pt x="296" y="702" on="1"/>
        <pt x="372" y="702" on="1"/>
        <pt x="341" y="539" on="1"/>
        <pt x="572" y="539" on="1"/>
        <pt x="603" y="702" on="1"/>
        <pt x="679" y="702" on="1"/>
        <pt x="648" y="539" on="1"/>
        <pt x="757" y="539" on="1"/>
        <pt x="757" y="474" on="1"/>
        <pt x="636" y="474" on="1"/>
        <pt x="589" y="230" on="1"/>
        <pt x="698" y="230" on="1"/>
        <pt x="698" y="165" on="1"/>
        <pt x="577" y="165" on="1"/>
        <pt x="546" y="0" on="1"/>
        <pt x="470" y="0" on="1"/>
      </contour>
    </TTGlyph>
    <TTGlyph name="o" xMin="40" yMin="-10" xMax="522" yMax="527">
      <contour>
        <pt x="40" y="259" on="1"/>
        <pt x="40" y="328" on="0"/>
        <pt x="82" y="429" on="0"/>
        <pt x="150" y="495" on="0"/>
        <pt x="237" y="527" on="0"/>
        <pt x="281" y="527" on="1"/>
        <pt x="338" y="527" on="0"/>
        <pt x="428" y="485" on="0"/>
        <pt x="490" y="413" on="0"/>
        <pt x="522" y="315" on="0"/>
        <pt x="522" y="259" on="1"/>
        <pt x="522" y="194" on="0"/>
        <pt x="483" y="93" on="0"/>
        <pt x="417" y="25" on="0"/>
        <pt x="329" y="-10" on="0"/>
        <pt x="281" y="-10" on="1"/>
        <pt x="231" y="-10" on="0"/>
        <pt x="143" y="25" on="0"/>
        <pt x="78" y="93" on="0"/>
        <pt x="40" y="194" on="0"/>
      </contour>
      <contour>
        <pt x="139" y="259" on="1"/>
        <pt x="139" y="215" on="0"/>
        <pt x="158" y="143" on="0"/>
        <pt x="194" y="91" on="0"/>
        <pt x="247" y="62" on="0"/>
        <pt x="281" y="62" on="1"/>
        <pt x="317" y="62" on="0"/>
        <pt x="371" y="93" on="0"/>
        <pt x="406" y="147" on="0"/>
        <pt x="423" y="219" on="0"/>
        <pt x="423" y="259" on="1"/>
        <pt x="423" y="309" on="0"/>
        <pt x="400" y="383" on="0"/>
        <pt x="361" y="431" on="0"/>
        <pt x="309" y="455" on="0"/>
        <pt x="281" y="455" on="1"/>
        <pt x="252" y="455" on="0"/>
        <pt x="201" y="431" on="0"/>
        <pt x="162" y="383" on="0"/>
        <pt x="139" y="309" on="0"/>
      </contour>
    </TTGlyph>
    <TTGlyph name="oacute" xMin="40" yMin="-10" xMax="522" yMax="740">
      <contour>
        <pt x="522" y="259" on="1"/>
        <pt x="522" y="194" on="0"/>
        <pt x="483" y="93" on="0"/>
        <pt x="417" y="25" on="0"/>
        <pt x="329" y="-10" on="0"/>
        <pt x="281" y="-10" on="1"/>
        <pt x="231" y="-10" on="0"/>
        <pt x="143" y="25" on="0"/>
        <pt x="78" y="93" on="0"/>
        <pt x="40" y="194" on="0"/>
        <pt x="40" y="259" on="1"/>
        <pt x="40" y="324" on="0"/>
        <pt x="79" y="424" on="0"/>
        <pt x="145" y="492" on="0"/>
        <pt x="233" y="527" on="0"/>
        <pt x="281" y="527" on="1"/>
        <pt x="331" y="527" on="0"/>
        <pt x="419" y="492" on="0"/>
        <pt x="484" y="424" on="0"/>
        <pt x="522" y="324" on="0"/>
      </contour>
      <contour>
        <pt x="423" y="259" on="1"/>
        <pt x="423" y="309" on="0"/>
        <pt x="400" y="383" on="0"/>
        <pt x="361" y="431" on="0"/>
        <pt x="309" y="455" on="0"/>
        <pt x="281" y="455" on="1"/>
        <pt x="252" y="455" on="0"/>
        <pt x="201" y="431" on="0"/>
        <pt x="162" y="383" on="0"/>
        <pt x="139" y="309" on="0"/>
        <pt x="139" y="259" on="1"/>
        <pt x="139" y="208" on="0"/>
        <pt x="162" y="134" on="0"/>
        <pt x="201" y="86" on="0"/>
        <pt x="252" y="62" on="0"/>
        <pt x="281" y="62" on="1"/>
        <pt x="309" y="62" on="0"/>
        <pt x="361" y="86" on="0"/>
        <pt x="400" y="134" on="0"/>
        <pt x="423" y="208" on="0"/>
      </contour>
      <contour>
        <pt x="333" y="631" on="1"/>
        <pt x="313" y="607" on="0"/>
        <pt x="261" y="595" on="0"/>
        <pt x="235" y="602" on="1"/>
        <pt x="324" y="740" on="1"/>
        <pt x="421" y="740" on="1"/>
      </contour>
    </TTGlyph>
    <TTGlyph name="ocircumflex" xMin="40" yMin="-10" xMax="522" yMax="743">
      <contour>
        <pt x="522" y="259" on="1"/>
        <pt x="522" y="194" on="0"/>
        <pt x="483" y="93" on="0"/>
        <pt x="417" y="25" on="0"/>
        <pt x="329" y="-10" on="0"/>
        <pt x="281" y="-10" on="1"/>
        <pt x="231" y="-10" on="0"/>
        <pt x="143" y="25" on="0"/>
        <pt x="78" y="93" on="0"/>
        <pt x="40" y="194" on="0"/>
        <pt x="40" y="259" on="1"/>
        <pt x="40" y="324" on="0"/>
        <pt x="79" y="424" on="0"/>
        <pt x="145" y="492" on="0"/>
        <pt x="233" y="527" on="0"/>
        <pt x="281" y="527" on="1"/>
        <pt x="331" y="527" on="0"/>
        <pt x="419" y="492" on="0"/>
        <pt x="484" y="424" on="0"/>
        <pt x="522" y="324" on="0"/>
      </contour>
      <contour>
        <pt x="423" y="259" on="1"/>
        <pt x="423" y="309" on="0"/>
        <pt x="400" y="383" on="0"/>
        <pt x="361" y="431" on="0"/>
        <pt x="309" y="455" on="0"/>
        <pt x="281" y="455" on="1"/>
        <pt x="252" y="455" on="0"/>
        <pt x="201" y="431" on="0"/>
        <pt x="162" y="383" on="0"/>
        <pt x="139" y="309" on="0"/>
        <pt x="139" y="259" on="1"/>
        <pt x="139" y="208" on="0"/>
        <pt x="162" y="134" on="0"/>
        <pt x="201" y="86" on="0"/>
        <pt x="252" y="62" on="0"/>
        <pt x="281" y="62" on="1"/>
        <pt x="309" y="62" on="0"/>
        <pt x="361" y="86" on="0"/>
        <pt x="400" y="134" on="0"/>
        <pt x="423" y="208" on="0"/>
      </contour>
      <contour>
        <pt x="310" y="743" on="1"/>
        <pt x="421" y="598" on="1"/>
        <pt x="369" y="590" on="1"/>
        <pt x="281" y="674" on="1"/>
        <pt x="193" y="589" on="1"/>
        <pt x="144" y="598" on="1"/>
        <pt x="253" y="743" on="1"/>
      </contour>
    </TTGlyph>
    <TTGlyph name="odieresis" xMin="40" yMin="-10" xMax="522" yMax="722">
      <contour>
        <pt x="522" y="259" on="1"/>
        <pt x="522" y="194" on="0"/>
        <pt x="483" y="93" on="0"/>
        <pt x="417" y="25" on="0"/>
        <pt x="329" y="-10" on="0"/>
        <pt x="281" y="-10" on="1"/>
        <pt x="231" y="-10" on="0"/>
        <pt x="143" y="25" on="0"/>
        <pt x="78" y="93" on="0"/>
        <pt x="40" y="194" on="0"/>
        <pt x="40" y="259" on="1"/>
        <pt x="40" y="324" on="0"/>
        <pt x="79" y="424" on="0"/>
        <pt x="145" y="492" on="0"/>
        <pt x="233" y="527" on="0"/>
        <pt x="281" y="527" on="1"/>
        <pt x="331" y="527" on="0"/>
        <pt x="419" y="492" on="0"/>
        <pt x="484" y="424" on="0"/>
        <pt x="522" y="324" on="0"/>
      </contour>
      <contour>
        <pt x="423" y="259" on="1"/>
        <pt x="423" y="309" on="0"/>
        <pt x="400" y="383" on="0"/>
        <pt x="361" y="431" on="0"/>
        <pt x="309" y="455" on="0"/>
        <pt x="281" y="455" on="1"/>
        <pt x="252" y="455" on="0"/>
        <pt x="201" y="431" on="0"/>
        <pt x="162" y="383" on="0"/>
        <pt x="139" y="309" on="0"/>
        <pt x="139" y="259" on="1"/>
        <pt x="139" y="208" on="0"/>
        <pt x="162" y="134" on="0"/>
        <pt x="201" y="86" on="0"/>
        <pt x="252" y="62" on="0"/>
        <pt x="281" y="62" on="1"/>
        <pt x="309" y="62" on="0"/>
        <pt x="361" y="86" on="0"/>
        <pt x="400" y="134" on="0"/>
        <pt x="423" y="208" on="0"/>
      </contour>
      <contour>
        <pt x="131" y="670" on="1"/>
        <pt x="131" y="692" on="0"/>
        <pt x="162" y="722" on="0"/>
        <pt x="183" y="722" on="1"/>
        <pt x="205" y="722" on="0"/>
        <pt x="236" y="692" on="0"/>
        <pt x="236" y="670" on="1"/>
        <pt x="236" y="648" on="0"/>
        <pt x="205" y="618" on="0"/>
        <pt x="183" y="618" on="1"/>
        <pt x="162" y="618" on="0"/>
        <pt x="131" y="648" on="0"/>
      </contour>
      <contour>
        <pt x="325" y="670" on="1"/>
        <pt x="325" y="692" on="0"/>
        <pt x="356" y="722" on="0"/>
        <pt x="378" y="722" on="1"/>
        <pt x="399" y="722" on="0"/>
        <pt x="430" y="692" on="0"/>
        <pt x="430" y="670" on="1"/>
        <pt x="430" y="648" on="0"/>
        <pt x="399" y="618" on="0"/>
        <pt x="378" y="618" on="1"/>
        <pt x="356" y="618" on="0"/>
        <pt x="325" y="648" on="0"/>
      </contour>
    </TTGlyph>
    <TTGlyph name="oe" xMin="40" yMin="-10" xMax="858" yMax="527">
      <contour>
        <pt x="516" y="259" on="1"/>
        <pt x="516" y="215" on="0"/>
        <pt x="541" y="142" on="0"/>
        <pt x="583" y="90" on="0"/>
        <pt x="641" y="62" on="0"/>
        <pt x="675" y="62" on="1"/>
        <pt x="710" y="62" on="0"/>
        <pt x="771" y="76" on="0"/>
        <pt x="814" y="98" on="1"/>
        <pt x="839" y="32" on="1"/>
        <pt x="791" y="7" on="0"/>
        <pt x="701" y="-10" on="0"/>
        <pt x="665" y="-10" on="1"/>
        <pt x="601" y="-10" on="0"/>
        <pt x="503" y="62" on="0"/>
        <pt x="471" y="120" on="1"/>
        <pt x="442" y="58" on="0"/>
        <pt x="340" y="-10" on="0"/>
        <pt x="281" y="-10" on="1"/>
        <pt x="231" y="-10" on="0"/>
        <pt x="143" y="25" on="0"/>
        <pt x="78" y="93" on="0"/>
        <pt x="40" y="194" on="0"/>
        <pt x="40" y="259" on="1"/>
        <pt x="40" y="324" on="0"/>
        <pt x="79" y="424" on="0"/>
        <pt x="145" y="492" on="0"/>
        <pt x="233" y="527" on="0"/>
        <pt x="281" y="527" on="1"/>
        <pt x="341" y="527" on="0"/>
        <pt x="437" y="468" on="0"/>
        <pt x="469" y="402" on="1"/>
        <pt x="496" y="462" on="0"/>
        <pt x="602" y="527" on="0"/>
        <pt x="668" y="527" on="1"/>
        <pt x="719" y="527" on="0"/>
        <pt x="799" y="481" on="0"/>
        <pt x="847" y="404" on="0"/>
        <pt x="858" y="304" on="0"/>
        <pt x="842" y="250" on="1"/>
        <pt x="552" y="250" on="1"/>
        <pt x="563" y="279" on="0"/>
        <pt x="601" y="317" on="0"/>
        <pt x="637" y="317" on="1"/>
        <pt x="764" y="317" on="1"/>
        <pt x="767" y="346" on="0"/>
        <pt x="753" y="396" on="0"/>
        <pt x="724" y="434" on="0"/>
        <pt x="682" y="455" on="0"/>
        <pt x="658" y="455" on="1"/>
        <pt x="596" y="455" on="0"/>
        <pt x="518" y="356" on="0"/>
      </contour>
      <contour>
        <pt x="423" y="259" on="1"/>
        <pt x="422" y="310" on="0"/>
        <pt x="398" y="384" on="0"/>
        <pt x="359" y="432" on="0"/>
        <pt x="309" y="455" on="0"/>
        <pt x="281" y="455" on="1"/>
        <pt x="252" y="455" on="0"/>
        <pt x="201" y="431" on="0"/>
        <pt x="162" y="383" on="0"/>
        <pt x="139" y="309" on="0"/>
        <pt x="139" y="259" on="1"/>
        <pt x="139" y="208" on="0"/>
        <pt x="162" y="134" on="0"/>
        <pt x="201" y="86" on="0"/>
        <pt x="252" y="62" on="0"/>
        <pt x="281" y="62" on="1"/>
        <pt x="309" y="62" on="0"/>
        <pt x="359" y="85" on="0"/>
        <pt x="398" y="133" on="0"/>
        <pt x="422" y="207" on="0"/>
      </contour>
    </TTGlyph>
    <TTGlyph name="ograve" xMin="40" yMin="-10" xMax="522" yMax="740">
      <contour>
        <pt x="522" y="259" on="1"/>
        <pt x="522" y="194" on="0"/>
        <pt x="483" y="93" on="0"/>
        <pt x="417" y="25" on="0"/>
        <pt x="329" y="-10" on="0"/>
        <pt x="281" y="-10" on="1"/>
        <pt x="231" y="-10" on="0"/>
        <pt x="143" y="25" on="0"/>
        <pt x="78" y="93" on="0"/>
        <pt x="40" y="194" on="0"/>
        <pt x="40" y="259" on="1"/>
        <pt x="40" y="324" on="0"/>
        <pt x="79" y="424" on="0"/>
        <pt x="145" y="492" on="0"/>
        <pt x="233" y="527" on="0"/>
        <pt x="281" y="527" on="1"/>
        <pt x="331" y="527" on="0"/>
        <pt x="419" y="492" on="0"/>
        <pt x="484" y="424" on="0"/>
        <pt x="522" y="324" on="0"/>
      </contour>
      <contour>
        <pt x="423" y="259" on="1"/>
        <pt x="423" y="309" on="0"/>
        <pt x="400" y="383" on="0"/>
        <pt x="361" y="431" on="0"/>
        <pt x="309" y="455" on="0"/>
        <pt x="281" y="455" on="1"/>
        <pt x="252" y="455" on="0"/>
        <pt x="201" y="431" on="0"/>
        <pt x="162" y="383" on="0"/>
        <pt x="139" y="309" on="0"/>
        <pt x="139" y="259" on="1"/>
        <pt x="139" y="208" on="0"/>
        <pt x="162" y="134" on="0"/>
        <pt x="201" y="86" on="0"/>
        <pt x="252" y="62" on="0"/>
        <pt x="281" y="62" on="1"/>
        <pt x="309" y="62" on="0"/>
        <pt x="361" y="86" on="0"/>
        <pt x="400" y="134" on="0"/>
        <pt x="423" y="208" on="0"/>
      </contour>
      <contour>
        <pt x="156" y="740" on="1"/>
        <pt x="251" y="740" on="1"/>
        <pt x="324" y="602" on="1"/>
        <pt x="298" y="596" on="0"/>
        <pt x="247" y="607" on="0"/>
        <pt x="228" y="631" on="1"/>
      </contour>
    </TTGlyph>
</ttFont>
